<svg width="70" height="70" viewBox="0 0 128 128" fill="none" xmlns="http://www.w3.org/2000/svg">
<g filter="url(#filter0_d_48_109)">
<g filter="url(#filter1_i_48_109)">
<path d="M112 56C112 78.0914 94.0914 96 72 96C49.9086 96 32 78.0914 32 56C32 33.9086 49.9086 16 72 16C94.0914 16 112 33.9086 112 56Z" fill="url(#paint0_linear_48_109)"/>
</g>
<g filter="url(#filter2_bii_48_109)">
<path fillRule="evenodd" clip-rule="evenodd" d="M56 112C78.0914 112 96 94.0914 96 72C96 49.9086 78.0914 32 56 32C33.9086 32 16 49.9086 16 72C16 94.0914 33.9086 112 56 112ZM51.6667 47C51.6667 44.7909 49.8758 43 47.6667 43C45.4575 43 43.6667 44.7909 43.6667 47V48H39C36.7909 48 35 49.7909 35 52C35 54.2091 36.7909 56 39 56H43.6667V88H39C36.7909 88 35 89.7909 35 92C35 94.2091 36.7909 96 39 96H43.6667V99C43.6667 101.209 45.4575 103 47.6667 103C49.8758 103 51.6667 101.209 51.6667 99V96H55.2222V99C55.2222 101.209 57.0131 103 59.2222 103C61.4314 103 63.2222 101.209 63.2222 99V95.9985C71.7759 95.8845 79 89.1994 79 80.5714C79 74.7869 75.7529 69.8757 71.0349 67.2325C72.2748 65.3201 73 63.0471 73 60.5714C73 54.5728 68.7422 49.7636 63.2222 48.3933V47C63.2222 44.7909 61.4314 43 59.2222 43C57.0131 43 55.2222 44.7909 55.2222 47V48H51.6667V47ZM51.6667 65.1429V56H60C62.9476 56 65 58.2284 65 60.5714C65 62.9145 62.9476 65.1429 60 65.1429H51.6667ZM51.6667 88V73.1429H63C67.6044 73.1429 71 76.6504 71 80.5714C71 84.4925 67.6044 88 63 88H51.6667Z" fill="white" fill-opacity="0.4"/>
</g>
</g>
<defs>
<filter id="filter0_d_48_109" x="12" y="12" width="112" height="112" filterUnits="userSpaceOnUse" color-interpolation-filters="sRGB">
<feFlood flood-opacity="0" result="BackgroundImageFix"/>
<feColorMatrix in="SourceAlpha" type="matrix" values="0 0 0 0 0 0 0 0 0 0 0 0 0 0 0 0 0 0 127 0" result="hardAlpha"/>
<feOffset dx="4" dy="4"/>
<feGaussianBlur stdDeviation="4"/>
<feColorMatrix type="matrix" values="0 0 0 0 0.956863 0 0 0 0 0.364706 0 0 0 0 0.827451 0 0 0 0.2 0"/>
<feBlend mode="normal" in2="BackgroundImageFix" result="effect1_dropShadow_48_109"/>
<feBlend mode="normal" in="SourceGraphic" in2="effect1_dropShadow_48_109" result="shape"/>
</filter>
<filter id="filter1_i_48_109" x="32" y="16" width="80" height="80" filterUnits="userSpaceOnUse" color-interpolation-filters="sRGB">
<feFlood flood-opacity="0" result="BackgroundImageFix"/>
<feBlend mode="normal" in="SourceGraphic" in2="BackgroundImageFix" result="shape"/>
<feColorMatrix in="SourceAlpha" type="matrix" values="0 0 0 0 0 0 0 0 0 0 0 0 0 0 0 0 0 0 127 0" result="hardAlpha"/>
<feOffset/>
<feGaussianBlur stdDeviation="4"/>
<feComposite in2="hardAlpha" operator="arithmetic" k2="-1" k3="1"/>
<feColorMatrix type="matrix" values="0 0 0 0 1 0 0 0 0 1 0 0 0 0 1 0 0 0 0.8 0"/>
<feBlend mode="normal" in2="shape" result="effect1_innerShadow_48_109"/>
</filter>
<filter id="filter2_bii_48_109" x="12" y="28" width="88" height="88" filterUnits="userSpaceOnUse" color-interpolation-filters="sRGB">
<feFlood flood-opacity="0" result="BackgroundImageFix"/>
<feGaussianBlur in="BackgroundImageFix" stdDeviation="2"/>
<feComposite in2="SourceAlpha" operator="in" result="effect1_backgroundBlur_48_109"/>
<feBlend mode="normal" in="SourceGraphic" in2="effect1_backgroundBlur_48_109" result="shape"/>
<feColorMatrix in="SourceAlpha" type="matrix" values="0 0 0 0 0 0 0 0 0 0 0 0 0 0 0 0 0 0 127 0" result="hardAlpha"/>
<feOffset/>
<feGaussianBlur stdDeviation="2"/>
<feComposite in2="hardAlpha" operator="arithmetic" k2="-1" k3="1"/>
<feColorMatrix type="matrix" values="0 0 0 0 1 0 0 0 0 1 0 0 0 0 1 0 0 0 1 0"/>
<feBlend mode="normal" in2="shape" result="effect2_innerShadow_48_109"/>
<feColorMatrix in="SourceAlpha" type="matrix" values="0 0 0 0 0 0 0 0 0 0 0 0 0 0 0 0 0 0 127 0" result="hardAlpha"/>
<feOffset dy="4"/>
<feGaussianBlur stdDeviation="4"/>
<feComposite in2="hardAlpha" operator="arithmetic" k2="-1" k3="1"/>
<feColorMatrix type="matrix" values="0 0 0 0 1 0 0 0 0 1 0 0 0 0 1 0 0 0 1 0"/>
<feBlend mode="normal" in2="effect2_innerShadow_48_109" result="effect3_innerShadow_48_109"/>
</filter>
<linearGradient id="paint0_linear_48_109" x1="72" y1="16" x2="72" y2="96" gradientUnits="userSpaceOnUse">
<stop stop-color="#FC954B"/>
<stop offset="1" stop-color="#F45DD3"/>
</linearGradient>
</defs>
</svg>
