<svg width="283" height="200" viewBox="0 0 283 200" fill="none" xmlns="http://www.w3.org/2000/svg">
<path d="M3.24574 196.099C2.74384 196.099 2.2964 196.007 1.90341 195.822C1.51278 195.638 1.20265 195.383 0.973011 195.059C0.743371 194.735 0.623816 194.363 0.614347 193.944H2.10582C2.1224 194.226 2.24077 194.454 2.46094 194.629C2.68111 194.804 2.94271 194.892 3.24574 194.892C3.48722 194.892 3.70028 194.839 3.88494 194.732C4.07197 194.623 4.21757 194.473 4.32173 194.281C4.42827 194.087 4.48153 193.865 4.48153 193.614C4.48153 193.358 4.42708 193.133 4.31818 192.939C4.21165 192.745 4.06368 192.593 3.87429 192.484C3.6849 192.375 3.46828 192.32 3.22443 192.317C3.01136 192.317 2.80421 192.361 2.60298 192.449C2.40412 192.536 2.24905 192.656 2.13778 192.808L0.770597 192.562L1.11506 188.727H5.56108V189.984H2.38281L2.1946 191.806H2.23722C2.36506 191.626 2.558 191.477 2.81605 191.359C3.0741 191.24 3.36293 191.181 3.68253 191.181C4.1205 191.181 4.51113 191.284 4.8544 191.49C5.19768 191.696 5.46875 191.979 5.66761 192.339C5.86648 192.696 5.96473 193.108 5.96236 193.575C5.96473 194.065 5.85109 194.5 5.62145 194.881C5.39418 195.26 5.07576 195.558 4.66619 195.776C4.259 195.992 3.78551 196.099 3.24574 196.099ZM9.88636 196.16C9.27557 196.157 8.75 196.007 8.30966 195.709C7.87169 195.411 7.53433 194.978 7.29759 194.413C7.06321 193.847 6.94721 193.166 6.94957 192.371C6.94957 191.578 7.06676 190.902 7.30114 190.343C7.53788 189.784 7.87524 189.359 8.31321 189.068C8.75355 188.775 9.27794 188.628 9.88636 188.628C10.4948 188.628 11.018 188.775 11.456 189.068C11.8963 189.362 12.2348 189.788 12.4716 190.347C12.7083 190.903 12.8255 191.578 12.8232 192.371C12.8232 193.169 12.7048 193.85 12.468 194.416C12.2337 194.982 11.8975 195.414 11.4595 195.712C11.0215 196.011 10.4972 196.16 9.88636 196.16ZM9.88636 194.885C10.303 194.885 10.6357 194.675 10.8842 194.256C11.1328 193.837 11.2559 193.209 11.2536 192.371C11.2536 191.819 11.1967 191.36 11.0831 190.993C10.9718 190.626 10.8132 190.35 10.6072 190.165C10.4036 189.981 10.1634 189.888 9.88636 189.888C9.47206 189.888 9.14063 190.096 8.89205 190.51C8.64347 190.924 8.51799 191.545 8.51562 192.371C8.51562 192.929 8.57126 193.396 8.68253 193.77C8.79616 194.142 8.95597 194.421 9.16193 194.608C9.3679 194.793 9.60938 194.885 9.88636 194.885Z" fill="#B8BFCC"/>
<path d="M3.03267 165.909V156.818H3.61506V165.909H3.03267ZM4.57741 159.819C4.54901 159.532 4.42708 159.31 4.21165 159.151C3.99621 158.993 3.70384 158.913 3.33452 158.913C3.08357 158.913 2.87169 158.949 2.69886 159.02C2.52604 159.089 2.39347 159.184 2.30114 159.308C2.21117 159.431 2.16619 159.57 2.16619 159.727C2.16146 159.857 2.18868 159.97 2.24787 160.067C2.30942 160.165 2.39347 160.249 2.5 160.32C2.60653 160.388 2.72964 160.449 2.86932 160.501C3.009 160.55 3.15814 160.593 3.31676 160.629L3.97017 160.785C4.28741 160.856 4.5786 160.951 4.84375 161.069C5.1089 161.187 5.33854 161.333 5.53267 161.506C5.7268 161.679 5.87713 161.882 5.98366 162.116C6.09257 162.351 6.1482 162.62 6.15057 162.923C6.1482 163.368 6.03456 163.754 5.80966 164.08C5.58712 164.405 5.26515 164.657 4.84375 164.837C4.42472 165.014 3.91927 165.103 3.32741 165.103C2.74029 165.103 2.22893 165.013 1.79332 164.833C1.36009 164.653 1.02154 164.387 0.777699 164.034C0.536222 163.679 0.409564 163.24 0.397727 162.717H1.88565C1.90223 162.96 1.97206 163.164 2.09517 163.327C2.22064 163.488 2.38755 163.61 2.59588 163.693C2.80658 163.774 3.04451 163.814 3.30966 163.814C3.57008 163.814 3.79616 163.776 3.98793 163.7C4.18205 163.625 4.33239 163.519 4.43892 163.384C4.54545 163.249 4.59872 163.094 4.59872 162.919C4.59872 162.756 4.55019 162.618 4.45312 162.507C4.35843 162.396 4.21875 162.301 4.03409 162.223C3.8518 162.145 3.62808 162.074 3.36293 162.01L2.57102 161.811C1.95786 161.662 1.47372 161.429 1.11861 161.112C0.763494 160.794 0.587121 160.367 0.589489 159.83C0.587121 159.389 0.704309 159.004 0.941051 158.675C1.18016 158.346 1.50805 158.089 1.92472 157.905C2.34138 157.72 2.81487 157.628 3.34517 157.628C3.88494 157.628 4.35606 157.72 4.75852 157.905C5.16335 158.089 5.47822 158.346 5.70312 158.675C5.92803 159.004 6.04403 159.386 6.05114 159.819H4.57741ZM12.6207 157.727V165H11.0831V159.187H11.0405L9.375 160.231V158.867L11.1754 157.727H12.6207ZM14.3919 165V157.727H15.9295V160.934H16.0254L18.6426 157.727H20.4856L17.7868 160.984L20.5176 165H18.6781L16.6859 162.01L15.9295 162.933V165H14.3919Z" fill="#B8BFCC"/>
<path d="M3.03267 134.909V125.818H3.61506V134.909H3.03267ZM4.57741 128.819C4.54901 128.532 4.42708 128.31 4.21165 128.151C3.99621 127.993 3.70384 127.913 3.33452 127.913C3.08357 127.913 2.87169 127.949 2.69886 128.02C2.52604 128.089 2.39347 128.184 2.30114 128.308C2.21117 128.431 2.16619 128.57 2.16619 128.727C2.16146 128.857 2.18868 128.97 2.24787 129.067C2.30942 129.165 2.39347 129.249 2.5 129.32C2.60653 129.388 2.72964 129.449 2.86932 129.501C3.009 129.55 3.15814 129.593 3.31676 129.629L3.97017 129.785C4.28741 129.856 4.5786 129.951 4.84375 130.069C5.1089 130.187 5.33854 130.333 5.53267 130.506C5.7268 130.679 5.87713 130.882 5.98366 131.116C6.09257 131.351 6.1482 131.62 6.15057 131.923C6.1482 132.368 6.03456 132.754 5.80966 133.08C5.58712 133.405 5.26515 133.657 4.84375 133.837C4.42472 134.014 3.91927 134.103 3.32741 134.103C2.74029 134.103 2.22893 134.013 1.79332 133.833C1.36009 133.653 1.02154 133.387 0.777699 133.034C0.536222 132.679 0.409564 132.24 0.397727 131.717H1.88565C1.90223 131.96 1.97206 132.164 2.09517 132.327C2.22064 132.488 2.38755 132.61 2.59588 132.693C2.80658 132.774 3.04451 132.814 3.30966 132.814C3.57008 132.814 3.79616 132.776 3.98793 132.7C4.18205 132.625 4.33239 132.519 4.43892 132.384C4.54545 132.249 4.59872 132.094 4.59872 131.919C4.59872 131.756 4.55019 131.618 4.45312 131.507C4.35843 131.396 4.21875 131.301 4.03409 131.223C3.8518 131.145 3.62808 131.074 3.36293 131.01L2.57102 130.811C1.95786 130.662 1.47372 130.429 1.11861 130.112C0.763494 129.794 0.587121 129.367 0.589489 128.83C0.587121 128.389 0.704309 128.004 0.941051 127.675C1.18016 127.346 1.50805 127.089 1.92472 126.905C2.34138 126.72 2.81487 126.628 3.34517 126.628C3.88494 126.628 4.35606 126.72 4.75852 126.905C5.16335 127.089 5.47822 127.346 5.70312 127.675C5.92803 128.004 6.04403 128.386 6.05114 128.819H4.57741ZM9.45668 134V132.892L12.0455 130.495C12.2656 130.282 12.4503 130.09 12.5994 129.92C12.7509 129.749 12.8658 129.582 12.9439 129.419C13.022 129.253 13.0611 129.075 13.0611 128.883C13.0611 128.67 13.0125 128.486 12.9155 128.332C12.8184 128.176 12.6858 128.057 12.5178 127.974C12.3497 127.888 12.1591 127.846 11.946 127.846C11.7235 127.846 11.5294 127.891 11.3636 127.981C11.1979 128.071 11.0701 128.2 10.9801 128.368C10.8902 128.536 10.8452 128.736 10.8452 128.968H9.38565C9.38565 128.492 9.49337 128.079 9.70881 127.729C9.92424 127.378 10.2261 127.107 10.6143 126.915C11.0026 126.724 11.45 126.628 11.9567 126.628C12.4775 126.628 12.9309 126.72 13.3168 126.905C13.705 127.087 14.0069 127.34 14.2223 127.665C14.4377 127.989 14.5455 128.361 14.5455 128.78C14.5455 129.054 14.491 129.326 14.3821 129.593C14.2756 129.861 14.085 130.158 13.8104 130.484C13.5357 130.809 13.1487 131.198 12.6491 131.653L11.5874 132.693V132.743H14.6413V134H9.45668ZM15.7981 134V126.727H17.3358V129.934H17.4316L20.0488 126.727H21.8919L19.193 129.984L21.9238 134H20.0843L18.0922 131.01L17.3358 131.933V134H15.7981Z" fill="#B8BFCC"/>
<path d="M3.03267 103.909V94.8182H3.61506V103.909H3.03267ZM4.57741 97.8189C4.54901 97.5324 4.42708 97.3099 4.21165 97.1513C3.99621 96.9927 3.70384 96.9134 3.33452 96.9134C3.08357 96.9134 2.87169 96.9489 2.69886 97.0199C2.52604 97.0885 2.39347 97.1844 2.30114 97.3075C2.21117 97.4306 2.16619 97.5703 2.16619 97.7266C2.16146 97.8568 2.18868 97.9704 2.24787 98.0675C2.30942 98.1645 2.39347 98.2486 2.5 98.3196C2.60653 98.3883 2.72964 98.4486 2.86932 98.5007C3.009 98.5504 3.15814 98.593 3.31676 98.6286L3.97017 98.7848C4.28741 98.8558 4.5786 98.9505 4.84375 99.0689C5.1089 99.1873 5.33854 99.3329 5.53267 99.5057C5.7268 99.6785 5.87713 99.8821 5.98366 100.116C6.09257 100.351 6.1482 100.62 6.15057 100.923C6.1482 101.368 6.03456 101.754 5.80966 102.08C5.58712 102.405 5.26515 102.657 4.84375 102.837C4.42472 103.014 3.91927 103.103 3.32741 103.103C2.74029 103.103 2.22893 103.013 1.79332 102.833C1.36009 102.653 1.02154 102.387 0.777699 102.034C0.536222 101.679 0.409564 101.24 0.397727 100.717H1.88565C1.90223 100.96 1.97206 101.164 2.09517 101.327C2.22064 101.488 2.38755 101.61 2.59588 101.693C2.80658 101.774 3.04451 101.814 3.30966 101.814C3.57008 101.814 3.79616 101.776 3.98793 101.7C4.18205 101.625 4.33239 101.519 4.43892 101.384C4.54545 101.249 4.59872 101.094 4.59872 100.919C4.59872 100.756 4.55019 100.618 4.45312 100.507C4.35843 100.396 4.21875 100.301 4.03409 100.223C3.8518 100.145 3.62808 100.074 3.36293 100.01L2.57102 99.8111C1.95786 99.6619 1.47372 99.4287 1.11861 99.1115C0.763494 98.7943 0.587121 98.367 0.589489 97.8295C0.587121 97.3892 0.704309 97.0045 0.941051 96.6754C1.18016 96.3464 1.50805 96.0895 1.92472 95.9048C2.34138 95.7202 2.81487 95.6278 3.34517 95.6278C3.88494 95.6278 4.35606 95.7202 4.75852 95.9048C5.16335 96.0895 5.47822 96.3464 5.70312 96.6754C5.92803 97.0045 6.04403 97.3857 6.05114 97.8189H4.57741ZM12.1449 103.099C11.6146 103.099 11.1423 103.008 10.728 102.826C10.3161 102.641 9.99053 102.388 9.75142 102.066C9.51468 101.742 9.39276 101.368 9.38565 100.944H10.9339C10.9434 101.121 11.0014 101.278 11.108 101.413C11.2169 101.545 11.3613 101.648 11.5412 101.722C11.7211 101.795 11.9235 101.832 12.1484 101.832C12.3828 101.832 12.59 101.79 12.7699 101.707C12.9498 101.625 13.0907 101.51 13.1925 101.363C13.2943 101.216 13.3452 101.047 13.3452 100.855C13.3452 100.661 13.2907 100.489 13.1818 100.34C13.0753 100.189 12.9214 100.07 12.7202 99.9851C12.5213 99.8999 12.2846 99.8572 12.0099 99.8572H11.3317V98.728H12.0099C12.242 98.728 12.4467 98.6877 12.6243 98.6072C12.8042 98.5268 12.9439 98.4155 13.0433 98.2734C13.1428 98.129 13.1925 97.9609 13.1925 97.7692C13.1925 97.5869 13.1487 97.4271 13.0611 97.2898C12.9759 97.1501 12.8551 97.0412 12.6989 96.9631C12.545 96.8849 12.3651 96.8459 12.1591 96.8459C11.9508 96.8459 11.7602 96.8838 11.5874 96.9595C11.4145 97.0329 11.276 97.1383 11.1719 97.2756C11.0677 97.4129 11.0121 97.5739 11.005 97.7585H9.53125C9.53835 97.3395 9.65791 96.9702 9.88991 96.6506C10.1219 96.331 10.4344 96.0812 10.8274 95.9013C11.2228 95.719 11.669 95.6278 12.1662 95.6278C12.6681 95.6278 13.1072 95.719 13.4837 95.9013C13.8601 96.0836 14.1525 96.3298 14.3608 96.6399C14.5715 96.9477 14.6757 97.2933 14.6733 97.6768C14.6757 98.084 14.549 98.4238 14.2933 98.696C14.04 98.9683 13.7098 99.1411 13.3026 99.2145V99.2713C13.8376 99.34 14.2448 99.5258 14.5241 99.8288C14.8059 100.129 14.9455 100.506 14.9432 100.958C14.9455 101.372 14.826 101.741 14.5845 102.062C14.3454 102.384 14.0152 102.638 13.5938 102.822C13.1723 103.007 12.6894 103.099 12.1449 103.099ZM16.0911 103V95.7273H17.6287V98.9339H17.7246L20.3418 95.7273H22.1848L19.486 98.9837L22.2168 103H20.3773L18.3851 100.01L17.6287 100.933V103H16.0911Z" fill="#B8BFCC"/>
<path d="M3.03267 72.9091V63.8182H3.61506V72.9091H3.03267ZM4.57741 66.8189C4.54901 66.5324 4.42708 66.3099 4.21165 66.1513C3.99621 65.9927 3.70384 65.9134 3.33452 65.9134C3.08357 65.9134 2.87169 65.9489 2.69886 66.0199C2.52604 66.0885 2.39347 66.1844 2.30114 66.3075C2.21117 66.4306 2.16619 66.5703 2.16619 66.7266C2.16146 66.8568 2.18868 66.9704 2.24787 67.0675C2.30942 67.1645 2.39347 67.2486 2.5 67.3196C2.60653 67.3883 2.72964 67.4486 2.86932 67.5007C3.009 67.5504 3.15814 67.593 3.31676 67.6286L3.97017 67.7848C4.28741 67.8558 4.5786 67.9505 4.84375 68.0689C5.1089 68.1873 5.33854 68.3329 5.53267 68.5057C5.7268 68.6785 5.87713 68.8821 5.98366 69.1165C6.09257 69.3509 6.1482 69.6196 6.15057 69.9226C6.1482 70.3677 6.03456 70.7536 5.80966 71.0803C5.58712 71.4046 5.26515 71.6567 4.84375 71.8366C4.42472 72.0142 3.91927 72.103 3.32741 72.103C2.74029 72.103 2.22893 72.013 1.79332 71.8331C1.36009 71.6532 1.02154 71.3868 0.777699 71.0341C0.536222 70.679 0.409564 70.2398 0.397727 69.7166H1.88565C1.90223 69.9605 1.97206 70.1641 2.09517 70.3274C2.22064 70.4884 2.38755 70.6103 2.59588 70.6932C2.80658 70.7737 3.04451 70.8139 3.30966 70.8139C3.57008 70.8139 3.79616 70.776 3.98793 70.7003C4.18205 70.6245 4.33239 70.5192 4.43892 70.3842C4.54545 70.2493 4.59872 70.0942 4.59872 69.919C4.59872 69.7557 4.55019 69.6184 4.45312 69.5071C4.35843 69.3958 4.21875 69.3011 4.03409 69.223C3.8518 69.1449 3.62808 69.0739 3.36293 69.0099L2.57102 68.8111C1.95786 68.6619 1.47372 68.4287 1.11861 68.1115C0.763494 67.7943 0.587121 67.367 0.589489 66.8295C0.587121 66.3892 0.704309 66.0045 0.941051 65.6754C1.18016 65.3464 1.50805 65.0895 1.92472 64.9048C2.34138 64.7202 2.81487 64.6278 3.34517 64.6278C3.88494 64.6278 4.35606 64.7202 4.75852 64.9048C5.16335 65.0895 5.47822 65.3464 5.70312 65.6754C5.92803 66.0045 6.04403 66.3857 6.05114 66.8189H4.57741ZM9.34659 70.7216V69.5107L12.3828 64.7273H13.4268V66.4034H12.8089L10.8949 69.4325V69.4893H15.2095V70.7216H9.34659ZM12.8374 72V70.3523L12.8658 69.8161V64.7273H14.3075V72H12.8374ZM16.2766 72V64.7273H17.8143V67.9339H17.9102L20.5273 64.7273H22.3704L19.6715 67.9837L22.4023 72H20.5629L18.5707 69.0099L17.8143 69.9332V72H16.2766Z" fill="#B8BFCC"/>
<path d="M3.03267 41.9091V32.8182H3.61506V41.9091H3.03267ZM4.57741 35.8189C4.54901 35.5324 4.42708 35.3099 4.21165 35.1513C3.99621 34.9927 3.70384 34.9134 3.33452 34.9134C3.08357 34.9134 2.87169 34.9489 2.69886 35.0199C2.52604 35.0885 2.39347 35.1844 2.30114 35.3075C2.21117 35.4306 2.16619 35.5703 2.16619 35.7266C2.16146 35.8568 2.18868 35.9704 2.24787 36.0675C2.30942 36.1645 2.39347 36.2486 2.5 36.3196C2.60653 36.3883 2.72964 36.4486 2.86932 36.5007C3.009 36.5504 3.15814 36.593 3.31676 36.6286L3.97017 36.7848C4.28741 36.8558 4.5786 36.9505 4.84375 37.0689C5.1089 37.1873 5.33854 37.3329 5.53267 37.5057C5.7268 37.6785 5.87713 37.8821 5.98366 38.1165C6.09257 38.3509 6.1482 38.6196 6.15057 38.9226C6.1482 39.3677 6.03456 39.7536 5.80966 40.0803C5.58712 40.4046 5.26515 40.6567 4.84375 40.8366C4.42472 41.0142 3.91927 41.103 3.32741 41.103C2.74029 41.103 2.22893 41.013 1.79332 40.8331C1.36009 40.6532 1.02154 40.3868 0.777699 40.0341C0.536222 39.679 0.409564 39.2398 0.397727 38.7166H1.88565C1.90223 38.9605 1.97206 39.1641 2.09517 39.3274C2.22064 39.4884 2.38755 39.6103 2.59588 39.6932C2.80658 39.7737 3.04451 39.8139 3.30966 39.8139C3.57008 39.8139 3.79616 39.776 3.98793 39.7003C4.18205 39.6245 4.33239 39.5192 4.43892 39.3842C4.54545 39.2493 4.59872 39.0942 4.59872 38.919C4.59872 38.7557 4.55019 38.6184 4.45312 38.5071C4.35843 38.3958 4.21875 38.3011 4.03409 38.223C3.8518 38.1449 3.62808 38.0739 3.36293 38.0099L2.57102 37.8111C1.95786 37.6619 1.47372 37.4287 1.11861 37.1115C0.763494 36.7943 0.587121 36.367 0.589489 35.8295C0.587121 35.3892 0.704309 35.0045 0.941051 34.6754C1.18016 34.3464 1.50805 34.0895 1.92472 33.9048C2.34138 33.7202 2.81487 33.6278 3.34517 33.6278C3.88494 33.6278 4.35606 33.7202 4.75852 33.9048C5.16335 34.0895 5.47822 34.3464 5.70312 34.6754C5.92803 35.0045 6.04403 35.3857 6.05114 35.8189H4.57741ZM12.1129 41.0994C11.611 41.0994 11.1636 41.0071 10.7706 40.8224C10.38 40.6378 10.0698 40.3833 9.8402 40.0589C9.61056 39.7346 9.491 39.3629 9.48153 38.9439H10.973C10.9896 39.2256 11.108 39.4541 11.3281 39.6293C11.5483 39.8045 11.8099 39.892 12.1129 39.892C12.3544 39.892 12.5675 39.8388 12.7521 39.7322C12.9392 39.6233 13.0848 39.473 13.1889 39.2812C13.2955 39.0871 13.3487 38.8646 13.3487 38.6136C13.3487 38.358 13.2943 38.133 13.1854 37.9389C13.0788 37.7448 12.9309 37.5933 12.7415 37.4844C12.5521 37.3755 12.3355 37.3198 12.0916 37.3175C11.8786 37.3175 11.6714 37.3613 11.4702 37.4489C11.2713 37.5365 11.1162 37.656 11.005 37.8075L9.63778 37.5625L9.98224 33.7273H14.4283V34.9844H11.25L11.0618 36.8061H11.1044C11.2322 36.6262 11.4252 36.477 11.6832 36.3587C11.9413 36.2403 12.2301 36.1811 12.5497 36.1811C12.9877 36.1811 13.3783 36.2841 13.7216 36.4901C14.0649 36.696 14.3359 36.9789 14.5348 37.3388C14.7337 37.6963 14.8319 38.1082 14.8295 38.5746C14.8319 39.0646 14.7183 39.5002 14.4886 39.8814C14.2614 40.2602 13.9429 40.5585 13.5334 40.7763C13.1262 40.9917 12.6527 41.0994 12.1129 41.0994ZM15.9446 41V33.7273H17.4822V36.9339H17.5781L20.1953 33.7273H22.0384L19.3395 36.9837L22.0703 41H20.2308L18.2386 38.0099L17.4822 38.9332V41H15.9446Z" fill="#B8BFCC"/>
<rect x="61" y="40" width="8" height="160" rx="4" fill="#22C55E"/>
<g filter="url(#filter0_d_3043_69)">
<path fillRule="evenodd" clip-rule="evenodd" d="M94 48V40L90 44L94 48Z" fill="#22C55E"/>
<rect x="94" y="30" width="76" height="28" rx="5" fill="#22C55E"/>
<path d="M103.062 48V47.233L105.942 44.0795C106.28 43.7102 106.559 43.3892 106.778 43.1165C106.996 42.8409 107.158 42.5824 107.263 42.3409C107.371 42.0966 107.425 41.8409 107.425 41.5739C107.425 41.267 107.351 41.0014 107.204 40.777C107.059 40.5526 106.86 40.3793 106.607 40.2571C106.354 40.1349 106.07 40.0739 105.755 40.0739C105.42 40.0739 105.127 40.1435 104.877 40.2827C104.63 40.419 104.438 40.6108 104.302 40.858C104.168 41.1051 104.101 41.3949 104.101 41.7273H103.096C103.096 41.2159 103.214 40.767 103.449 40.3807C103.685 39.9943 104.006 39.6932 104.412 39.4773C104.822 39.2614 105.28 39.1534 105.789 39.1534C106.3 39.1534 106.753 39.2614 107.148 39.4773C107.543 39.6932 107.853 39.9844 108.077 40.3509C108.302 40.7173 108.414 41.125 108.414 41.5739C108.414 41.8949 108.356 42.2088 108.239 42.5156C108.126 42.8196 107.927 43.1591 107.643 43.5341C107.361 43.9062 106.971 44.3608 106.471 44.8977L104.51 46.9943V47.0625H108.567V48H103.062ZM114.725 44.0625V48H113.719V39.2727H114.725V42.4773H114.81C114.964 42.1392 115.194 41.8707 115.501 41.6719C115.81 41.4702 116.222 41.3693 116.736 41.3693C117.182 41.3693 117.573 41.4588 117.908 41.6378C118.243 41.8139 118.503 42.0852 118.688 42.4517C118.876 42.8153 118.969 43.2784 118.969 43.8409V48H117.964V43.9091C117.964 43.3892 117.829 42.9872 117.559 42.7031C117.292 42.4162 116.921 42.2727 116.447 42.2727C116.117 42.2727 115.822 42.3423 115.56 42.4815C115.302 42.6207 115.097 42.8239 114.947 43.0909C114.799 43.358 114.725 43.6818 114.725 44.0625ZM127.116 48.1193C126.553 48.1193 126.052 48.0227 125.612 47.8295C125.174 47.6364 124.826 47.3679 124.568 47.0241C124.312 46.6776 124.173 46.2756 124.15 45.8182H125.224C125.247 46.0994 125.343 46.3423 125.514 46.5469C125.684 46.7486 125.907 46.9048 126.183 47.0156C126.458 47.1264 126.764 47.1818 127.099 47.1818C127.474 47.1818 127.806 47.1165 128.096 46.9858C128.386 46.8551 128.613 46.6733 128.778 46.4403C128.943 46.2074 129.025 45.9375 129.025 45.6307C129.025 45.3097 128.945 45.027 128.786 44.7827C128.627 44.5355 128.394 44.3423 128.088 44.2031C127.781 44.0639 127.406 43.9943 126.963 43.9943H126.264V43.0568H126.963C127.309 43.0568 127.613 42.9943 127.874 42.8693C128.139 42.7443 128.345 42.5682 128.492 42.3409C128.643 42.1136 128.718 41.8466 128.718 41.5398C128.718 41.2443 128.653 40.9872 128.522 40.7685C128.392 40.5497 128.207 40.3793 127.968 40.2571C127.732 40.1349 127.454 40.0739 127.133 40.0739C126.832 40.0739 126.548 40.1293 126.281 40.2401C126.017 40.348 125.801 40.5057 125.633 40.7131C125.465 40.9176 125.374 41.1648 125.36 41.4545H124.338C124.355 40.9972 124.492 40.5966 124.751 40.2528C125.009 39.9062 125.347 39.6364 125.765 39.4432C126.186 39.25 126.647 39.1534 127.15 39.1534C127.69 39.1534 128.153 39.2628 128.539 39.4815C128.926 39.6974 129.222 39.983 129.43 40.3381C129.637 40.6932 129.741 41.0767 129.741 41.4886C129.741 41.9801 129.612 42.3991 129.353 42.7457C129.097 43.0923 128.749 43.3324 128.309 43.4659V43.5341C128.86 43.625 129.291 43.8594 129.6 44.2372C129.91 44.6122 130.065 45.0767 130.065 45.6307C130.065 46.1051 129.936 46.5312 129.677 46.9091C129.421 47.2841 129.072 47.5795 128.629 47.7955C128.186 48.0114 127.681 48.1193 127.116 48.1193ZM131.808 48V47.233L134.688 44.0795C135.026 43.7102 135.305 43.3892 135.524 43.1165C135.742 42.8409 135.904 42.5824 136.009 42.3409C136.117 42.0966 136.171 41.8409 136.171 41.5739C136.171 41.267 136.097 41.0014 135.95 40.777C135.805 40.5526 135.606 40.3793 135.353 40.2571C135.1 40.1349 134.816 40.0739 134.501 40.0739C134.166 40.0739 133.873 40.1435 133.623 40.2827C133.376 40.419 133.184 40.6108 133.048 40.858C132.914 41.1051 132.847 41.3949 132.847 41.7273H131.842C131.842 41.2159 131.96 40.767 132.195 40.3807C132.431 39.9943 132.752 39.6932 133.159 39.4773C133.568 39.2614 134.026 39.1534 134.535 39.1534C135.046 39.1534 135.499 39.2614 135.894 39.4773C136.289 39.6932 136.599 39.9844 136.823 40.3509C137.048 40.7173 137.16 41.125 137.16 41.5739C137.16 41.8949 137.102 42.2088 136.985 42.5156C136.872 42.8196 136.673 43.1591 136.389 43.5341C136.107 43.9062 135.717 44.3608 135.217 44.8977L133.257 46.9943V47.0625H137.313V48H131.808ZM142.465 48V41.4545H143.437V42.4773H143.522C143.659 42.1278 143.879 41.8565 144.183 41.6634C144.487 41.4673 144.852 41.3693 145.278 41.3693C145.71 41.3693 146.069 41.4673 146.356 41.6634C146.646 41.8565 146.872 42.1278 147.034 42.4773H147.102C147.269 42.1392 147.521 41.8707 147.856 41.6719C148.191 41.4702 148.593 41.3693 149.062 41.3693C149.647 41.3693 150.126 41.5526 150.498 41.919C150.87 42.2827 151.056 42.8494 151.056 43.6193V48H150.051V43.6193C150.051 43.1364 149.919 42.7912 149.654 42.5838C149.39 42.3764 149.079 42.2727 148.721 42.2727C148.261 42.2727 147.904 42.4119 147.651 42.6903C147.399 42.9659 147.272 43.3153 147.272 43.7386V48H146.249V43.517C146.249 43.1449 146.129 42.8452 145.887 42.6179C145.646 42.3878 145.335 42.2727 144.954 42.2727C144.693 42.2727 144.448 42.3423 144.221 42.4815C143.997 42.6207 143.815 42.8139 143.676 43.0611C143.539 43.3054 143.471 43.5881 143.471 43.9091V48H142.465ZM152.895 48V41.4545H153.901V48H152.895ZM153.406 40.3636C153.21 40.3636 153.041 40.2969 152.899 40.1634C152.76 40.0298 152.691 39.8693 152.691 39.6818C152.691 39.4943 152.76 39.3338 152.899 39.2003C153.041 39.0668 153.21 39 153.406 39C153.602 39 153.77 39.0668 153.909 39.2003C154.051 39.3338 154.122 39.4943 154.122 39.6818C154.122 39.8693 154.051 40.0298 153.909 40.1634C153.77 40.2969 153.602 40.3636 153.406 40.3636ZM156.748 44.0625V48H155.743V41.4545H156.714V42.4773H156.8C156.953 42.1449 157.186 41.8778 157.498 41.6761C157.811 41.4716 158.214 41.3693 158.709 41.3693C159.152 41.3693 159.54 41.4602 159.872 41.642C160.204 41.821 160.463 42.0938 160.648 42.4602C160.832 42.8239 160.925 43.2841 160.925 43.8409V48H159.919V43.9091C159.919 43.3949 159.785 42.9943 159.518 42.7074C159.251 42.4176 158.885 42.2727 158.419 42.2727C158.098 42.2727 157.811 42.3423 157.558 42.4815C157.308 42.6207 157.111 42.8239 156.966 43.0909C156.821 43.358 156.748 43.6818 156.748 44.0625Z" fill="#DCFCE7"/>
</g>
<rect x="101" y="88" width="8" height="111" rx="4" fill="#A855F7"/>
<rect x="141" y="118" width="8" height="81" rx="4" fill="#33BFFF"/>
<path d="M244.886 135H243.238L245.749 127.727H247.73L250.237 135H248.589L246.768 129.389H246.711L244.886 135ZM244.783 132.141H248.675V133.342H244.783V132.141ZM253.295 135.107C252.736 135.107 252.255 134.988 251.853 134.751C251.453 134.512 251.145 134.181 250.93 133.757C250.717 133.333 250.61 132.846 250.61 132.294C250.61 131.735 250.718 131.245 250.933 130.824C251.151 130.4 251.46 130.07 251.86 129.833C252.26 129.594 252.736 129.474 253.288 129.474C253.763 129.474 254.18 129.561 254.538 129.734C254.895 129.906 255.178 130.149 255.386 130.462C255.595 130.774 255.71 131.141 255.731 131.562H254.303C254.263 131.29 254.156 131.071 253.984 130.906C253.813 130.737 253.589 130.653 253.312 130.653C253.078 130.653 252.873 130.717 252.698 130.845C252.525 130.971 252.39 131.154 252.293 131.396C252.196 131.637 252.148 131.929 252.148 132.273C252.148 132.621 252.195 132.917 252.29 133.161C252.387 133.404 252.523 133.59 252.698 133.718C252.873 133.846 253.078 133.91 253.312 133.91C253.485 133.91 253.64 133.874 253.778 133.803C253.917 133.732 254.032 133.629 254.122 133.494C254.214 133.357 254.275 133.192 254.303 133.001H255.731C255.707 133.417 255.594 133.784 255.39 134.102C255.189 134.416 254.911 134.663 254.555 134.84C254.2 135.018 253.78 135.107 253.295 135.107ZM259.601 129.545V130.682H256.316V129.545H259.601ZM257.062 128.239H258.574V133.324C258.574 133.464 258.596 133.572 258.638 133.651C258.681 133.726 258.74 133.78 258.816 133.81C258.894 133.841 258.984 133.857 259.086 133.857C259.157 133.857 259.228 133.851 259.299 133.839C259.37 133.825 259.424 133.814 259.462 133.807L259.7 134.933C259.624 134.956 259.518 134.983 259.381 135.014C259.243 135.047 259.076 135.067 258.88 135.075C258.515 135.089 258.196 135.04 257.921 134.929C257.649 134.818 257.437 134.645 257.285 134.411C257.134 134.176 257.059 133.88 257.062 133.523V128.239ZM264.084 132.678V129.545H265.597V135H264.144V134.009H264.088C263.964 134.329 263.76 134.586 263.473 134.78C263.189 134.974 262.842 135.071 262.433 135.071C262.068 135.071 261.747 134.988 261.47 134.822C261.193 134.657 260.977 134.421 260.82 134.116C260.667 133.81 260.588 133.445 260.586 133.018V129.545H262.099V132.749C262.101 133.071 262.188 133.325 262.358 133.512C262.529 133.699 262.757 133.793 263.044 133.793C263.226 133.793 263.396 133.751 263.555 133.668C263.713 133.583 263.841 133.458 263.938 133.292C264.038 133.126 264.086 132.921 264.084 132.678ZM268.362 135.103C268.014 135.103 267.704 135.043 267.432 134.922C267.16 134.799 266.944 134.618 266.786 134.379C266.629 134.137 266.551 133.836 266.551 133.477C266.551 133.174 266.607 132.919 266.718 132.713C266.829 132.507 266.981 132.341 267.173 132.216C267.364 132.09 267.582 131.996 267.826 131.932C268.072 131.868 268.33 131.823 268.6 131.797C268.917 131.764 269.173 131.733 269.367 131.705C269.561 131.674 269.702 131.629 269.79 131.57C269.877 131.51 269.921 131.423 269.921 131.307V131.286C269.921 131.061 269.85 130.887 269.708 130.763C269.568 130.64 269.37 130.579 269.112 130.579C268.839 130.579 268.623 130.639 268.462 130.76C268.301 130.878 268.194 131.027 268.142 131.207L266.743 131.094C266.814 130.762 266.954 130.476 267.162 130.234C267.37 129.991 267.639 129.804 267.968 129.673C268.299 129.541 268.683 129.474 269.119 129.474C269.422 129.474 269.712 129.51 269.989 129.581C270.268 129.652 270.515 129.762 270.731 129.911C270.949 130.06 271.12 130.252 271.246 130.487C271.371 130.719 271.434 130.997 271.434 131.321V135H269.999V134.244H269.957C269.869 134.414 269.752 134.564 269.605 134.695C269.458 134.822 269.282 134.923 269.076 134.996C268.87 135.067 268.632 135.103 268.362 135.103ZM268.795 134.059C269.018 134.059 269.214 134.015 269.385 133.928C269.555 133.838 269.689 133.717 269.786 133.565C269.883 133.414 269.932 133.242 269.932 133.05V132.472C269.884 132.502 269.819 132.531 269.737 132.557C269.656 132.58 269.565 132.603 269.463 132.624C269.361 132.643 269.259 132.661 269.158 132.678C269.056 132.692 268.964 132.705 268.881 132.717C268.703 132.743 268.548 132.784 268.415 132.841C268.283 132.898 268.18 132.975 268.107 133.072C268.033 133.166 267.996 133.285 267.996 133.427C267.996 133.633 268.071 133.79 268.22 133.899C268.372 134.006 268.563 134.059 268.795 134.059ZM274.12 127.727V135H272.608V127.727H274.12Z" fill="#606C80"/>
<rect x="215" y="125" width="12" height="12" rx="6" fill="#22C55E"/>
<path d="M243.632 165V157.727H246.501C247.053 157.727 247.523 157.833 247.911 158.043C248.299 158.252 248.595 158.542 248.799 158.913C249.005 159.283 249.108 159.709 249.108 160.192C249.108 160.675 249.004 161.101 248.795 161.47C248.587 161.839 248.285 162.127 247.89 162.333C247.497 162.539 247.021 162.642 246.462 162.642H244.634V161.41H246.214C246.51 161.41 246.754 161.359 246.945 161.257C247.139 161.153 247.284 161.01 247.379 160.827C247.476 160.643 247.524 160.431 247.524 160.192C247.524 159.95 247.476 159.74 247.379 159.56C247.284 159.377 247.139 159.237 246.945 159.137C246.751 159.035 246.505 158.984 246.207 158.984H245.17V165H243.632ZM251.591 157.727V165H250.078V157.727H251.591ZM254.358 165.103C254.01 165.103 253.7 165.043 253.428 164.922C253.156 164.799 252.94 164.618 252.782 164.379C252.625 164.137 252.547 163.836 252.547 163.477C252.547 163.174 252.603 162.919 252.714 162.713C252.825 162.507 252.977 162.341 253.169 162.216C253.36 162.09 253.578 161.996 253.822 161.932C254.068 161.868 254.326 161.823 254.596 161.797C254.913 161.764 255.169 161.733 255.363 161.705C255.557 161.674 255.698 161.629 255.786 161.57C255.873 161.51 255.917 161.423 255.917 161.307V161.286C255.917 161.061 255.846 160.887 255.704 160.763C255.565 160.64 255.366 160.579 255.108 160.579C254.835 160.579 254.619 160.639 254.458 160.76C254.297 160.878 254.19 161.027 254.138 161.207L252.739 161.094C252.81 160.762 252.95 160.476 253.158 160.234C253.366 159.991 253.635 159.804 253.964 159.673C254.296 159.541 254.679 159.474 255.115 159.474C255.418 159.474 255.708 159.51 255.985 159.581C256.264 159.652 256.511 159.762 256.727 159.911C256.945 160.06 257.116 160.252 257.242 160.487C257.367 160.719 257.43 160.997 257.43 161.321V165H255.995V164.244H255.953C255.865 164.414 255.748 164.564 255.601 164.695C255.454 164.822 255.278 164.923 255.072 164.996C254.866 165.067 254.628 165.103 254.358 165.103ZM254.792 164.059C255.014 164.059 255.211 164.015 255.381 163.928C255.551 163.838 255.685 163.717 255.782 163.565C255.879 163.414 255.928 163.242 255.928 163.05V162.472C255.881 162.502 255.815 162.531 255.733 162.557C255.652 162.58 255.561 162.603 255.459 162.624C255.357 162.643 255.256 162.661 255.154 162.678C255.052 162.692 254.96 162.705 254.877 162.717C254.699 162.743 254.544 162.784 254.412 162.841C254.279 162.898 254.176 162.975 254.103 163.072C254.029 163.166 253.993 163.285 253.993 163.427C253.993 163.633 254.067 163.79 254.216 163.899C254.368 164.006 254.56 164.059 254.792 164.059ZM258.604 165V159.545H260.116V165H258.604ZM259.364 158.842C259.139 158.842 258.946 158.768 258.785 158.619C258.626 158.467 258.547 158.286 258.547 158.075C258.547 157.867 258.626 157.688 258.785 157.539C258.946 157.388 259.139 157.312 259.364 157.312C259.589 157.312 259.78 157.388 259.939 157.539C260.1 157.688 260.18 157.867 260.18 158.075C260.18 158.286 260.1 158.467 259.939 158.619C259.78 158.768 259.589 158.842 259.364 158.842ZM262.841 161.847V165H261.328V159.545H262.77V160.508H262.834C262.955 160.191 263.157 159.94 263.441 159.755C263.725 159.568 264.07 159.474 264.475 159.474C264.853 159.474 265.184 159.557 265.465 159.723C265.747 159.889 265.966 160.125 266.122 160.433C266.279 160.739 266.357 161.103 266.357 161.527V165H264.844V161.797C264.846 161.463 264.761 161.203 264.588 161.016C264.415 160.826 264.177 160.732 263.874 160.732C263.671 160.732 263.491 160.775 263.335 160.863C263.181 160.951 263.06 161.078 262.972 161.246C262.887 161.412 262.843 161.612 262.841 161.847ZM267.549 165V159.545H269.062V165H267.549ZM268.309 158.842C268.084 158.842 267.891 158.768 267.73 158.619C267.571 158.467 267.492 158.286 267.492 158.075C267.492 157.867 267.571 157.688 267.73 157.539C267.891 157.388 268.084 157.312 268.309 157.312C268.534 157.312 268.726 157.388 268.884 157.539C269.045 157.688 269.126 157.867 269.126 158.075C269.126 158.286 269.045 158.467 268.884 158.619C268.726 158.768 268.534 158.842 268.309 158.842ZM271.786 161.847V165H270.274V159.545H271.715V160.508H271.779C271.9 160.191 272.102 159.94 272.387 159.755C272.671 159.568 273.015 159.474 273.42 159.474C273.799 159.474 274.129 159.557 274.411 159.723C274.692 159.889 274.911 160.125 275.068 160.433C275.224 160.739 275.302 161.103 275.302 161.527V165H273.789V161.797C273.792 161.463 273.706 161.203 273.534 161.016C273.361 160.826 273.123 160.732 272.82 160.732C272.616 160.732 272.436 160.775 272.28 160.863C272.126 160.951 272.005 161.078 271.918 161.246C271.833 161.412 271.789 161.612 271.786 161.847ZM278.952 167.159C278.462 167.159 278.041 167.092 277.691 166.957C277.343 166.824 277.066 166.643 276.86 166.413C276.654 166.184 276.52 165.926 276.459 165.639L277.858 165.451C277.901 165.56 277.968 165.662 278.06 165.756C278.153 165.851 278.275 165.927 278.426 165.984C278.58 166.043 278.767 166.072 278.987 166.072C279.316 166.072 279.587 165.992 279.8 165.831C280.016 165.672 280.124 165.406 280.124 165.032V164.034H280.06C279.993 164.186 279.894 164.329 279.761 164.464C279.629 164.599 279.458 164.709 279.25 164.794C279.042 164.879 278.793 164.922 278.504 164.922C278.095 164.922 277.722 164.827 277.386 164.638C277.052 164.446 276.786 164.154 276.587 163.761C276.39 163.365 276.292 162.866 276.292 162.262C276.292 161.644 276.393 161.128 276.594 160.714C276.795 160.299 277.063 159.989 277.396 159.783C277.732 159.577 278.101 159.474 278.501 159.474C278.806 159.474 279.062 159.527 279.268 159.631C279.474 159.732 279.639 159.86 279.765 160.014C279.893 160.166 279.991 160.315 280.06 160.462H280.116V159.545H281.619V165.053C281.619 165.517 281.505 165.906 281.278 166.218C281.05 166.531 280.736 166.765 280.333 166.921C279.933 167.08 279.473 167.159 278.952 167.159ZM278.984 163.786C279.228 163.786 279.433 163.725 279.602 163.604C279.772 163.481 279.902 163.306 279.992 163.079C280.085 162.849 280.131 162.575 280.131 162.255C280.131 161.935 280.086 161.658 279.996 161.424C279.906 161.187 279.776 161.004 279.605 160.874C279.435 160.743 279.228 160.678 278.984 160.678C278.735 160.678 278.526 160.746 278.355 160.881C278.185 161.013 278.056 161.198 277.968 161.435C277.88 161.671 277.837 161.945 277.837 162.255C277.837 162.57 277.88 162.842 277.968 163.072C278.058 163.299 278.187 163.475 278.355 163.601C278.526 163.724 278.735 163.786 278.984 163.786Z" fill="#606C80"/>
<rect x="215" y="155" width="12" height="12" rx="6" fill="#A855F7"/>
<path d="M243.632 195V187.727H246.544C247.079 187.727 247.525 187.807 247.883 187.965C248.24 188.124 248.509 188.344 248.689 188.626C248.869 188.905 248.959 189.227 248.959 189.592C248.959 189.876 248.902 190.125 248.788 190.341C248.675 190.554 248.518 190.729 248.32 190.866C248.123 191.001 247.898 191.097 247.645 191.154V191.225C247.922 191.237 248.181 191.315 248.423 191.46C248.666 191.604 248.864 191.806 249.016 192.067C249.167 192.325 249.243 192.633 249.243 192.99C249.243 193.376 249.147 193.72 248.955 194.023C248.766 194.324 248.485 194.562 248.114 194.737C247.742 194.912 247.284 195 246.739 195H243.632ZM245.17 193.743H246.423C246.852 193.743 247.164 193.661 247.361 193.498C247.557 193.332 247.656 193.112 247.656 192.837C247.656 192.636 247.607 192.459 247.51 192.305C247.413 192.151 247.274 192.03 247.094 191.942C246.917 191.855 246.705 191.811 246.459 191.811H245.17V193.743ZM245.17 190.771H246.31C246.52 190.771 246.707 190.734 246.871 190.661C247.036 190.585 247.167 190.478 247.261 190.341C247.358 190.204 247.407 190.039 247.407 189.847C247.407 189.585 247.313 189.373 247.126 189.212C246.942 189.051 246.679 188.97 246.338 188.97H245.17V190.771ZM253.713 192.678V189.545H255.226V195H253.773V194.009H253.716C253.593 194.329 253.389 194.586 253.102 194.78C252.818 194.974 252.471 195.071 252.062 195.071C251.697 195.071 251.376 194.988 251.099 194.822C250.822 194.657 250.606 194.421 250.449 194.116C250.296 193.81 250.217 193.445 250.215 193.018V189.545H251.728V192.749C251.73 193.071 251.817 193.325 251.987 193.512C252.157 193.699 252.386 193.793 252.672 193.793C252.855 193.793 253.025 193.751 253.184 193.668C253.342 193.583 253.47 193.458 253.567 193.292C253.667 193.126 253.715 192.921 253.713 192.678ZM258.446 195.089C258.031 195.089 257.656 194.982 257.32 194.769C256.986 194.554 256.721 194.238 256.525 193.821C256.33 193.402 256.233 192.888 256.233 192.28C256.233 191.655 256.334 191.135 256.535 190.721C256.736 190.304 257.004 189.993 257.338 189.787C257.674 189.579 258.042 189.474 258.442 189.474C258.748 189.474 259.002 189.527 259.206 189.631C259.412 189.732 259.577 189.86 259.703 190.014C259.831 190.166 259.928 190.315 259.994 190.462H260.04V187.727H261.549V195H260.058V194.126H259.994C259.923 194.278 259.822 194.428 259.692 194.577C259.564 194.724 259.397 194.846 259.191 194.943C258.988 195.04 258.739 195.089 258.446 195.089ZM258.925 193.885C259.169 193.885 259.375 193.819 259.543 193.686C259.713 193.551 259.844 193.363 259.934 193.121C260.026 192.88 260.072 192.597 260.072 192.273C260.072 191.948 260.027 191.667 259.937 191.428C259.847 191.188 259.717 191.004 259.547 190.874C259.376 190.743 259.169 190.678 258.925 190.678C258.676 190.678 258.467 190.746 258.297 190.881C258.126 191.016 257.997 191.203 257.909 191.442C257.822 191.681 257.778 191.958 257.778 192.273C257.778 192.59 257.822 192.871 257.909 193.114C257.999 193.356 258.128 193.545 258.297 193.683C258.467 193.817 258.676 193.885 258.925 193.885ZM265.251 197.159C264.76 197.159 264.34 197.092 263.99 196.957C263.642 196.824 263.365 196.643 263.159 196.413C262.953 196.184 262.819 195.926 262.758 195.639L264.157 195.451C264.199 195.56 264.267 195.662 264.359 195.756C264.452 195.851 264.573 195.927 264.725 195.984C264.879 196.043 265.066 196.072 265.286 196.072C265.615 196.072 265.886 195.992 266.099 195.831C266.315 195.672 266.422 195.406 266.422 195.032V194.034H266.358C266.292 194.186 266.193 194.329 266.06 194.464C265.928 194.599 265.757 194.709 265.549 194.794C265.34 194.879 265.092 194.922 264.803 194.922C264.394 194.922 264.021 194.827 263.684 194.638C263.351 194.446 263.084 194.154 262.885 193.761C262.689 193.365 262.591 192.866 262.591 192.262C262.591 191.644 262.691 191.128 262.893 190.714C263.094 190.299 263.361 189.989 263.695 189.783C264.031 189.577 264.399 189.474 264.8 189.474C265.105 189.474 265.361 189.527 265.567 189.631C265.773 189.732 265.938 189.86 266.064 190.014C266.192 190.166 266.29 190.315 266.358 190.462H266.415V189.545H267.917V195.053C267.917 195.517 267.804 195.906 267.577 196.218C267.349 196.531 267.034 196.765 266.632 196.921C266.232 197.08 265.771 197.159 265.251 197.159ZM265.282 193.786C265.526 193.786 265.732 193.725 265.9 193.604C266.071 193.481 266.201 193.306 266.291 193.079C266.383 192.849 266.43 192.575 266.43 192.255C266.43 191.935 266.385 191.658 266.295 191.424C266.205 191.187 266.074 191.004 265.904 190.874C265.733 190.743 265.526 190.678 265.282 190.678C265.034 190.678 264.824 190.746 264.654 190.881C264.483 191.013 264.354 191.198 264.267 191.435C264.179 191.671 264.135 191.945 264.135 192.255C264.135 192.57 264.179 192.842 264.267 193.072C264.357 193.299 264.486 193.475 264.654 193.601C264.824 193.724 265.034 193.786 265.282 193.786ZM271.607 195.107C271.046 195.107 270.563 194.993 270.158 194.766C269.756 194.536 269.446 194.212 269.228 193.793C269.01 193.371 268.901 192.873 268.901 192.298C268.901 191.737 269.01 191.244 269.228 190.82C269.446 190.397 269.752 190.066 270.148 189.83C270.545 189.593 271.012 189.474 271.547 189.474C271.907 189.474 272.242 189.532 272.552 189.648C272.864 189.762 273.136 189.934 273.368 190.163C273.603 190.393 273.785 190.682 273.915 191.03C274.046 191.375 274.111 191.78 274.111 192.244V192.66H269.505V191.722H272.687C272.687 191.504 272.639 191.312 272.545 191.143C272.45 190.975 272.318 190.844 272.15 190.749C271.985 190.652 271.792 190.604 271.572 190.604C271.342 190.604 271.138 190.657 270.961 190.763C270.786 190.868 270.648 191.009 270.549 191.186C270.449 191.361 270.398 191.557 270.396 191.772V192.663C270.396 192.933 270.446 193.166 270.545 193.363C270.647 193.559 270.79 193.711 270.975 193.817C271.16 193.924 271.379 193.977 271.632 193.977C271.8 193.977 271.954 193.954 272.094 193.906C272.233 193.859 272.353 193.788 272.452 193.693C272.552 193.598 272.627 193.482 272.68 193.345L274.079 193.438C274.008 193.774 273.862 194.067 273.642 194.318C273.424 194.567 273.142 194.761 272.797 194.901C272.453 195.038 272.057 195.107 271.607 195.107ZM277.999 189.545V190.682H274.714V189.545H277.999ZM275.46 188.239H276.973V193.324C276.973 193.464 276.994 193.572 277.037 193.651C277.079 193.726 277.139 193.78 277.214 193.81C277.292 193.841 277.382 193.857 277.484 193.857C277.555 193.857 277.626 193.851 277.697 193.839C277.768 193.825 277.823 193.814 277.861 193.807L278.099 194.933C278.023 194.956 277.916 194.983 277.779 195.014C277.642 195.047 277.475 195.067 277.278 195.075C276.914 195.089 276.594 195.04 276.319 194.929C276.047 194.818 275.835 194.645 275.684 194.411C275.532 194.176 275.458 193.88 275.46 193.523V188.239Z" fill="#606C80"/>
<rect x="215" y="185" width="12" height="12" rx="6" fill="#33BFFF"/>
<defs>
<filter id="filter0_d_3043_69" x="45" y="0" width="170" height="118" filterUnits="userSpaceOnUse" color-interpolation-filters="sRGB">
<feFlood flood-opacity="0" result="BackgroundImageFix"/>
<feColorMatrix in="SourceAlpha" type="matrix" values="0 0 0 0 0 0 0 0 0 0 0 0 0 0 0 0 0 0 127 0" result="hardAlpha"/>
<feOffset dy="15"/>
<feGaussianBlur stdDeviation="22.5"/>
<feColorMatrix type="matrix" values="0 0 0 0 0.133333 0 0 0 0 0.772549 0 0 0 0 0.368627 0 0 0 0.25 0"/>
<feBlend mode="normal" in2="BackgroundImageFix" result="effect1_dropShadow_3043_69"/>
<feBlend mode="normal" in="SourceGraphic" in2="effect1_dropShadow_3043_69" result="shape"/>
</filter>
</defs>
</svg>
