<svg width="495" height="304" viewBox="0 0 495 304" fill="none" xmlns="http://www.w3.org/2000/svg">
<rect width="436" height="1" transform="translate(0 1)" fill="#EBEEF2"/>
<rect width="436" height="1" transform="translate(0 31)" fill="#EBEEF2"/>
<rect width="436" height="1" transform="translate(0 61)" fill="#EBEEF2"/>
<rect width="436" height="1" transform="translate(0 91)" fill="#EBEEF2"/>
<rect width="436" height="1" transform="translate(0 121)" fill="#EBEEF2"/>
<rect width="436" height="1" transform="translate(0 151)" fill="#EBEEF2"/>
<rect width="436" height="1" transform="translate(0 181)" fill="#EBEEF2"/>
<rect width="1" height="182" fill="#EBEEF2"/>
<rect x="0.25" y="229.25" width="0.5" height="71.5" stroke="#EBEEF2" stroke-width="0.5" stroke-dasharray="2 2"/>
<rect x="434.25" y="229.25" width="0.5" height="71.5" stroke="#EBEEF2" stroke-width="0.5" stroke-dasharray="2 2"/>
<rect x="217.25" y="229.25" width="0.5" height="71.5" stroke="#EBEEF2" stroke-width="0.5" stroke-dasharray="2 2"/>
<rect x="109.25" y="229.25" width="0.5" height="71.5" stroke="#EBEEF2" stroke-width="0.5" stroke-dasharray="2 2"/>
<rect x="326.25" y="229.25" width="0.5" height="71.5" stroke="#EBEEF2" stroke-width="0.5" stroke-dasharray="2 2"/>
<rect width="12" height="20" transform="translate(26 43)" fill="#F2F4F7"/>
<rect width="12" height="24" transform="translate(26 63)" fill="#22C55E"/>
<rect width="12" height="12" transform="translate(26 87)" fill="#EC4899"/>
<rect width="12" height="68" transform="translate(26 99)" fill="#33BFFF"/>
<rect width="12" height="16" transform="translate(26 167)" fill="#1D4ED8"/>
<rect width="1" height="182" transform="translate(62 1)" fill="#EBEEF2"/>
<rect width="12" height="45" transform="translate(88 57)" fill="#F2F4F7"/>
<rect width="12" height="14" transform="translate(88 102)" fill="#22C55E"/>
<rect width="12" height="21" transform="translate(88 116)" fill="#EC4899"/>
<rect width="12" height="26" transform="translate(88 137)" fill="#33BFFF"/>
<rect width="12" height="20" transform="translate(88 163)" fill="#1D4ED8"/>
<rect width="1" height="182" transform="translate(124 1)" fill="#EBEEF2"/>
<rect width="12" height="56" transform="translate(150 47)" fill="#F2F4F7"/>
<rect width="12" height="11" transform="translate(150 103)" fill="#22C55E"/>
<rect width="12" height="12" transform="translate(150 114)" fill="#EC4899"/>
<rect width="12" height="14" transform="translate(150 126)" fill="#33BFFF"/>
<rect width="12" height="43" transform="translate(150 140)" fill="#1D4ED8"/>
<rect width="1" height="182" transform="translate(186 1)" fill="#EBEEF2"/>
<rect width="12" height="68" transform="translate(212 47)" fill="#F2F4F7"/>
<rect width="12" height="22" transform="translate(212 115)" fill="#22C55E"/>
<rect width="12" height="12" transform="translate(212 137)" fill="#EC4899"/>
<rect width="12" height="14" transform="translate(212 149)" fill="#33BFFF"/>
<rect width="12" height="20" transform="translate(212 163)" fill="#1D4ED8"/>
<rect width="1" height="182" transform="translate(248 1)" fill="#EBEEF2"/>
<rect width="12" height="38" transform="translate(274 47)" fill="#F2F4F7"/>
<rect width="12" height="22" transform="translate(274 85)" fill="#22C55E"/>
<rect width="12" height="12" transform="translate(274 107)" fill="#EC4899"/>
<rect width="12" height="44" transform="translate(274 119)" fill="#33BFFF"/>
<rect width="12" height="20" transform="translate(274 163)" fill="#1D4ED8"/>
<rect width="1" height="182" transform="translate(310 1)" fill="#EBEEF2"/>
<rect width="12" height="36" transform="translate(336 27)" fill="#F2F4F7"/>
<rect width="12" height="12" transform="translate(336 63)" fill="#22C55E"/>
<rect width="12" height="24" transform="translate(336 75)" fill="#EC4899"/>
<rect width="12" height="11" transform="translate(336 99)" fill="#33BFFF"/>
<rect width="12" height="73" transform="translate(336 110)" fill="#1D4ED8"/>
<rect width="1" height="182" transform="translate(372 1)" fill="#EBEEF2"/>
<rect width="12" height="15" transform="translate(398 47)" fill="#F2F4F7"/>
<rect width="12" height="8" transform="translate(398 62)" fill="#22C55E"/>
<rect width="12" height="11" transform="translate(398 70)" fill="#EC4899"/>
<rect width="12" height="52" transform="translate(398 81)" fill="#33BFFF"/>
<rect width="12" height="50" transform="translate(398 133)" fill="#1D4ED8"/>
<rect width="1" height="182" transform="translate(434 1)" fill="#EBEEF2"/>
<path d="M457.441 183.16C456.83 183.157 456.305 183.007 455.864 182.709C455.426 182.411 455.089 181.978 454.852 181.413C454.618 180.847 454.502 180.166 454.504 179.371C454.504 178.578 454.621 177.902 454.856 177.343C455.093 176.784 455.43 176.359 455.868 176.068C456.308 175.775 456.833 175.628 457.441 175.628C458.049 175.628 458.573 175.775 459.011 176.068C459.451 176.362 459.79 176.788 460.026 177.347C460.263 177.903 460.38 178.578 460.378 179.371C460.378 180.169 460.259 180.85 460.023 181.416C459.788 181.982 459.452 182.414 459.014 182.712C458.576 183.011 458.052 183.16 457.441 183.16ZM457.441 181.885C457.858 181.885 458.19 181.675 458.439 181.256C458.688 180.837 458.811 180.209 458.808 179.371C458.808 178.819 458.751 178.36 458.638 177.993C458.527 177.626 458.368 177.35 458.162 177.165C457.958 176.981 457.718 176.888 457.441 176.888C457.027 176.888 456.695 177.096 456.447 177.51C456.198 177.924 456.073 178.545 456.07 179.371C456.07 179.929 456.126 180.396 456.237 180.77C456.351 181.142 456.511 181.421 456.717 181.608C456.923 181.793 457.164 181.885 457.441 181.885ZM465.316 179.847V183H463.803V175.727H465.273V178.508H465.337C465.46 178.186 465.659 177.934 465.934 177.751C466.208 177.567 466.553 177.474 466.967 177.474C467.346 177.474 467.676 177.557 467.958 177.723C468.242 177.886 468.462 178.122 468.618 178.43C468.777 178.735 468.855 179.101 468.853 179.527V183H467.34V179.797C467.342 179.461 467.257 179.199 467.084 179.012C466.914 178.825 466.675 178.732 466.367 178.732C466.161 178.732 465.979 178.775 465.82 178.863C465.664 178.951 465.541 179.078 465.451 179.246C465.363 179.412 465.318 179.612 465.316 179.847Z" fill="#B8BFCC"/>
<path d="M457.441 291.16C456.83 291.157 456.305 291.007 455.864 290.709C455.426 290.411 455.089 289.978 454.852 289.413C454.618 288.847 454.502 288.166 454.504 287.371C454.504 286.578 454.621 285.902 454.856 285.343C455.093 284.784 455.43 284.359 455.868 284.068C456.308 283.775 456.833 283.628 457.441 283.628C458.049 283.628 458.573 283.775 459.011 284.068C459.451 284.362 459.79 284.788 460.026 285.347C460.263 285.903 460.38 286.578 460.378 287.371C460.378 288.169 460.259 288.85 460.023 289.416C459.788 289.982 459.452 290.414 459.014 290.712C458.576 291.011 458.052 291.16 457.441 291.16ZM457.441 289.885C457.858 289.885 458.19 289.675 458.439 289.256C458.688 288.837 458.811 288.209 458.808 287.371C458.808 286.819 458.751 286.36 458.638 285.993C458.527 285.626 458.368 285.35 458.162 285.165C457.958 284.981 457.718 284.888 457.441 284.888C457.027 284.888 456.695 285.096 456.447 285.51C456.198 285.924 456.073 286.545 456.07 287.371C456.07 287.929 456.126 288.396 456.237 288.77C456.351 289.142 456.511 289.421 456.717 289.608C456.923 289.793 457.164 289.885 457.441 289.885ZM465.316 287.847V291H463.803V283.727H465.273V286.508H465.337C465.46 286.186 465.659 285.934 465.934 285.751C466.208 285.567 466.553 285.474 466.967 285.474C467.346 285.474 467.676 285.557 467.958 285.723C468.242 285.886 468.462 286.122 468.618 286.43C468.777 286.735 468.855 287.101 468.853 287.527V291H467.34V287.797C467.342 287.461 467.257 287.199 467.084 287.012C466.914 286.825 466.675 286.732 466.367 286.732C466.161 286.732 465.979 286.775 465.82 286.863C465.664 286.951 465.541 287.078 465.451 287.246C465.363 287.412 465.318 287.612 465.316 287.847Z" fill="#B8BFCC"/>
<path d="M457.278 262.099C456.747 262.099 456.275 262.008 455.861 261.826C455.449 261.641 455.123 261.388 454.884 261.066C454.647 260.742 454.526 260.368 454.518 259.944H456.067C456.076 260.121 456.134 260.278 456.241 260.413C456.35 260.545 456.494 260.648 456.674 260.722C456.854 260.795 457.056 260.832 457.281 260.832C457.516 260.832 457.723 260.79 457.903 260.707C458.083 260.625 458.223 260.51 458.325 260.363C458.427 260.216 458.478 260.047 458.478 259.855C458.478 259.661 458.424 259.489 458.315 259.34C458.208 259.189 458.054 259.07 457.853 258.985C457.654 258.9 457.417 258.857 457.143 258.857H456.464V257.728H457.143C457.375 257.728 457.58 257.688 457.757 257.607C457.937 257.527 458.077 257.415 458.176 257.273C458.276 257.129 458.325 256.961 458.325 256.769C458.325 256.587 458.281 256.427 458.194 256.29C458.109 256.15 457.988 256.041 457.832 255.963C457.678 255.885 457.498 255.846 457.292 255.846C457.084 255.846 456.893 255.884 456.72 255.96C456.547 256.033 456.409 256.138 456.305 256.276C456.201 256.413 456.145 256.574 456.138 256.759H454.664C454.671 256.339 454.791 255.97 455.023 255.651C455.255 255.331 455.567 255.081 455.96 254.901C456.356 254.719 456.802 254.628 457.299 254.628C457.801 254.628 458.24 254.719 458.616 254.901C458.993 255.084 459.285 255.33 459.494 255.64C459.704 255.948 459.808 256.293 459.806 256.677C459.808 257.084 459.682 257.424 459.426 257.696C459.173 257.968 458.843 258.141 458.435 258.214V258.271C458.97 258.34 459.378 258.526 459.657 258.829C459.939 259.129 460.078 259.506 460.076 259.958C460.078 260.372 459.959 260.741 459.717 261.062C459.478 261.384 459.148 261.638 458.727 261.822C458.305 262.007 457.822 262.099 457.278 262.099ZM464.033 262.16C463.422 262.157 462.896 262.007 462.456 261.709C462.018 261.411 461.681 260.978 461.444 260.413C461.21 259.847 461.094 259.166 461.096 258.371C461.096 257.578 461.213 256.902 461.448 256.343C461.684 255.784 462.022 255.359 462.46 255.068C462.9 254.775 463.424 254.628 464.033 254.628C464.641 254.628 465.164 254.775 465.602 255.068C466.043 255.362 466.381 255.788 466.618 256.347C466.855 256.903 466.972 257.578 466.97 258.371C466.97 259.169 466.851 259.85 466.615 260.416C466.38 260.982 466.044 261.414 465.606 261.712C465.168 262.011 464.644 262.16 464.033 262.16ZM464.033 260.885C464.45 260.885 464.782 260.675 465.031 260.256C465.279 259.837 465.402 259.209 465.4 258.371C465.4 257.819 465.343 257.36 465.23 256.993C465.118 256.626 464.96 256.35 464.754 256.165C464.55 255.981 464.31 255.888 464.033 255.888C463.619 255.888 463.287 256.096 463.039 256.51C462.79 256.924 462.664 257.545 462.662 258.371C462.662 258.929 462.718 259.396 462.829 259.77C462.943 260.142 463.102 260.421 463.308 260.608C463.514 260.793 463.756 260.885 464.033 260.885ZM470.395 262V256.545H471.836V257.508H471.9C472.014 257.188 472.203 256.936 472.469 256.751C472.734 256.567 473.051 256.474 473.42 256.474C473.794 256.474 474.113 256.568 474.376 256.755C474.638 256.94 474.814 257.191 474.901 257.508H474.958C475.069 257.195 475.27 256.946 475.562 256.759C475.855 256.569 476.202 256.474 476.602 256.474C477.111 256.474 477.524 256.637 477.841 256.961C478.161 257.283 478.321 257.74 478.321 258.332V262H476.812V258.63C476.812 258.327 476.731 258.1 476.57 257.948C476.409 257.797 476.208 257.721 475.966 257.721C475.692 257.721 475.478 257.808 475.324 257.984C475.17 258.156 475.093 258.385 475.093 258.669V262H473.626V258.598C473.626 258.33 473.549 258.117 473.395 257.959C473.244 257.8 473.044 257.721 472.795 257.721C472.627 257.721 472.476 257.763 472.341 257.849C472.208 257.932 472.103 258.049 472.025 258.2C471.947 258.349 471.907 258.525 471.907 258.726V262H470.395Z" fill="#B8BFCC"/>
<path d="M457.381 234.099C457.007 234.097 456.646 234.034 456.298 233.911C455.952 233.788 455.642 233.588 455.367 233.311C455.093 233.034 454.875 232.667 454.714 232.21C454.555 231.753 454.476 231.192 454.476 230.527C454.478 229.916 454.548 229.371 454.685 228.89C454.825 228.407 455.024 227.997 455.282 227.661C455.542 227.325 455.854 227.069 456.216 226.894C456.578 226.717 456.984 226.628 457.434 226.628C457.919 226.628 458.348 226.723 458.719 226.912C459.091 227.099 459.389 227.353 459.614 227.675C459.842 227.997 459.979 228.358 460.026 228.759H458.51C458.451 228.505 458.326 228.306 458.137 228.162C457.948 228.018 457.713 227.945 457.434 227.945C456.96 227.945 456.601 228.151 456.354 228.563C456.111 228.975 455.986 229.535 455.982 230.243H456.031C456.14 230.027 456.287 229.844 456.472 229.692C456.659 229.539 456.871 229.421 457.107 229.341C457.346 229.258 457.598 229.217 457.864 229.217C458.295 229.217 458.678 229.318 459.014 229.522C459.35 229.723 459.616 230 459.81 230.353C460.004 230.706 460.101 231.109 460.101 231.564C460.101 232.056 459.986 232.494 459.756 232.878C459.529 233.261 459.211 233.562 458.801 233.78C458.394 233.995 457.92 234.102 457.381 234.099ZM457.374 232.892C457.61 232.892 457.822 232.835 458.009 232.722C458.196 232.608 458.343 232.454 458.45 232.26C458.556 232.066 458.609 231.848 458.609 231.607C458.609 231.365 458.556 231.148 458.45 230.957C458.345 230.765 458.201 230.612 458.016 230.499C457.832 230.385 457.621 230.328 457.384 230.328C457.207 230.328 457.042 230.361 456.891 230.428C456.741 230.494 456.61 230.586 456.496 230.705C456.385 230.823 456.298 230.96 456.234 231.116C456.17 231.27 456.138 231.435 456.138 231.61C456.138 231.844 456.191 232.059 456.298 232.253C456.406 232.447 456.553 232.602 456.738 232.718C456.925 232.834 457.137 232.892 457.374 232.892ZM464.043 234.16C463.432 234.157 462.906 234.007 462.466 233.709C462.028 233.411 461.691 232.978 461.454 232.413C461.219 231.847 461.103 231.166 461.106 230.371C461.106 229.578 461.223 228.902 461.457 228.343C461.694 227.784 462.031 227.359 462.469 227.068C462.91 226.775 463.434 226.628 464.043 226.628C464.651 226.628 465.174 226.775 465.612 227.068C466.053 227.362 466.391 227.788 466.628 228.347C466.865 228.903 466.982 229.578 466.979 230.371C466.979 231.169 466.861 231.85 466.624 232.416C466.39 232.982 466.054 233.414 465.616 233.712C465.178 234.011 464.653 234.16 464.043 234.16ZM464.043 232.885C464.459 232.885 464.792 232.675 465.04 232.256C465.289 231.837 465.412 231.209 465.41 230.371C465.41 229.819 465.353 229.36 465.239 228.993C465.128 228.626 464.969 228.35 464.763 228.165C464.56 227.981 464.32 227.888 464.043 227.888C463.628 227.888 463.297 228.096 463.048 228.51C462.8 228.924 462.674 229.545 462.672 230.371C462.672 230.929 462.728 231.396 462.839 231.77C462.952 232.142 463.112 232.421 463.318 232.608C463.524 232.793 463.766 232.885 464.043 232.885ZM470.404 234V228.545H471.846V229.508H471.91C472.024 229.188 472.213 228.936 472.478 228.751C472.743 228.567 473.061 228.474 473.43 228.474C473.804 228.474 474.123 228.568 474.385 228.755C474.648 228.94 474.823 229.191 474.911 229.508H474.968C475.079 229.195 475.28 228.946 475.571 228.759C475.865 228.569 476.212 228.474 476.612 228.474C477.121 228.474 477.534 228.637 477.851 228.961C478.171 229.283 478.331 229.74 478.331 230.332V234H476.821V230.63C476.821 230.327 476.741 230.1 476.58 229.948C476.419 229.797 476.218 229.721 475.976 229.721C475.702 229.721 475.487 229.808 475.333 229.984C475.18 230.156 475.103 230.385 475.103 230.669V234H473.636V230.598C473.636 230.33 473.559 230.117 473.405 229.959C473.254 229.8 473.054 229.721 472.805 229.721C472.637 229.721 472.485 229.763 472.35 229.849C472.218 229.932 472.113 230.049 472.034 230.2C471.956 230.349 471.917 230.525 471.917 230.726V234H470.404Z" fill="#B8BFCC"/>
<path d="M10.7528 301.128C10.2642 301.126 9.84375 301.006 9.49148 300.767C9.1411 300.528 8.87121 300.183 8.68182 299.73C8.49432 299.277 8.40152 298.733 8.40341 298.097C8.40341 297.462 8.49716 296.921 8.68466 296.474C8.87405 296.027 9.14394 295.687 9.49432 295.455C9.84659 295.22 10.2661 295.102 10.7528 295.102C11.2396 295.102 11.6581 295.22 12.0085 295.455C12.3608 295.689 12.6316 296.03 12.821 296.477C13.0104 296.922 13.1042 297.462 13.1023 298.097C13.1023 298.735 13.0076 299.28 12.8182 299.733C12.6307 300.186 12.3617 300.531 12.0114 300.77C11.661 301.009 11.2415 301.128 10.7528 301.128ZM10.7528 300.108C11.0862 300.108 11.3523 299.94 11.5511 299.605C11.75 299.27 11.8485 298.767 11.8466 298.097C11.8466 297.655 11.8011 297.288 11.7102 296.994C11.6212 296.701 11.4943 296.48 11.3295 296.332C11.1667 296.185 10.9744 296.111 10.7528 296.111C10.4214 296.111 10.1563 296.277 9.95739 296.608C9.75852 296.939 9.65814 297.436 9.65625 298.097C9.65625 298.544 9.70076 298.917 9.78977 299.216C9.88068 299.513 10.0085 299.737 10.1733 299.886C10.3381 300.034 10.5312 300.108 10.7528 300.108ZM16.2607 301.128C15.772 301.126 15.3516 301.006 14.9993 300.767C14.6489 300.528 14.379 300.183 14.1896 299.73C14.0021 299.277 13.9093 298.733 13.9112 298.097C13.9112 297.462 14.005 296.921 14.1925 296.474C14.3819 296.027 14.6518 295.687 15.0021 295.455C15.3544 295.22 15.7739 295.102 16.2607 295.102C16.7474 295.102 17.166 295.22 17.5163 295.455C17.8686 295.689 18.1394 296.03 18.3288 296.477C18.5182 296.922 18.612 297.462 18.6101 298.097C18.6101 298.735 18.5154 299.28 18.326 299.733C18.1385 300.186 17.8696 300.531 17.5192 300.77C17.1688 301.009 16.7493 301.128 16.2607 301.128ZM16.2607 300.108C16.594 300.108 16.8601 299.94 17.0589 299.605C17.2578 299.27 17.3563 298.767 17.3544 298.097C17.3544 297.655 17.3089 297.288 17.218 296.994C17.129 296.701 17.0021 296.48 16.8374 296.332C16.6745 296.185 16.4822 296.111 16.2607 296.111C15.9292 296.111 15.6641 296.277 15.4652 296.608C15.2663 296.939 15.166 297.436 15.1641 298.097C15.1641 298.544 15.2086 298.917 15.2976 299.216C15.3885 299.513 15.5163 299.737 15.6811 299.886C15.8459 300.034 16.0391 300.108 16.2607 300.108Z" fill="#B8BFCC"/>
<path d="M118.753 301.128C118.264 301.126 117.844 301.006 117.491 300.767C117.141 300.528 116.871 300.183 116.682 299.73C116.494 299.277 116.402 298.733 116.403 298.097C116.403 297.462 116.497 296.921 116.685 296.474C116.874 296.027 117.144 295.687 117.494 295.455C117.847 295.22 118.266 295.102 118.753 295.102C119.24 295.102 119.658 295.22 120.009 295.455C120.361 295.689 120.632 296.03 120.821 296.477C121.01 296.922 121.104 297.462 121.102 298.097C121.102 298.735 121.008 299.28 120.818 299.733C120.631 300.186 120.362 300.531 120.011 300.77C119.661 301.009 119.241 301.128 118.753 301.128ZM118.753 300.108C119.086 300.108 119.352 299.94 119.551 299.605C119.75 299.27 119.848 298.767 119.847 298.097C119.847 297.655 119.801 297.288 119.71 296.994C119.621 296.701 119.494 296.48 119.33 296.332C119.167 296.185 118.974 296.111 118.753 296.111C118.421 296.111 118.156 296.277 117.957 296.608C117.759 296.939 117.658 297.436 117.656 298.097C117.656 298.544 117.701 298.917 117.79 299.216C117.881 299.513 118.009 299.737 118.173 299.886C118.338 300.034 118.531 300.108 118.753 300.108ZM124.212 301.08C123.913 301.078 123.624 301.027 123.346 300.929C123.069 300.83 122.821 300.67 122.602 300.449C122.382 300.227 122.208 299.934 122.079 299.568C121.952 299.203 121.888 298.754 121.888 298.222C121.89 297.733 121.946 297.296 122.056 296.912C122.168 296.526 122.327 296.198 122.533 295.929C122.742 295.66 122.991 295.455 123.281 295.315C123.57 295.173 123.895 295.102 124.255 295.102C124.643 295.102 124.986 295.178 125.283 295.33C125.581 295.479 125.819 295.683 125.999 295.94C126.181 296.198 126.291 296.487 126.329 296.807H125.116C125.068 296.604 124.969 296.445 124.817 296.33C124.666 296.214 124.478 296.156 124.255 296.156C123.876 296.156 123.588 296.321 123.391 296.651C123.196 296.98 123.097 297.428 123.093 297.994H123.133C123.22 297.822 123.337 297.675 123.485 297.554C123.635 297.431 123.804 297.337 123.994 297.273C124.185 297.206 124.387 297.173 124.599 297.173C124.943 297.173 125.25 297.255 125.519 297.418C125.788 297.579 126 297.8 126.156 298.082C126.311 298.365 126.388 298.687 126.388 299.051C126.388 299.445 126.297 299.795 126.113 300.102C125.931 300.409 125.676 300.65 125.349 300.824C125.023 300.996 124.644 301.081 124.212 301.08ZM124.207 300.114C124.396 300.114 124.566 300.068 124.715 299.977C124.865 299.886 124.982 299.763 125.067 299.608C125.153 299.453 125.195 299.278 125.195 299.085C125.195 298.892 125.153 298.719 125.067 298.565C124.984 298.412 124.869 298.29 124.721 298.199C124.573 298.108 124.405 298.062 124.215 298.062C124.073 298.062 123.942 298.089 123.82 298.142C123.701 298.195 123.596 298.269 123.505 298.364C123.416 298.458 123.346 298.568 123.295 298.693C123.244 298.816 123.218 298.948 123.218 299.088C123.218 299.276 123.261 299.447 123.346 299.602C123.433 299.758 123.55 299.882 123.698 299.974C123.848 300.067 124.017 300.114 124.207 300.114Z" fill="#B8BFCC"/>
<path d="M228.003 295.182V301H226.773V296.349H226.739L225.406 297.185V296.094L226.847 295.182H228.003ZM229.386 301V300.114L231.457 298.196C231.633 298.026 231.781 297.872 231.9 297.736C232.021 297.599 232.113 297.466 232.175 297.335C232.238 297.203 232.269 297.06 232.269 296.906C232.269 296.736 232.23 296.589 232.153 296.466C232.075 296.341 231.969 296.245 231.835 296.179C231.7 296.111 231.548 296.077 231.377 296.077C231.199 296.077 231.044 296.113 230.911 296.185C230.779 296.257 230.676 296.36 230.604 296.494C230.532 296.629 230.496 296.789 230.496 296.974H229.329C229.329 296.594 229.415 296.263 229.587 295.983C229.76 295.703 230.001 295.486 230.312 295.332C230.622 295.179 230.98 295.102 231.386 295.102C231.802 295.102 232.165 295.176 232.474 295.324C232.784 295.47 233.026 295.672 233.198 295.932C233.371 296.191 233.457 296.489 233.457 296.824C233.457 297.044 233.413 297.26 233.326 297.474C233.241 297.688 233.088 297.926 232.869 298.188C232.649 298.447 232.339 298.759 231.94 299.122L231.09 299.955V299.994H233.533V301H229.386Z" fill="#B8BFCC"/>
<path d="M336.003 295.182V301H334.773V296.349H334.739L333.406 297.185V296.094L334.847 295.182H336.003ZM339.556 301.08C339.119 301.08 338.729 301.009 338.388 300.866C338.049 300.723 337.783 300.527 337.59 300.278C337.397 300.03 337.3 299.749 337.3 299.435C337.3 299.192 337.355 298.97 337.465 298.767C337.577 298.562 337.728 298.393 337.92 298.259C338.111 298.122 338.325 298.035 338.562 297.997V297.957C338.251 297.895 337.999 297.744 337.806 297.506C337.613 297.265 337.516 296.986 337.516 296.668C337.516 296.366 337.604 296.098 337.781 295.864C337.957 295.627 338.198 295.441 338.505 295.307C338.814 295.17 339.164 295.102 339.556 295.102C339.948 295.102 340.298 295.17 340.604 295.307C340.913 295.443 341.156 295.63 341.332 295.866C341.508 296.101 341.597 296.368 341.599 296.668C341.597 296.988 341.498 297.267 341.303 297.506C341.108 297.744 340.858 297.895 340.553 297.957V297.997C340.786 298.035 340.997 298.122 341.187 298.259C341.378 298.393 341.53 298.562 341.641 298.767C341.755 298.97 341.813 299.192 341.815 299.435C341.813 299.749 341.715 300.03 341.522 300.278C341.329 300.527 341.062 300.723 340.721 300.866C340.382 301.009 339.994 301.08 339.556 301.08ZM339.556 300.176C339.751 300.176 339.922 300.141 340.067 300.071C340.213 299.999 340.327 299.901 340.408 299.776C340.492 299.649 340.533 299.503 340.533 299.338C340.533 299.17 340.491 299.021 340.406 298.892C340.32 298.761 340.205 298.659 340.059 298.585C339.913 298.509 339.746 298.472 339.556 298.472C339.369 298.472 339.201 298.509 339.053 298.585C338.906 298.659 338.789 298.761 338.704 298.892C338.621 299.021 338.579 299.17 338.579 299.338C338.579 299.503 338.62 299.649 338.701 299.776C338.782 299.901 338.897 299.999 339.045 300.071C339.192 300.141 339.363 300.176 339.556 300.176ZM339.556 297.577C339.719 297.577 339.864 297.544 339.991 297.477C340.118 297.411 340.217 297.319 340.289 297.202C340.361 297.084 340.397 296.949 340.397 296.795C340.397 296.644 340.361 296.511 340.289 296.398C340.217 296.282 340.119 296.192 339.994 296.128C339.869 296.062 339.723 296.028 339.556 296.028C339.391 296.028 339.246 296.062 339.119 296.128C338.992 296.192 338.892 296.282 338.82 296.398C338.75 296.511 338.715 296.644 338.715 296.795C338.715 296.949 338.751 297.084 338.823 297.202C338.895 297.319 338.995 297.411 339.121 297.477C339.248 297.544 339.393 297.577 339.556 297.577Z" fill="#B8BFCC"/>
<path d="M27.6321 198.727H29.5284L31.5312 203.614H31.6165L33.6193 198.727H35.5156V206H34.0241V201.266H33.9638L32.0817 205.964H31.0661L29.1839 201.249H29.1236V206H27.6321V198.727Z" fill="#B8BFCC"/>
<path d="M91.3551 199.995V198.727H97.3281V199.995H95.1016V206H93.5817V199.995H91.3551Z" fill="#B8BFCC"/>
<path d="M153.269 206L151.188 198.727H152.868L154.072 203.781H154.132L155.46 198.727H156.898L158.223 203.791H158.287L159.491 198.727H161.17L159.089 206H157.591L156.206 201.245H156.149L154.768 206H153.269Z" fill="#B8BFCC"/>
<path d="M215.355 199.995V198.727H221.328V199.995H219.102V206H217.582V199.995H215.355Z" fill="#B8BFCC"/>
<path d="M277.632 206V198.727H282.447V199.995H279.17V201.728H282.128V202.996H279.17V206H277.632Z" fill="#B8BFCC"/>
<path d="M343.577 200.819C343.549 200.532 343.427 200.31 343.212 200.151C342.996 199.993 342.704 199.913 342.335 199.913C342.084 199.913 341.872 199.949 341.699 200.02C341.526 200.089 341.393 200.184 341.301 200.308C341.211 200.431 341.166 200.57 341.166 200.727C341.161 200.857 341.189 200.97 341.248 201.067C341.309 201.165 341.393 201.249 341.5 201.32C341.607 201.388 341.73 201.449 341.869 201.501C342.009 201.55 342.158 201.593 342.317 201.629L342.97 201.785C343.287 201.856 343.579 201.951 343.844 202.069C344.109 202.187 344.339 202.333 344.533 202.506C344.727 202.679 344.877 202.882 344.984 203.116C345.093 203.351 345.148 203.62 345.151 203.923C345.148 204.368 345.035 204.754 344.81 205.08C344.587 205.405 344.265 205.657 343.844 205.837C343.425 206.014 342.919 206.103 342.327 206.103C341.74 206.103 341.229 206.013 340.793 205.833C340.36 205.653 340.022 205.387 339.778 205.034C339.536 204.679 339.41 204.24 339.398 203.717H340.886C340.902 203.96 340.972 204.164 341.095 204.327C341.221 204.488 341.388 204.61 341.596 204.693C341.807 204.774 342.045 204.814 342.31 204.814C342.57 204.814 342.796 204.776 342.988 204.7C343.182 204.625 343.332 204.519 343.439 204.384C343.545 204.249 343.599 204.094 343.599 203.919C343.599 203.756 343.55 203.618 343.453 203.507C343.358 203.396 343.219 203.301 343.034 203.223C342.852 203.145 342.628 203.074 342.363 203.01L341.571 202.811C340.958 202.662 340.474 202.429 340.119 202.112C339.763 201.794 339.587 201.367 339.589 200.83C339.587 200.389 339.704 200.004 339.941 199.675C340.18 199.346 340.508 199.089 340.925 198.905C341.341 198.72 341.815 198.628 342.345 198.628C342.885 198.628 343.356 198.72 343.759 198.905C344.163 199.089 344.478 199.346 344.703 199.675C344.928 200.004 345.044 200.386 345.051 200.819H343.577Z" fill="#B8BFCC"/>
<path d="M405.577 200.819C405.549 200.532 405.427 200.31 405.212 200.151C404.996 199.993 404.704 199.913 404.335 199.913C404.084 199.913 403.872 199.949 403.699 200.02C403.526 200.089 403.393 200.184 403.301 200.308C403.211 200.431 403.166 200.57 403.166 200.727C403.161 200.857 403.189 200.97 403.248 201.067C403.309 201.165 403.393 201.249 403.5 201.32C403.607 201.388 403.73 201.449 403.869 201.501C404.009 201.55 404.158 201.593 404.317 201.629L404.97 201.785C405.287 201.856 405.579 201.951 405.844 202.069C406.109 202.187 406.339 202.333 406.533 202.506C406.727 202.679 406.877 202.882 406.984 203.116C407.093 203.351 407.148 203.62 407.151 203.923C407.148 204.368 407.035 204.754 406.81 205.08C406.587 205.405 406.265 205.657 405.844 205.837C405.425 206.014 404.919 206.103 404.327 206.103C403.74 206.103 403.229 206.013 402.793 205.833C402.36 205.653 402.022 205.387 401.778 205.034C401.536 204.679 401.41 204.24 401.398 203.717H402.886C402.902 203.96 402.972 204.164 403.095 204.327C403.221 204.488 403.388 204.61 403.596 204.693C403.807 204.774 404.045 204.814 404.31 204.814C404.57 204.814 404.796 204.776 404.988 204.7C405.182 204.625 405.332 204.519 405.439 204.384C405.545 204.249 405.599 204.094 405.599 203.919C405.599 203.756 405.55 203.618 405.453 203.507C405.358 203.396 405.219 203.301 405.034 203.223C404.852 203.145 404.628 203.074 404.363 203.01L403.571 202.811C402.958 202.662 402.474 202.429 402.119 202.112C401.763 201.794 401.587 201.367 401.589 200.83C401.587 200.389 401.704 200.004 401.941 199.675C402.18 199.346 402.508 199.089 402.925 198.905C403.341 198.72 403.815 198.628 404.345 198.628C404.885 198.628 405.356 198.72 405.759 198.905C406.163 199.089 406.478 199.346 406.703 199.675C406.928 200.004 407.044 200.386 407.051 200.819H405.577Z" fill="#B8BFCC"/>
<path d="M455.886 85H454.238L456.749 77.7273H458.73L461.237 85H459.589L457.768 79.3892H457.711L455.886 85ZM455.783 82.1413H459.675V83.3416H455.783V82.1413ZM466.486 79.5455L464.579 85H462.874L460.967 79.5455H462.565L463.698 83.4482H463.755L464.884 79.5455H466.486ZM469.57 85.1065C469.009 85.1065 468.526 84.9929 468.121 84.7656C467.719 84.536 467.408 84.2116 467.191 83.7926C466.973 83.3712 466.864 82.8729 466.864 82.2976C466.864 81.7365 466.973 81.2441 467.191 80.8203C467.408 80.3965 467.715 80.0663 468.11 79.8295C468.508 79.5928 468.975 79.4744 469.51 79.4744C469.869 79.4744 470.204 79.5324 470.515 79.6484C470.827 79.7621 471.099 79.9337 471.331 80.1634C471.566 80.393 471.748 80.6818 471.878 81.0298C472.008 81.3755 472.074 81.7803 472.074 82.2443V82.6598H467.468V81.7223H470.65C470.65 81.5045 470.602 81.3116 470.507 81.1435C470.413 80.9754 470.281 80.844 470.113 80.7493C469.948 80.6522 469.755 80.6037 469.534 80.6037C469.305 80.6037 469.101 80.657 468.924 80.7635C468.748 80.8677 468.611 81.0085 468.512 81.1861C468.412 81.3613 468.361 81.5566 468.359 81.772V82.6634C468.359 82.9332 468.409 83.1664 468.508 83.3629C468.61 83.5594 468.753 83.7109 468.938 83.8175C469.123 83.924 469.342 83.9773 469.595 83.9773C469.763 83.9773 469.917 83.9536 470.056 83.9062C470.196 83.8589 470.316 83.7879 470.415 83.6932C470.515 83.5985 470.59 83.4825 470.642 83.3452L472.042 83.4375C471.971 83.7737 471.825 84.0672 471.605 84.3182C471.387 84.5668 471.105 84.7609 470.76 84.9006C470.416 85.0379 470.02 85.1065 469.57 85.1065ZM473.061 85V79.5455H474.527V80.4972H474.584C474.684 80.1586 474.85 79.9029 475.085 79.7301C475.319 79.5549 475.589 79.4673 475.895 79.4673C475.97 79.4673 476.052 79.4721 476.14 79.4815C476.227 79.491 476.304 79.504 476.37 79.5206V80.8629C476.299 80.8416 476.201 80.8227 476.076 80.8061C475.95 80.7895 475.835 80.7812 475.731 80.7812C475.509 80.7812 475.31 80.8298 475.135 80.9268C474.962 81.0215 474.824 81.1541 474.723 81.3246C474.623 81.495 474.574 81.6915 474.574 81.9141V85H473.061ZM478.552 85.103C478.204 85.103 477.894 85.0426 477.621 84.9219C477.349 84.7988 477.134 84.6177 476.975 84.3786C476.819 84.1371 476.741 83.8364 476.741 83.4766C476.741 83.1735 476.796 82.919 476.907 82.7131C477.019 82.5071 477.17 82.3414 477.362 82.2159C477.554 82.0904 477.772 81.9957 478.015 81.9318C478.262 81.8679 478.52 81.8229 478.79 81.7969C479.107 81.7637 479.363 81.733 479.557 81.7045C479.751 81.6738 479.892 81.6288 479.979 81.5696C480.067 81.5104 480.111 81.4228 480.111 81.3068V81.2855C480.111 81.0606 480.04 80.8866 479.898 80.7635C479.758 80.6404 479.559 80.5788 479.301 80.5788C479.029 80.5788 478.812 80.6392 478.651 80.7599C478.49 80.8783 478.384 81.0275 478.331 81.2074L476.932 81.0938C477.003 80.7623 477.143 80.4759 477.351 80.2344C477.56 79.9905 477.828 79.8035 478.157 79.6733C478.489 79.5407 478.872 79.4744 479.308 79.4744C479.611 79.4744 479.901 79.5099 480.178 79.581C480.457 79.652 480.705 79.7621 480.92 79.9112C481.138 80.0604 481.31 80.2521 481.435 80.4865C481.561 80.7185 481.623 80.9967 481.623 81.321V85H480.189V84.2436H480.146C480.059 84.4141 479.941 84.5644 479.795 84.6946C479.648 84.8224 479.471 84.9231 479.265 84.9964C479.059 85.0675 478.822 85.103 478.552 85.103ZM478.985 84.0589C479.207 84.0589 479.404 84.0152 479.574 83.9276C479.745 83.8376 479.879 83.7169 479.976 83.5653C480.073 83.4138 480.121 83.2422 480.121 83.0504V82.4716C480.074 82.5024 480.009 82.5308 479.926 82.5568C479.845 82.5805 479.754 82.603 479.653 82.6243C479.551 82.6432 479.449 82.661 479.347 82.6776C479.245 82.6918 479.153 82.7048 479.07 82.7166C478.893 82.7427 478.738 82.7841 478.605 82.8409C478.472 82.8977 478.369 82.9747 478.296 83.0717C478.223 83.1664 478.186 83.2848 478.186 83.4268C478.186 83.6328 478.26 83.7902 478.41 83.8991C478.561 84.0057 478.753 84.0589 478.985 84.0589ZM485.254 87.1591C484.764 87.1591 484.344 87.0916 483.994 86.9567C483.646 86.8241 483.369 86.643 483.163 86.4134C482.957 86.1837 482.823 85.9257 482.762 85.6392L484.161 85.451C484.203 85.5599 484.271 85.6617 484.363 85.7564C484.455 85.8511 484.577 85.9268 484.729 85.9837C484.883 86.0429 485.07 86.0724 485.29 86.0724C485.619 86.0724 485.89 85.992 486.103 85.831C486.319 85.6723 486.426 85.406 486.426 85.032V84.0341H486.362C486.296 84.1856 486.197 84.3288 486.064 84.4638C485.932 84.5987 485.761 84.7088 485.553 84.794C485.344 84.8793 485.096 84.9219 484.807 84.9219C484.397 84.9219 484.025 84.8272 483.688 84.6378C483.355 84.446 483.088 84.1536 482.889 83.7607C482.693 83.3653 482.595 82.8658 482.595 82.2621C482.595 81.6442 482.695 81.1281 482.896 80.7138C483.098 80.2995 483.365 79.9893 483.699 79.7834C484.035 79.5774 484.403 79.4744 484.803 79.4744C485.109 79.4744 485.365 79.5265 485.57 79.6307C485.776 79.7325 485.942 79.8603 486.068 80.0142C486.195 80.1657 486.294 80.3149 486.362 80.4616H486.419V79.5455H487.921V85.0533C487.921 85.5173 487.808 85.9055 487.58 86.218C487.353 86.5305 487.038 86.7649 486.636 86.9212C486.236 87.0798 485.775 87.1591 485.254 87.1591ZM485.286 83.7855C485.53 83.7855 485.736 83.7251 485.904 83.6044C486.075 83.4813 486.205 83.3061 486.295 83.0788C486.387 82.8492 486.433 82.5746 486.433 82.255C486.433 81.9354 486.388 81.6584 486.298 81.424C486.209 81.1873 486.078 81.0038 485.908 80.8736C485.737 80.7434 485.53 80.6783 485.286 80.6783C485.038 80.6783 484.828 80.7457 484.658 80.8807C484.487 81.0133 484.358 81.1979 484.271 81.4347C484.183 81.6714 484.139 81.9448 484.139 82.255C484.139 82.5698 484.183 82.8421 484.271 83.0717C484.361 83.299 484.49 83.4754 484.658 83.6009C484.828 83.724 485.038 83.7855 485.286 83.7855ZM491.611 85.1065C491.05 85.1065 490.567 84.9929 490.162 84.7656C489.76 84.536 489.45 84.2116 489.232 83.7926C489.014 83.3712 488.905 82.8729 488.905 82.2976C488.905 81.7365 489.014 81.2441 489.232 80.8203C489.45 80.3965 489.756 80.0663 490.151 79.8295C490.549 79.5928 491.016 79.4744 491.551 79.4744C491.91 79.4744 492.245 79.5324 492.556 79.6484C492.868 79.7621 493.14 79.9337 493.372 80.1634C493.607 80.393 493.789 80.6818 493.919 81.0298C494.049 81.3755 494.115 81.7803 494.115 82.2443V82.6598H489.509V81.7223H492.691C492.691 81.5045 492.643 81.3116 492.548 81.1435C492.454 80.9754 492.322 80.844 492.154 80.7493C491.989 80.6522 491.796 80.6037 491.575 80.6037C491.346 80.6037 491.142 80.657 490.965 80.7635C490.789 80.8677 490.652 81.0085 490.553 81.1861C490.453 81.3613 490.402 81.5566 490.4 81.772V82.6634C490.4 82.9332 490.45 83.1664 490.549 83.3629C490.651 83.5594 490.794 83.7109 490.979 83.8175C491.164 83.924 491.383 83.9773 491.636 83.9773C491.804 83.9773 491.958 83.9536 492.097 83.9062C492.237 83.8589 492.357 83.7879 492.456 83.6932C492.556 83.5985 492.631 83.4825 492.683 83.3452L494.083 83.4375C494.012 83.7737 493.866 84.0672 493.646 84.3182C493.428 84.5668 493.146 84.7609 492.801 84.9006C492.457 85.0379 492.061 85.1065 491.611 85.1065Z" fill="#22C55E"/>
<path d="M457.754 5.72727V13H456.216V7.18679H456.173L454.508 8.23082V6.86719L456.308 5.72727H457.754ZM462.334 13.1598C461.723 13.1574 461.197 13.0071 460.757 12.7088C460.319 12.4105 459.982 11.9785 459.745 11.4126C459.51 10.8468 459.394 10.1662 459.397 9.37074C459.397 8.57765 459.514 7.90175 459.748 7.34304C459.985 6.78433 460.323 6.35937 460.76 6.06818C461.201 5.77462 461.725 5.62784 462.334 5.62784C462.942 5.62784 463.465 5.77462 463.903 6.06818C464.344 6.36174 464.682 6.78788 464.919 7.34659C465.156 7.90294 465.273 8.57765 465.27 9.37074C465.27 10.1686 465.152 10.8504 464.915 11.4162C464.681 11.982 464.345 12.4141 463.907 12.7124C463.469 13.0107 462.944 13.1598 462.334 13.1598ZM462.334 11.8849C462.75 11.8849 463.083 11.6754 463.331 11.2564C463.58 10.8374 463.703 10.2088 463.701 9.37074C463.701 8.81913 463.644 8.35985 463.53 7.9929C463.419 7.62595 463.26 7.35014 463.055 7.16548C462.851 6.98082 462.611 6.88849 462.334 6.88849C461.919 6.88849 461.588 7.09564 461.339 7.50994C461.091 7.92424 460.965 8.54451 460.963 9.37074C460.963 9.92945 461.019 10.3958 461.13 10.7699C461.243 11.1416 461.403 11.4209 461.609 11.608C461.815 11.7926 462.057 11.8849 462.334 11.8849ZM470.208 9.84659V13H468.695V5.72727H470.166V8.50781H470.23C470.353 8.18584 470.552 7.93371 470.826 7.75142C471.101 7.56676 471.445 7.47443 471.86 7.47443C472.238 7.47443 472.569 7.55729 472.85 7.72301C473.134 7.88636 473.355 8.12192 473.511 8.42969C473.669 8.73509 473.748 9.10085 473.745 9.52699V13H472.232V9.79688C472.235 9.4607 472.15 9.1991 471.977 9.01207C471.806 8.82505 471.567 8.73153 471.259 8.73153C471.053 8.73153 470.871 8.77533 470.713 8.86293C470.556 8.95052 470.433 9.07836 470.343 9.24645C470.256 9.41217 470.211 9.61222 470.208 9.84659Z" fill="#B8BFCC"/>
<rect x="2.25" y="81.25" width="433.5" height="0.5" stroke="#22C55E" stroke-width="0.5" stroke-dasharray="4 4"/>
<rect width="436" height="1" transform="translate(0 229)" fill="#EBEEF2"/>
<rect width="436" height="1" transform="translate(0 243)" fill="#EBEEF2"/>
<rect width="436" height="1" transform="translate(0 257)" fill="#EBEEF2"/>
<rect width="436" height="1" transform="translate(0 271)" fill="#EBEEF2"/>
<rect width="436" height="1" transform="translate(0 285)" fill="#EBEEF2"/>
<rect width="6" height="16" transform="translate(229 246)" fill="#F2F4F7"/>
<rect width="6" height="3" transform="translate(229 262)" fill="#22C55E"/>
<rect width="6" height="7" transform="translate(229 265)" fill="#EC4899"/>
<rect width="6" height="9" transform="translate(229 272)" fill="#33BFFF"/>
<rect width="6" height="6" transform="translate(229 281)" fill="#1D4ED8"/>
<rect width="6" height="16" transform="translate(339 246)" fill="#F2F4F7"/>
<rect width="6" height="8" transform="translate(339 262)" fill="#22C55E"/>
<rect width="6" height="7" transform="translate(339 270)" fill="#EC4899"/>
<rect width="6" height="4" transform="translate(339 277)" fill="#33BFFF"/>
<rect width="6" height="6" transform="translate(339 281)" fill="#1D4ED8"/>
<rect width="6" height="4" transform="translate(245 252)" fill="#F2F4F7"/>
<rect width="6" height="3" transform="translate(245 256)" fill="#22C55E"/>
<rect width="6" height="9" transform="translate(245 259)" fill="#EC4899"/>
<rect width="6" height="4" transform="translate(245 268)" fill="#33BFFF"/>
<rect width="6" height="15" transform="translate(245 272)" fill="#1D4ED8"/>
<rect width="6" height="13" transform="translate(355 252)" fill="#F2F4F7"/>
<rect width="6" height="3" transform="translate(355 265)" fill="#22C55E"/>
<rect width="6" height="9" transform="translate(355 268)" fill="#EC4899"/>
<rect width="6" height="4" transform="translate(355 277)" fill="#33BFFF"/>
<rect width="6" height="6" transform="translate(355 281)" fill="#1D4ED8"/>
<rect width="6" height="17" transform="translate(261 237)" fill="#F2F4F7"/>
<rect width="6" height="18" transform="translate(261 254)" fill="#22C55E"/>
<rect width="6" height="3" transform="translate(261 272)" fill="#EC4899"/>
<rect width="6" height="4" transform="translate(261 275)" fill="#33BFFF"/>
<rect width="6" height="8" transform="translate(261 279)" fill="#1D4ED8"/>
<rect width="6" height="7" transform="translate(371 268)" fill="#F2F4F7"/>
<rect width="6" height="3" transform="translate(371 275)" fill="#22C55E"/>
<rect width="6" height="6" transform="translate(371 278)" fill="#33BFFF"/>
<rect width="6" height="3" transform="translate(371 284)" fill="#1D4ED8"/>
<rect width="6" height="7" transform="translate(387 273)" fill="#F2F4F7"/>
<rect width="6" height="4" transform="translate(387 280)" fill="#33BFFF"/>
<rect width="6" height="3" transform="translate(387 284)" fill="#1D4ED8"/>
<rect width="6" height="13" transform="translate(277 237)" fill="#F2F4F7"/>
<rect width="6" height="4" transform="translate(277 250)" fill="#22C55E"/>
<rect width="6" height="18" transform="translate(277 254)" fill="#EC4899"/>
<rect width="6" height="4" transform="translate(277 272)" fill="#33BFFF"/>
<rect width="6" height="11" transform="translate(277 276)" fill="#1D4ED8"/>
<rect width="6" height="22" transform="translate(293 237)" fill="#F2F4F7"/>
<rect width="6" height="13" transform="translate(293 259)" fill="#22C55E"/>
<rect width="6" height="4" transform="translate(293 272)" fill="#33BFFF"/>
<rect width="6" height="11" transform="translate(293 276)" fill="#1D4ED8"/>
<rect width="6" height="14" transform="translate(309 237)" fill="#F2F4F7"/>
<rect width="6" height="2" transform="translate(309 251)" fill="#22C55E"/>
<rect width="6" height="19" transform="translate(309 253)" fill="#EC4899"/>
<rect width="6" height="4" transform="translate(309 272)" fill="#33BFFF"/>
<rect width="6" height="11" transform="translate(309 276)" fill="#1D4ED8"/>
</svg>
