<svg width="360" height="143" viewBox="0 0 360 143" fill="none" xmlns="http://www.w3.org/2000/svg">
<g filter="url(#filter0_d_3043_66)">
<rect x="147" y="30" width="67" height="24" rx="5" fill="#22C55E"/>
<path d="M155.87 46V44.892L158.459 42.495C158.679 42.282 158.863 42.0902 159.013 41.9197C159.164 41.7493 159.279 41.5824 159.357 41.419C159.435 41.2533 159.474 41.0746 159.474 40.8828C159.474 40.6697 159.426 40.4863 159.329 40.3324C159.232 40.1761 159.099 40.0566 158.931 39.9737C158.763 39.8885 158.572 39.8459 158.359 39.8459C158.137 39.8459 157.942 39.8909 157.777 39.9808C157.611 40.0708 157.483 40.1998 157.393 40.3679C157.303 40.536 157.258 40.736 157.258 40.968H155.799C155.799 40.4922 155.906 40.0791 156.122 39.7287C156.337 39.3783 156.639 39.1072 157.027 38.9155C157.416 38.7237 157.863 38.6278 158.37 38.6278C158.891 38.6278 159.344 38.7202 159.73 38.9048C160.118 39.0871 160.42 39.3404 160.635 39.6648C160.851 39.9891 160.959 40.3608 160.959 40.7798C160.959 41.0545 160.904 41.3255 160.795 41.593C160.689 41.8606 160.498 42.1577 160.223 42.4844C159.949 42.8087 159.562 43.1982 159.062 43.6527L158 44.6932V44.7429H161.054V46H155.87ZM166.01 42.8466V46H164.497V38.7273H165.967V41.5078H166.031C166.154 41.1858 166.353 40.9337 166.628 40.7514C166.903 40.5668 167.247 40.4744 167.661 40.4744C168.04 40.4744 168.37 40.5573 168.652 40.723C168.936 40.8864 169.156 41.1219 169.313 41.4297C169.471 41.7351 169.549 42.1009 169.547 42.527V46H168.034V42.7969C168.037 42.4607 167.951 42.1991 167.778 42.0121C167.608 41.825 167.369 41.7315 167.061 41.7315C166.855 41.7315 166.673 41.7753 166.514 41.8629C166.358 41.9505 166.235 42.0784 166.145 42.2464C166.057 42.4122 166.012 42.6122 166.01 42.8466ZM175.726 46.0994C175.196 46.0994 174.723 46.0083 174.309 45.826C173.897 45.6413 173.572 45.388 173.332 45.0661C173.096 44.7417 172.974 44.3677 172.967 43.9439H174.515C174.524 44.1214 174.582 44.2777 174.689 44.4126C174.798 44.5452 174.942 44.6482 175.122 44.7216C175.302 44.795 175.505 44.8317 175.729 44.8317C175.964 44.8317 176.171 44.7902 176.351 44.7074C176.531 44.6245 176.672 44.5097 176.774 44.3629C176.875 44.2161 176.926 44.0469 176.926 43.8551C176.926 43.661 176.872 43.4893 176.763 43.3402C176.656 43.1887 176.502 43.0703 176.301 42.9851C176.102 42.8999 175.866 42.8572 175.591 42.8572H174.913V41.728H175.591C175.823 41.728 176.028 41.6877 176.205 41.6072C176.385 41.5268 176.525 41.4155 176.624 41.2734C176.724 41.129 176.774 40.9609 176.774 40.7692C176.774 40.5869 176.73 40.4271 176.642 40.2898C176.557 40.1501 176.436 40.0412 176.28 39.9631C176.126 39.8849 175.946 39.8459 175.74 39.8459C175.532 39.8459 175.341 39.8838 175.168 39.9595C174.996 40.0329 174.857 40.1383 174.753 40.2756C174.649 40.4129 174.593 40.5739 174.586 40.7585H173.112C173.119 40.3395 173.239 39.9702 173.471 39.6506C173.703 39.331 174.015 39.0812 174.408 38.9013C174.804 38.719 175.25 38.6278 175.747 38.6278C176.249 38.6278 176.688 38.719 177.065 38.9013C177.441 39.0836 177.734 39.3298 177.942 39.6399C178.153 39.9477 178.257 40.2933 178.254 40.6768C178.257 41.084 178.13 41.4238 177.874 41.696C177.621 41.9683 177.291 42.1411 176.884 42.2145V42.2713C177.419 42.34 177.826 42.5258 178.105 42.8288C178.387 43.1295 178.527 43.5059 178.524 43.9581C178.527 44.3724 178.407 44.7405 178.166 45.0625C177.926 45.3845 177.596 45.6378 177.175 45.8224C176.753 46.0071 176.27 46.0994 175.726 46.0994ZM179.63 46V44.892L182.218 42.495C182.438 42.282 182.623 42.0902 182.772 41.9197C182.924 41.7493 183.039 41.5824 183.117 41.419C183.195 41.2533 183.234 41.0746 183.234 40.8828C183.234 40.6697 183.185 40.4863 183.088 40.3324C182.991 40.1761 182.859 40.0566 182.691 39.9737C182.523 39.8885 182.332 39.8459 182.119 39.8459C181.896 39.8459 181.702 39.8909 181.536 39.9808C181.371 40.0708 181.243 40.1998 181.153 40.3679C181.063 40.536 181.018 40.736 181.018 40.968H179.559C179.559 40.4922 179.666 40.0791 179.882 39.7287C180.097 39.3783 180.399 39.1072 180.787 38.9155C181.175 38.7237 181.623 38.6278 182.13 38.6278C182.65 38.6278 183.104 38.7202 183.49 38.9048C183.878 39.0871 184.18 39.3404 184.395 39.6648C184.611 39.9891 184.718 40.3608 184.718 40.7798C184.718 41.0545 184.664 41.3255 184.555 41.593C184.448 41.8606 184.258 42.1577 183.983 42.4844C183.709 42.8087 183.322 43.1982 182.822 43.6527L181.76 44.6932V44.7429H184.814V46H179.63ZM188.257 46V40.5455H189.699V41.5078H189.763C189.876 41.1882 190.066 40.9361 190.331 40.7514C190.596 40.5668 190.913 40.4744 191.283 40.4744C191.657 40.4744 191.975 40.5679 192.238 40.755C192.501 40.9396 192.676 41.1906 192.763 41.5078H192.82C192.931 41.1953 193.133 40.9455 193.424 40.7585C193.717 40.5691 194.064 40.4744 194.464 40.4744C194.973 40.4744 195.387 40.6366 195.704 40.9609C196.023 41.2829 196.183 41.7398 196.183 42.3317V46H194.674V42.63C194.674 42.3269 194.593 42.0997 194.432 41.9482C194.271 41.7966 194.07 41.7209 193.829 41.7209C193.554 41.7209 193.34 41.8085 193.186 41.9837C193.032 42.1565 192.955 42.3849 192.955 42.669V46H191.489V42.598C191.489 42.3305 191.412 42.1174 191.258 41.9588C191.106 41.8002 190.906 41.7209 190.658 41.7209C190.489 41.7209 190.338 41.7635 190.203 41.8487C190.07 41.9316 189.965 42.0488 189.887 42.2003C189.809 42.3494 189.77 42.5246 189.77 42.7259V46H188.257ZM197.378 46V40.5455H198.891V46H197.378ZM198.138 39.8423C197.913 39.8423 197.72 39.7678 197.559 39.6186C197.401 39.4671 197.321 39.286 197.321 39.0753C197.321 38.867 197.401 38.6882 197.559 38.5391C197.72 38.3875 197.913 38.3118 198.138 38.3118C198.363 38.3118 198.555 38.3875 198.713 38.5391C198.874 38.6882 198.955 38.867 198.955 39.0753C198.955 39.286 198.874 39.4671 198.713 39.6186C198.555 39.7678 198.363 39.8423 198.138 39.8423ZM201.616 42.8466V46H200.103V40.5455H201.544V41.5078H201.608C201.729 41.1906 201.932 40.9396 202.216 40.755C202.5 40.5679 202.844 40.4744 203.249 40.4744C203.628 40.4744 203.958 40.5573 204.24 40.723C204.522 40.8887 204.741 41.1255 204.897 41.4332C205.053 41.7386 205.131 42.1032 205.131 42.527V46H203.618V42.7969C203.621 42.4631 203.535 42.2027 203.363 42.0156C203.19 41.8262 202.952 41.7315 202.649 41.7315C202.445 41.7315 202.265 41.7753 202.109 41.8629C201.955 41.9505 201.834 42.0784 201.747 42.2464C201.662 42.4122 201.618 42.6122 201.616 42.8466Z" fill="white"/>
<path fillRule="evenodd" clip-rule="evenodd" d="M184.5 54H176.5L180.5 58L184.5 54Z" fill="#22C55E"/>
</g>
<path d="M16 95C8 95 8 83.0001 0 83V135C0 139.418 3.58172 143 8 143H352C356.418 143 360 139.432 360 135.014V61.5C350 61.5 352 75 344 75C336 75 336 83 328 83C320 83 320 75 312 75C304 75 303 89 296 89C289 89 288 67 280 67C272 67 272 61 264 61C256 61 248 71 240 71C232 71 232 65.0001 224 65C216 65 213.629 70.2447 208 75C200.36 81.4552 200 95 192 95C184 95 184 83 176 83C168 83 168 73 160 73C152 73 152 71 144 71C136 71 136 88.5 128 88.5C120 88.5 120 77 112 77C104 77 104 95 96 95C88 95 88 91.5 80 91.5C72 91.5 72 89 64 89C56 89 56 99 48 99C40 99 40 109 32 109C24 109 24 95 16 95Z" fill="url(#paint0_linear_3043_66)"/>
<path d="M0 83C8 83.0001 8 95 16 95C24 95 24 109 32 109C40 109 40 99 48 99C56 99 56 89 64 89C72 89 72 91.5 80 91.5C88 91.5 88 95 96 95C104 95 104 77 112 77C120 77 120 88.5 128 88.5C136 88.5 136 71 144 71C152 71 152 73 160 73C168 73 168 83 176 83C184 83 184 95 192 95C200 95 200.36 81.4552 208 75C213.629 70.2447 216 65 224 65C232 65.0001 232 71 240 71C248 71 256 61 264 61C272 61 272 67 280 67C288 67 289 89 296 89C303 89 304 75 312 75C320 75 320 83 328 83C336 83 336 75 344 75C352 75 350 61.5 360 61.5" stroke="#22C55E" stroke-width="2"/>
<g filter="url(#filter1_d_3043_66)">
<circle cx="180" cy="85" r="4" fill="#22C55E"/>
<circle cx="180" cy="85" r="4" stroke="white" stroke-width="2"/>
</g>
<defs>
<filter id="filter0_d_3043_66" x="102" y="0" width="157" height="118" filterUnits="userSpaceOnUse" color-interpolation-filters="sRGB">
<feFlood flood-opacity="0" result="BackgroundImageFix"/>
<feColorMatrix in="SourceAlpha" type="matrix" values="0 0 0 0 0 0 0 0 0 0 0 0 0 0 0 0 0 0 127 0" result="hardAlpha"/>
<feOffset dy="15"/>
<feGaussianBlur stdDeviation="22.5"/>
<feColorMatrix type="matrix" values="0 0 0 0 0.133333 0 0 0 0 0.772549 0 0 0 0 0.368627 0 0 0 0.25 0"/>
<feBlend mode="normal" in2="BackgroundImageFix" result="effect1_dropShadow_3043_66"/>
<feBlend mode="normal" in="SourceGraphic" in2="effect1_dropShadow_3043_66" result="shape"/>
</filter>
<filter id="filter1_d_3043_66" x="172" y="78" width="16" height="16" filterUnits="userSpaceOnUse" color-interpolation-filters="sRGB">
<feFlood flood-opacity="0" result="BackgroundImageFix"/>
<feColorMatrix in="SourceAlpha" type="matrix" values="0 0 0 0 0 0 0 0 0 0 0 0 0 0 0 0 0 0 127 0" result="hardAlpha"/>
<feOffset dy="1"/>
<feGaussianBlur stdDeviation="1.5"/>
<feColorMatrix type="matrix" values="0 0 0 0 0.133333 0 0 0 0 0.772549 0 0 0 0 0.368627 0 0 0 0.2 0"/>
<feBlend mode="normal" in2="BackgroundImageFix" result="effect1_dropShadow_3043_66"/>
<feBlend mode="normal" in="SourceGraphic" in2="effect1_dropShadow_3043_66" result="shape"/>
</filter>
<linearGradient id="paint0_linear_3043_66" x1="180" y1="61" x2="180" y2="143" gradientUnits="userSpaceOnUse">
<stop stop-color="#22C55E" stop-opacity="0.1"/>
<stop offset="1" stop-color="#22C55E" stop-opacity="0"/>
</linearGradient>
</defs>
</svg>
