<svg width="250" height="56" viewBox="0 0 250 56" fill="none" xmlns="http://www.w3.org/2000/svg">
<rect width="5" height="56" fill="black"/>
<rect x="93" width="5" height="56" fill="black"/>
<rect x="186" width="5" height="56" fill="black"/>
<rect x="8" width="2" height="56" fill="black"/>
<rect x="101" width="2" height="56" fill="black"/>
<rect x="194" width="2" height="56" fill="black"/>
<rect x="54" width="2" height="56" fill="black"/>
<rect x="147" width="2" height="56" fill="black"/>
<rect x="240" width="2" height="56" fill="black"/>
<rect x="13" width="5" height="56" fill="black"/>
<rect x="106" width="5" height="56" fill="black"/>
<rect x="199" width="5" height="56" fill="black"/>
<rect x="59" width="5" height="56" fill="black"/>
<rect x="152" width="5" height="56" fill="black"/>
<rect x="245" width="5" height="56" fill="black"/>
<rect x="21" width="5" height="56" fill="black"/>
<rect x="114" width="5" height="56" fill="black"/>
<rect x="207" width="5" height="56" fill="black"/>
<rect x="67" width="5" height="56" fill="black"/>
<rect x="160" width="5" height="56" fill="black"/>
<rect x="29" width="2" height="56" fill="black"/>
<rect x="122" width="2" height="56" fill="black"/>
<rect x="215" width="2" height="56" fill="black"/>
<rect x="46" width="2" height="56" fill="black"/>
<rect x="139" width="2" height="56" fill="black"/>
<rect x="232" width="2" height="56" fill="black"/>
<rect x="75" width="2" height="56" fill="black"/>
<rect x="168" width="2" height="56" fill="black"/>
<rect x="33" width="2" height="56" fill="black"/>
<rect x="126" width="2" height="56" fill="black"/>
<rect x="219" width="2" height="56" fill="black"/>
<rect x="50" width="2" height="56" fill="black"/>
<rect x="143" width="2" height="56" fill="black"/>
<rect x="236" width="2" height="56" fill="black"/>
<rect x="79" width="2" height="56" fill="black"/>
<rect x="172" width="2" height="56" fill="black"/>
<rect x="37" width="7" height="56" fill="black"/>
<rect x="130" width="7" height="56" fill="black"/>
<rect x="223" width="7" height="56" fill="black"/>
<rect x="83" width="7" height="56" fill="black"/>
<rect x="176" width="7" height="56" fill="black"/>
</svg>
