<svg width="275" height="7" viewBox="0 0 275 7" fill="none" xmlns="http://www.w3.org/2000/svg">
<path d="M-17 0H14.5L4.5 7H-27L-17 0Z" fill="black"/>
<path d="M25 0H56.5L46.5 7H15L25 0Z" fill="black"/>
<path d="M67 0H98.5L88.5 7H57L67 0Z" fill="black"/>
<path d="M109 0H140.5L130.5 7H99L109 0Z" fill="black"/>
<path d="M151 0H182.5L172.5 7H141L151 0Z" fill="black"/>
<path d="M193 0H224.5L214.5 7H183L193 0Z" fill="black"/>
<path d="M235 0H266.5L256.5 7H225L235 0Z" fill="black"/>
<path d="M277 0H308.5L298.5 7H267L277 0Z" fill="black"/>
</svg>
