<svg width="734" height="928" viewBox="0 0 734 928" fill="none" xmlns="http://www.w3.org/2000/svg">
<path d="M21 104L97 134V172.5L88.5 204L61.5 287.5L175 327C178 328 186 329.7 194 328.5C202 327.3 215.667 321.667 221.5 319H224.5L229 320.5L231 322.5L234.5 328.5L256.5 388.5L259 393.5L262 397.5L268 407L271 414L272.5 421.5L274 430L275.5 441L276.5 447L279 454.5L281.5 459.5L283 464V469V474.5L284.5 479L293 502L300.5 510.5L313 520.5L318 530L319.5 536L428.5 502L433 511.5L440.5 524.5L449.5 535L460 546L468 550.5L476 551.5L485.5 553L490 554.5L497.5 559.5L501.5 565.5L505 572.5L509 588.5L522 602L541 620L546.5 629L555 653L557.5 665L559 675V683.5L560 687.5L582.5 756.5L592.5 754.5H599.5L605 756.5L618 764.5H621.5L649.5 754.5" stroke="#BEB2EB" stroke-opacity="0.5" stroke-width="13"/>
<path d="M21 104L97 134V172.5L88.5 204L61.5 287.5L175 327C178 328 186 329.7 194 328.5C202 327.3 215.667 321.667 221.5 319H224.5L229 320.5L231 322.5L234.5 328.5L256.5 388.5L259 393.5L262 397.5L268 407L271 414L272.5 421.5L274 430L275.5 441L276.5 447L279 454.5L281.5 459.5L283 464V469V474.5L284.5 479L293 502L300.5 510.5L313 520.5L318 530L319.5 536L428.5 502L433 511.5L440.5 524.5L449.5 535L460 546L468 550.5L476 551.5L485.5 553L490 554.5L497.5 559.5L501.5 565.5L505 572.5L509 588.5L522 602L541 620L546.5 629L555 653L557.5 665L559 675V683.5L560 687.5L582.5 756.5L592.5 754.5H599.5L605 756.5L618 764.5H621.5L649.5 754.5" stroke="#5932EA" stroke-width="4"/>
<circle cx="21" cy="104" r="19" fill="#E8F9EE" fill-opacity="0.6"/>
<circle cx="21" cy="104" r="7" fill="#0EBC93"/>
<g filter="url(#filter0_d_915_147)">
<rect x="50" y="30" width="249" height="75" rx="12" fill="white"/>
</g>
<path d="M119.736 65V63.096C120.365 62.4773 120.947 61.9013 121.48 61.368C121.704 61.144 121.933 60.9147 122.168 60.68C122.403 60.4453 122.621 60.2267 122.824 60.024C123.027 59.8213 123.208 59.64 123.368 59.48C123.528 59.3093 123.651 59.176 123.736 59.08C123.907 58.8773 124.056 58.696 124.184 58.536C124.323 58.376 124.429 58.2213 124.504 58.072C124.589 57.912 124.653 57.7573 124.696 57.608C124.739 57.448 124.76 57.2773 124.76 57.096C124.76 56.744 124.621 56.44 124.344 56.184C124.067 55.9173 123.688 55.784 123.208 55.784C122.728 55.784 122.355 55.9227 122.088 56.2C121.821 56.4667 121.64 56.7707 121.544 57.112L119.64 56.328C119.725 56.04 119.864 55.7467 120.056 55.448C120.248 55.1387 120.493 54.8667 120.792 54.632C121.091 54.3867 121.443 54.1893 121.848 54.04C122.264 53.88 122.728 53.8 123.24 53.8C123.795 53.8 124.296 53.8853 124.744 54.056C125.192 54.216 125.571 54.44 125.88 54.728C126.189 55.016 126.429 55.3573 126.6 55.752C126.771 56.136 126.856 56.552 126.856 57C126.856 57.6827 126.685 58.312 126.344 58.888C126.013 59.4533 125.608 59.9813 125.128 60.472L123.752 61.848C123.389 62.2107 122.979 62.616 122.52 63.064L122.584 63.16H127.016V65H119.736ZM131.815 61.08C131.399 61.08 130.993 60.9947 130.599 60.824C130.204 60.6533 129.852 60.4133 129.543 60.104C129.233 59.784 128.983 59.4107 128.791 58.984C128.609 58.5467 128.519 58.0667 128.519 57.544C128.519 57 128.625 56.4987 128.839 56.04C129.052 55.5707 129.335 55.1707 129.687 54.84C130.049 54.5093 130.46 54.2533 130.919 54.072C131.388 53.88 131.879 53.784 132.391 53.784C132.977 53.784 133.511 53.8907 133.991 54.104C134.481 54.3067 134.897 54.584 135.239 54.936C135.591 55.2773 135.857 55.6827 136.039 56.152C136.231 56.6107 136.327 57.096 136.327 57.608C136.327 58.344 136.177 59.0213 135.879 59.64C135.591 60.248 135.223 60.872 134.775 61.512L132.119 65.304L130.503 64.2L132.743 61.016L132.663 60.92C132.417 61.0267 132.135 61.08 131.815 61.08ZM132.423 55.72C132.177 55.72 131.943 55.7627 131.719 55.848C131.505 55.9333 131.313 56.056 131.143 56.216C130.972 56.376 130.833 56.568 130.727 56.792C130.631 57.0053 130.583 57.2453 130.583 57.512C130.583 57.7893 130.631 58.04 130.727 58.264C130.833 58.4773 130.972 58.664 131.143 58.824C131.313 58.984 131.505 59.1067 131.719 59.192C131.943 59.2773 132.177 59.32 132.423 59.32C132.657 59.32 132.887 59.2773 133.111 59.192C133.335 59.1067 133.532 58.984 133.703 58.824C133.884 58.664 134.023 58.4773 134.119 58.264C134.225 58.04 134.279 57.7893 134.279 57.512C134.279 57.2453 134.225 57.0053 134.119 56.792C134.023 56.568 133.884 56.376 133.703 56.216C133.532 56.056 133.335 55.9333 133.111 55.848C132.887 55.7627 132.657 55.72 132.423 55.72ZM138.3 64.28L142.86 56.136L142.812 56.04H137.772L137.804 54.056H145.229V56.136L140.06 65.256L138.3 64.28ZM146.763 65V63.096C147.392 62.4773 147.974 61.9013 148.507 61.368C148.731 61.144 148.96 60.9147 149.195 60.68C149.43 60.4453 149.648 60.2267 149.851 60.024C150.054 59.8213 150.235 59.64 150.395 59.48C150.555 59.3093 150.678 59.176 150.763 59.08C150.934 58.8773 151.083 58.696 151.211 58.536C151.35 58.376 151.456 58.2213 151.531 58.072C151.616 57.912 151.68 57.7573 151.723 57.608C151.766 57.448 151.787 57.2773 151.787 57.096C151.787 56.744 151.648 56.44 151.371 56.184C151.094 55.9173 150.715 55.784 150.235 55.784C149.755 55.784 149.382 55.9227 149.115 56.2C148.848 56.4667 148.667 56.7707 148.571 57.112L146.667 56.328C146.752 56.04 146.891 55.7467 147.083 55.448C147.275 55.1387 147.52 54.8667 147.819 54.632C148.118 54.3867 148.47 54.1893 148.875 54.04C149.291 53.88 149.755 53.8 150.267 53.8C150.822 53.8 151.323 53.8853 151.771 54.056C152.219 54.216 152.598 54.44 152.907 54.728C153.216 55.016 153.456 55.3573 153.627 55.752C153.798 56.136 153.883 56.552 153.883 57C153.883 57.6827 153.712 58.312 153.371 58.888C153.04 59.4533 152.635 59.9813 152.155 60.472L150.779 61.848C150.416 62.2107 150.006 62.616 149.547 63.064L149.611 63.16H154.043V65H146.763ZM158.197 53.544H160.485L162.261 60.232L162.517 61.464H162.645L162.981 60.232L164.629 55.08H166.645L168.309 60.232L168.629 61.448H168.757L168.997 60.232L170.661 53.544H172.949L169.909 65H167.829L166.037 59.48L165.701 58.216H165.573L165.237 59.48L163.445 65H161.365L158.197 53.544ZM180.811 63.112C180.449 63.752 179.958 64.2693 179.339 64.664C178.731 65.0587 177.985 65.256 177.099 65.256C176.502 65.256 175.947 65.1547 175.435 64.952C174.934 64.7387 174.497 64.4453 174.123 64.072C173.75 63.6987 173.457 63.2613 173.243 62.76C173.041 62.248 172.939 61.688 172.939 61.08C172.939 60.5147 173.041 59.9813 173.243 59.48C173.446 58.968 173.729 58.5253 174.091 58.152C174.454 57.768 174.881 57.464 175.371 57.24C175.873 57.016 176.422 56.904 177.019 56.904C177.649 56.904 178.209 57.0107 178.699 57.224C179.19 57.4267 179.601 57.7147 179.931 58.088C180.262 58.4507 180.513 58.8827 180.683 59.384C180.854 59.8853 180.939 60.4293 180.939 61.016C180.939 61.0907 180.939 61.1547 180.939 61.208C180.929 61.272 180.923 61.3307 180.923 61.384C180.913 61.4373 180.907 61.496 180.907 61.56H175.003C175.046 61.88 175.131 62.1573 175.259 62.392C175.398 62.616 175.563 62.808 175.755 62.968C175.958 63.1173 176.177 63.2293 176.411 63.304C176.646 63.368 176.886 63.4 177.131 63.4C177.611 63.4 178.006 63.2933 178.315 63.08C178.635 62.856 178.886 62.5787 179.067 62.248L180.811 63.112ZM178.907 60.072C178.897 59.9333 178.849 59.7787 178.763 59.608C178.689 59.4373 178.571 59.2773 178.411 59.128C178.262 58.9787 178.07 58.856 177.835 58.76C177.611 58.664 177.339 58.616 177.019 58.616C176.571 58.616 176.177 58.744 175.835 59C175.494 59.256 175.254 59.6133 175.115 60.072H178.907ZM185.62 65.256C185.108 65.256 184.649 65.192 184.244 65.064C183.849 64.936 183.503 64.7707 183.204 64.568C182.916 64.3547 182.671 64.1147 182.468 63.848C182.265 63.5707 182.111 63.2933 182.004 63.016L183.876 62.216C184.057 62.6213 184.297 62.9253 184.596 63.128C184.905 63.32 185.247 63.416 185.62 63.416C186.004 63.416 186.308 63.3467 186.532 63.208C186.756 63.0693 186.868 62.904 186.868 62.712C186.868 62.4987 186.772 62.328 186.58 62.2C186.399 62.0613 186.079 61.9387 185.62 61.832L184.516 61.592C184.271 61.5387 184.015 61.4533 183.748 61.336C183.492 61.2187 183.257 61.0693 183.044 60.888C182.831 60.7067 182.655 60.488 182.516 60.232C182.377 59.976 182.308 59.6773 182.308 59.336C182.308 58.952 182.388 58.6107 182.548 58.312C182.719 58.0133 182.948 57.7627 183.236 57.56C183.524 57.3467 183.86 57.1867 184.244 57.08C184.639 56.9627 185.06 56.904 185.508 56.904C186.255 56.904 186.921 57.0533 187.508 57.352C188.095 57.64 188.527 58.104 188.804 58.744L186.996 59.48C186.847 59.1707 186.628 58.9467 186.34 58.808C186.052 58.6693 185.764 58.6 185.476 58.6C185.177 58.6 184.916 58.664 184.692 58.792C184.468 58.9093 184.356 59.064 184.356 59.256C184.356 59.4373 184.447 59.5813 184.628 59.688C184.82 59.7947 185.076 59.8907 185.396 59.976L186.596 60.264C187.396 60.456 187.988 60.7653 188.372 61.192C188.767 61.608 188.964 62.104 188.964 62.68C188.964 63.0213 188.884 63.3467 188.724 63.656C188.564 63.9653 188.335 64.2427 188.036 64.488C187.748 64.7227 187.396 64.9093 186.98 65.048C186.575 65.1867 186.121 65.256 185.62 65.256ZM191.196 58.952H189.82V57.16H191.196V54.76H193.292V57.16H195.212V58.952H193.292V61.992C193.292 62.1733 193.308 62.344 193.34 62.504C193.383 62.6533 193.458 62.7813 193.564 62.888C193.714 63.0587 193.927 63.144 194.204 63.144C194.386 63.144 194.53 63.128 194.636 63.096C194.743 63.0533 194.844 63 194.94 62.936L195.532 64.776C195.287 64.8933 195.02 64.9787 194.732 65.032C194.455 65.096 194.146 65.128 193.804 65.128C193.41 65.128 193.052 65.0693 192.732 64.952C192.423 64.824 192.162 64.6533 191.948 64.44C191.447 63.96 191.196 63.2773 191.196 62.392V58.952ZM196.992 53.544H199.088V56.76L198.96 58.184H199.088C199.312 57.8107 199.632 57.5067 200.048 57.272C200.475 57.0267 200.95 56.904 201.472 56.904C202.486 56.904 203.232 57.2027 203.712 57.8C204.203 58.3973 204.448 59.2133 204.448 60.248V65H202.352V60.504C202.352 59.96 202.224 59.5493 201.968 59.272C201.712 58.984 201.355 58.84 200.896 58.84C200.608 58.84 200.352 58.904 200.128 59.032C199.904 59.1493 199.712 59.3147 199.552 59.528C199.403 59.7413 199.286 59.992 199.2 60.28C199.126 60.5573 199.088 60.856 199.088 61.176V65H196.992V53.544ZM213.764 63.112C213.401 63.752 212.91 64.2693 212.292 64.664C211.684 65.0587 210.937 65.256 210.052 65.256C209.454 65.256 208.9 65.1547 208.388 64.952C207.886 64.7387 207.449 64.4453 207.076 64.072C206.702 63.6987 206.409 63.2613 206.196 62.76C205.993 62.248 205.892 61.688 205.892 61.08C205.892 60.5147 205.993 59.9813 206.196 59.48C206.398 58.968 206.681 58.5253 207.044 58.152C207.406 57.768 207.833 57.464 208.324 57.24C208.825 57.016 209.374 56.904 209.972 56.904C210.601 56.904 211.161 57.0107 211.652 57.224C212.142 57.4267 212.553 57.7147 212.884 58.088C213.214 58.4507 213.465 58.8827 213.636 59.384C213.806 59.8853 213.892 60.4293 213.892 61.016C213.892 61.0907 213.892 61.1547 213.892 61.208C213.881 61.272 213.876 61.3307 213.876 61.384C213.865 61.4373 213.86 61.496 213.86 61.56H207.956C207.998 61.88 208.084 62.1573 208.212 62.392C208.35 62.616 208.516 62.808 208.708 62.968C208.91 63.1173 209.129 63.2293 209.364 63.304C209.598 63.368 209.838 63.4 210.084 63.4C210.564 63.4 210.958 63.2933 211.268 63.08C211.588 62.856 211.838 62.5787 212.02 62.248L213.764 63.112ZM211.86 60.072C211.849 59.9333 211.801 59.7787 211.716 59.608C211.641 59.4373 211.524 59.2773 211.364 59.128C211.214 58.9787 211.022 58.856 210.788 58.76C210.564 58.664 210.292 58.616 209.972 58.616C209.524 58.616 209.129 58.744 208.788 59C208.446 59.256 208.206 59.6133 208.068 60.072H211.86ZM216.558 56.024C216.377 56.024 216.201 55.992 216.03 55.928C215.87 55.8533 215.726 55.7573 215.598 55.64C215.481 55.512 215.385 55.368 215.31 55.208C215.246 55.048 215.214 54.872 215.214 54.68C215.214 54.488 215.246 54.312 215.31 54.152C215.385 53.992 215.481 53.8533 215.598 53.736C215.726 53.608 215.87 53.512 216.03 53.448C216.201 53.3733 216.377 53.336 216.558 53.336C216.932 53.336 217.252 53.4693 217.518 53.736C217.785 53.992 217.918 54.3067 217.918 54.68C217.918 55.0533 217.785 55.3733 217.518 55.64C217.252 55.896 216.932 56.024 216.558 56.024ZM215.518 65V57.16H217.614V65H215.518ZM219.691 57.16H221.659V58.184H221.787C222.032 57.8 222.363 57.4907 222.779 57.256C223.206 57.0213 223.675 56.904 224.187 56.904C224.784 56.904 225.286 57.0427 225.691 57.32C226.096 57.5973 226.384 57.9387 226.555 58.344C226.8 57.9493 227.147 57.6133 227.595 57.336C228.043 57.048 228.587 56.904 229.227 56.904C229.707 56.904 230.123 56.984 230.475 57.144C230.827 57.2933 231.115 57.5067 231.339 57.784C231.574 58.0613 231.75 58.3973 231.867 58.792C231.984 59.176 232.043 59.5973 232.043 60.056V65H229.947V60.44C229.947 59.3733 229.51 58.84 228.635 58.84C228.358 58.84 228.112 58.904 227.899 59.032C227.686 59.1493 227.504 59.3147 227.355 59.528C227.216 59.7307 227.104 59.976 227.019 60.264C226.944 60.552 226.907 60.8613 226.907 61.192V65H224.811V60.44C224.811 59.3733 224.352 58.84 223.435 58.84C223.168 58.84 222.934 58.904 222.731 59.032C222.528 59.1493 222.358 59.3147 222.219 59.528C222.08 59.7307 221.974 59.976 221.899 60.264C221.824 60.552 221.787 60.8613 221.787 61.192V65H219.691V57.16ZM241.353 63.112C240.99 63.752 240.5 64.2693 239.881 64.664C239.273 65.0587 238.526 65.256 237.641 65.256C237.044 65.256 236.489 65.1547 235.977 64.952C235.476 64.7387 235.038 64.4453 234.665 64.072C234.292 63.6987 233.998 63.2613 233.785 62.76C233.582 62.248 233.481 61.688 233.481 61.08C233.481 60.5147 233.582 59.9813 233.785 59.48C233.988 58.968 234.27 58.5253 234.633 58.152C234.996 57.768 235.422 57.464 235.913 57.24C236.414 57.016 236.964 56.904 237.561 56.904C238.19 56.904 238.75 57.0107 239.241 57.224C239.732 57.4267 240.142 57.7147 240.473 58.088C240.804 58.4507 241.054 58.8827 241.225 59.384C241.396 59.8853 241.481 60.4293 241.481 61.016C241.481 61.0907 241.481 61.1547 241.481 61.208C241.47 61.272 241.465 61.3307 241.465 61.384C241.454 61.4373 241.449 61.496 241.449 61.56H235.545C235.588 61.88 235.673 62.1573 235.801 62.392C235.94 62.616 236.105 62.808 236.297 62.968C236.5 63.1173 236.718 63.2293 236.953 63.304C237.188 63.368 237.428 63.4 237.673 63.4C238.153 63.4 238.548 63.2933 238.857 63.08C239.177 62.856 239.428 62.5787 239.609 62.248L241.353 63.112ZM239.449 60.072C239.438 59.9333 239.39 59.7787 239.305 59.608C239.23 59.4373 239.113 59.2773 238.953 59.128C238.804 58.9787 238.612 58.856 238.377 58.76C238.153 58.664 237.881 58.616 237.561 58.616C237.113 58.616 236.718 58.744 236.377 59C236.036 59.256 235.796 59.6133 235.657 60.072H239.449ZM242.98 57.16H244.948V58.248H245.076C245.172 58.056 245.3 57.88 245.46 57.72C245.62 57.56 245.796 57.4213 245.988 57.304C246.19 57.1867 246.404 57.096 246.628 57.032C246.862 56.968 247.092 56.936 247.316 56.936C247.593 56.936 247.828 56.9627 248.02 57.016C248.222 57.0693 248.393 57.1387 248.532 57.224L247.972 59.128C247.844 59.064 247.7 59.016 247.54 58.984C247.39 58.9413 247.204 58.92 246.98 58.92C246.692 58.92 246.43 58.9787 246.196 59.096C245.961 59.2027 245.758 59.3573 245.588 59.56C245.428 59.7627 245.3 60.0027 245.204 60.28C245.118 60.5467 245.076 60.84 245.076 61.16V65H242.98V57.16Z" fill="#232323"/>
<path d="M119.96 83V74.6H122.684C123.268 74.6 123.778 74.69 124.214 74.87C124.65 75.05 124.988 75.328 125.228 75.704C125.468 76.08 125.588 76.564 125.588 77.156C125.588 77.732 125.462 78.214 125.21 78.602C124.962 78.99 124.6 79.296 124.124 79.52L126.008 83H124.616L122.912 79.724C122.9 79.724 122.89 79.724 122.882 79.724C122.874 79.724 122.864 79.724 122.852 79.724H121.16V83H119.96ZM121.16 78.704H122.672C123.244 78.704 123.674 78.566 123.962 78.29C124.254 78.014 124.4 77.636 124.4 77.156C124.4 76.668 124.254 76.29 123.962 76.022C123.674 75.754 123.244 75.62 122.672 75.62H121.16V78.704ZM129.188 83.12C128.688 83.12 128.236 82.984 127.832 82.712C127.428 82.44 127.106 82.074 126.866 81.614C126.63 81.154 126.512 80.64 126.512 80.072C126.512 79.532 126.62 79.028 126.836 78.56C127.056 78.092 127.366 77.716 127.766 77.432C128.166 77.144 128.64 77 129.188 77C129.58 77 129.958 77.086 130.322 77.258C130.69 77.426 130.988 77.708 131.216 78.104L130.988 78.26V74H132.068V83H131.108L130.904 81.752L131.18 81.944C131.008 82.332 130.738 82.626 130.37 82.826C130.002 83.022 129.608 83.12 129.188 83.12ZM129.38 82.16C129.652 82.16 129.92 82.09 130.184 81.95C130.452 81.81 130.672 81.588 130.844 81.284C131.02 80.976 131.108 80.572 131.108 80.072C131.108 79.608 131.02 79.22 130.844 78.908C130.672 78.592 130.452 78.356 130.184 78.2C129.92 78.04 129.652 77.96 129.38 77.96C129.012 77.96 128.696 78.052 128.432 78.236C128.168 78.42 127.966 78.672 127.826 78.992C127.686 79.308 127.616 79.668 127.616 80.072C127.616 80.452 127.686 80.8 127.826 81.116C127.966 81.432 128.168 81.686 128.432 81.878C128.696 82.066 129.012 82.16 129.38 82.16ZM133.504 83V81.728H134.8V83H133.504ZM141.695 83.168C141.347 83.168 140.999 83.142 140.651 83.09C140.303 83.038 139.981 82.972 139.685 82.892C139.389 82.808 139.143 82.72 138.947 82.628L139.103 81.416C139.319 81.52 139.579 81.628 139.883 81.74C140.191 81.852 140.523 81.946 140.879 82.022C141.235 82.098 141.595 82.136 141.959 82.136C142.499 82.136 142.927 82.038 143.243 81.842C143.563 81.642 143.723 81.332 143.723 80.912C143.723 80.596 143.643 80.338 143.483 80.138C143.323 79.934 143.081 79.76 142.757 79.616C142.437 79.472 142.035 79.328 141.551 79.184C141.091 79.048 140.667 78.888 140.279 78.704C139.891 78.516 139.579 78.266 139.343 77.954C139.111 77.638 138.995 77.22 138.995 76.7C138.995 76.256 139.109 75.864 139.337 75.524C139.569 75.18 139.907 74.912 140.351 74.72C140.799 74.528 141.347 74.432 141.995 74.432C142.547 74.432 143.053 74.492 143.513 74.612C143.977 74.732 144.359 74.864 144.659 75.008L144.539 76.22C144.083 75.948 143.647 75.754 143.231 75.638C142.819 75.522 142.391 75.464 141.947 75.464C141.455 75.464 141.047 75.556 140.723 75.74C140.403 75.924 140.243 76.224 140.243 76.64C140.243 76.92 140.315 77.15 140.459 77.33C140.603 77.506 140.817 77.658 141.101 77.786C141.385 77.91 141.739 78.036 142.163 78.164C142.747 78.34 143.249 78.542 143.669 78.77C144.089 78.994 144.411 79.272 144.635 79.604C144.859 79.932 144.971 80.34 144.971 80.828C144.971 81.188 144.903 81.512 144.767 81.8C144.631 82.088 144.427 82.334 144.155 82.538C143.883 82.742 143.541 82.898 143.129 83.006C142.721 83.114 142.243 83.168 141.695 83.168ZM147.563 83.12C147.199 83.12 146.881 83.046 146.609 82.898C146.337 82.75 146.125 82.548 145.973 82.292C145.825 82.036 145.751 81.744 145.751 81.416C145.751 81.084 145.823 80.8 145.967 80.564C146.115 80.324 146.311 80.126 146.555 79.97C146.803 79.81 147.079 79.684 147.383 79.592C147.687 79.496 148.001 79.428 148.325 79.388C148.653 79.344 148.967 79.32 149.267 79.316C149.267 78.756 149.157 78.39 148.937 78.218C148.717 78.046 148.399 77.96 147.983 77.96C147.763 77.96 147.527 77.994 147.275 78.062C147.027 78.13 146.747 78.272 146.435 78.488L146.279 77.612C146.515 77.432 146.809 77.286 147.161 77.174C147.513 77.058 147.883 77 148.271 77C148.767 77 149.167 77.088 149.471 77.264C149.775 77.436 149.997 77.728 150.137 78.14C150.277 78.552 150.347 79.112 150.347 79.82V81.02C150.347 81.3 150.359 81.532 150.383 81.716C150.411 81.896 150.471 82.032 150.563 82.124C150.659 82.212 150.811 82.256 151.019 82.256H151.127L150.959 83.12H150.875C150.527 83.12 150.257 83.086 150.065 83.018C149.877 82.95 149.733 82.852 149.633 82.724C149.533 82.596 149.443 82.44 149.363 82.256C149.143 82.512 148.883 82.72 148.583 82.88C148.283 83.04 147.943 83.12 147.563 83.12ZM147.767 82.256C148.055 82.256 148.333 82.184 148.601 82.04C148.873 81.896 149.095 81.704 149.267 81.464V80.06C148.695 80.08 148.231 80.136 147.875 80.228C147.523 80.32 147.265 80.458 147.101 80.642C146.937 80.826 146.855 81.064 146.855 81.356C146.855 81.672 146.939 81.902 147.107 82.046C147.279 82.186 147.499 82.256 147.767 82.256ZM152.081 83V77.12H152.921L153.137 78.248L152.717 78.068C153.113 77.628 153.499 77.34 153.875 77.204C154.255 77.068 154.625 77 154.985 77C155.845 77 156.459 77.248 156.827 77.744C157.199 78.24 157.385 78.912 157.385 79.76V83H156.305V79.76C156.305 79.136 156.189 78.68 155.957 78.392C155.725 78.104 155.329 77.96 154.769 77.96C154.373 77.96 154.009 78.048 153.677 78.224C153.349 78.396 153.133 78.672 153.029 79.052L153.161 78.392V83H152.081ZM160.838 83.12C160.466 83.12 160.168 83.052 159.944 82.916C159.72 82.78 159.556 82.606 159.452 82.394C159.352 82.178 159.302 81.952 159.302 81.716V77.96H158.294L158.39 77.12H159.302V75.668L160.382 75.56V77.12H161.93V77.96H160.382V81.056C160.382 81.432 160.404 81.704 160.448 81.872C160.492 82.04 160.6 82.146 160.772 82.19C160.948 82.234 161.23 82.256 161.618 82.256H161.894L161.81 83.12H160.838ZM164.341 83.12C163.977 83.12 163.659 83.046 163.387 82.898C163.115 82.75 162.903 82.548 162.751 82.292C162.603 82.036 162.529 81.744 162.529 81.416C162.529 81.084 162.601 80.8 162.745 80.564C162.893 80.324 163.089 80.126 163.333 79.97C163.581 79.81 163.857 79.684 164.161 79.592C164.465 79.496 164.779 79.428 165.103 79.388C165.431 79.344 165.745 79.32 166.045 79.316C166.045 78.756 165.935 78.39 165.715 78.218C165.495 78.046 165.177 77.96 164.761 77.96C164.541 77.96 164.305 77.994 164.053 78.062C163.805 78.13 163.525 78.272 163.213 78.488L163.057 77.612C163.293 77.432 163.587 77.286 163.939 77.174C164.291 77.058 164.661 77 165.049 77C165.545 77 165.945 77.088 166.249 77.264C166.553 77.436 166.775 77.728 166.915 78.14C167.055 78.552 167.125 79.112 167.125 79.82V81.02C167.125 81.3 167.137 81.532 167.161 81.716C167.189 81.896 167.249 82.032 167.341 82.124C167.437 82.212 167.589 82.256 167.797 82.256H167.905L167.737 83.12H167.653C167.305 83.12 167.035 83.086 166.843 83.018C166.655 82.95 166.511 82.852 166.411 82.724C166.311 82.596 166.221 82.44 166.141 82.256C165.921 82.512 165.661 82.72 165.361 82.88C165.061 83.04 164.721 83.12 164.341 83.12ZM164.545 82.256C164.833 82.256 165.111 82.184 165.379 82.04C165.651 81.896 165.873 81.704 166.045 81.464V80.06C165.473 80.08 165.009 80.136 164.653 80.228C164.301 80.32 164.043 80.458 163.879 80.642C163.715 80.826 163.633 81.064 163.633 81.356C163.633 81.672 163.717 81.902 163.885 82.046C164.057 82.186 164.277 82.256 164.545 82.256ZM176.438 80.732H172.838V79.7H176.438V80.732ZM174.47 75.716H174.806L172.226 83H171.026L174.038 74.6H175.238L178.25 83H177.05L174.47 75.716ZM179.189 83V77.12H180.029L180.245 78.248L179.825 78.068C180.221 77.628 180.607 77.34 180.983 77.204C181.363 77.068 181.733 77 182.093 77C182.953 77 183.567 77.248 183.935 77.744C184.307 78.24 184.493 78.912 184.493 79.76V83H183.413V79.76C183.413 79.136 183.297 78.68 183.065 78.392C182.833 78.104 182.437 77.96 181.877 77.96C181.481 77.96 181.117 78.048 180.785 78.224C180.457 78.396 180.241 78.672 180.137 79.052L180.269 78.392V83H179.189ZM187.38 83.12C187.016 83.12 186.698 83.046 186.426 82.898C186.154 82.75 185.942 82.548 185.79 82.292C185.642 82.036 185.568 81.744 185.568 81.416C185.568 81.084 185.64 80.8 185.784 80.564C185.932 80.324 186.128 80.126 186.372 79.97C186.62 79.81 186.896 79.684 187.2 79.592C187.504 79.496 187.818 79.428 188.142 79.388C188.47 79.344 188.784 79.32 189.084 79.316C189.084 78.756 188.974 78.39 188.754 78.218C188.534 78.046 188.216 77.96 187.8 77.96C187.58 77.96 187.344 77.994 187.092 78.062C186.844 78.13 186.564 78.272 186.252 78.488L186.096 77.612C186.332 77.432 186.626 77.286 186.978 77.174C187.33 77.058 187.7 77 188.088 77C188.584 77 188.984 77.088 189.288 77.264C189.592 77.436 189.814 77.728 189.954 78.14C190.094 78.552 190.164 79.112 190.164 79.82V81.02C190.164 81.3 190.176 81.532 190.2 81.716C190.228 81.896 190.288 82.032 190.38 82.124C190.476 82.212 190.628 82.256 190.836 82.256H190.944L190.776 83.12H190.692C190.344 83.12 190.074 83.086 189.882 83.018C189.694 82.95 189.55 82.852 189.45 82.724C189.35 82.596 189.26 82.44 189.18 82.256C188.96 82.512 188.7 82.72 188.4 82.88C188.1 83.04 187.76 83.12 187.38 83.12ZM187.584 82.256C187.872 82.256 188.15 82.184 188.418 82.04C188.69 81.896 188.912 81.704 189.084 81.464V80.06C188.512 80.08 188.048 80.136 187.692 80.228C187.34 80.32 187.082 80.458 186.918 80.642C186.754 80.826 186.672 81.064 186.672 81.356C186.672 81.672 186.756 81.902 186.924 82.046C187.096 82.186 187.316 82.256 187.584 82.256ZM192.533 84.284H191.849L192.281 83H191.861V81.728H193.157V82.88L192.533 84.284ZM197.651 83V74.6H198.791V83H197.651ZM201.996 83.12C201.616 83.12 201.314 83.052 201.09 82.916C200.87 82.776 200.712 82.598 200.616 82.382C200.52 82.166 200.472 81.94 200.472 81.704V74H201.552V81.08C201.552 81.416 201.574 81.668 201.618 81.836C201.662 82.004 201.75 82.116 201.882 82.172C202.018 82.228 202.224 82.256 202.5 82.256L202.344 83.12H201.996ZM204.952 83.12C204.572 83.12 204.27 83.052 204.046 82.916C203.826 82.776 203.668 82.598 203.572 82.382C203.476 82.166 203.428 81.94 203.428 81.704V74H204.508V81.08C204.508 81.416 204.53 81.668 204.574 81.836C204.618 82.004 204.706 82.116 204.838 82.172C204.974 82.228 205.18 82.256 205.456 82.256L205.3 83.12H204.952ZM206.396 83V77.12H207.476V83H206.396ZM206.396 75.8V74.6H207.476V75.8H206.396ZM209.059 83V77.12H209.899L210.115 78.248L209.695 78.068C210.091 77.628 210.477 77.34 210.853 77.204C211.233 77.068 211.603 77 211.963 77C212.823 77 213.437 77.248 213.805 77.744C214.177 78.24 214.363 78.912 214.363 79.76V83H213.283V79.76C213.283 79.136 213.167 78.68 212.935 78.392C212.703 78.104 212.307 77.96 211.747 77.96C211.351 77.96 210.987 78.048 210.655 78.224C210.327 78.396 210.111 78.672 210.007 79.052L210.139 78.392V83H209.059ZM218.45 83.12C217.834 83.12 217.308 82.984 216.872 82.712C216.44 82.436 216.108 82.068 215.876 81.608C215.648 81.144 215.534 80.628 215.534 80.06C215.534 79.492 215.648 78.978 215.876 78.518C216.108 78.054 216.44 77.686 216.872 77.414C217.308 77.138 217.834 77 218.45 77C219.062 77 219.586 77.138 220.022 77.414C220.458 77.686 220.79 78.054 221.018 78.518C221.25 78.978 221.366 79.492 221.366 80.06C221.366 80.628 221.25 81.144 221.018 81.608C220.79 82.068 220.458 82.436 220.022 82.712C219.586 82.984 219.062 83.12 218.45 83.12ZM218.45 82.16C219.034 82.16 219.482 81.976 219.794 81.608C220.106 81.236 220.262 80.72 220.262 80.06C220.262 79.4 220.106 78.886 219.794 78.518C219.482 78.146 219.034 77.96 218.45 77.96C217.87 77.96 217.422 78.146 217.106 78.518C216.794 78.886 216.638 79.4 216.638 80.06C216.638 80.72 216.794 81.236 217.106 81.608C217.422 81.976 217.87 82.16 218.45 82.16ZM222.6 83V77.12H223.68V83H222.6ZM222.6 75.8V74.6H223.68V75.8H222.6ZM226.931 83.12C226.411 83.12 225.979 83.058 225.635 82.934C225.295 82.81 225.055 82.7 224.915 82.604L225.047 81.56C225.175 81.672 225.401 81.8 225.725 81.944C226.049 82.088 226.435 82.16 226.883 82.16C227.263 82.16 227.553 82.096 227.753 81.968C227.957 81.84 228.059 81.66 228.059 81.428C228.059 81.224 227.993 81.06 227.861 80.936C227.733 80.808 227.577 80.708 227.393 80.636C227.213 80.56 227.043 80.5 226.883 80.456C226.615 80.384 226.337 80.294 226.049 80.186C225.765 80.074 225.525 79.908 225.329 79.688C225.133 79.468 225.035 79.16 225.035 78.764C225.035 78.464 225.107 78.18 225.251 77.912C225.395 77.64 225.629 77.42 225.953 77.252C226.277 77.084 226.707 77 227.243 77C227.635 77 227.953 77.042 228.197 77.126C228.445 77.206 228.659 77.292 228.839 77.384L228.707 78.368C228.535 78.224 228.335 78.102 228.107 78.002C227.879 77.902 227.599 77.852 227.267 77.852C226.931 77.852 226.657 77.916 226.445 78.044C226.233 78.168 226.127 78.368 226.127 78.644C226.127 78.92 226.239 79.116 226.463 79.232C226.691 79.348 227.035 79.476 227.495 79.616C227.639 79.656 227.805 79.714 227.993 79.79C228.185 79.866 228.371 79.968 228.551 80.096C228.731 80.224 228.879 80.392 228.995 80.6C229.115 80.804 229.175 81.06 229.175 81.368C229.175 81.628 229.113 81.894 228.989 82.166C228.865 82.434 228.641 82.66 228.317 82.844C227.993 83.028 227.531 83.12 226.931 83.12ZM236.071 83.168C235.471 83.168 234.953 83.06 234.517 82.844C234.081 82.624 233.745 82.322 233.509 81.938C233.273 81.55 233.155 81.104 233.155 80.6C233.155 80.08 233.277 79.626 233.521 79.238C233.765 78.85 234.105 78.548 234.541 78.332C234.981 78.116 235.491 78.008 236.071 78.008C236.651 78.008 237.159 78.116 237.595 78.332C238.035 78.548 238.377 78.85 238.621 79.238C238.865 79.626 238.987 80.08 238.987 80.6C238.987 81.104 238.867 81.55 238.627 81.938C238.391 82.322 238.055 82.624 237.619 82.844C237.183 83.06 236.667 83.168 236.071 83.168ZM236.071 82.136C236.623 82.136 237.051 81.996 237.355 81.716C237.659 81.432 237.811 81.06 237.811 80.6C237.811 80.12 237.659 79.724 237.355 79.412C237.051 79.1 236.623 78.944 236.071 78.944C235.519 78.944 235.091 79.1 234.787 79.412C234.483 79.724 234.331 80.12 234.331 80.6C234.331 81.06 234.483 81.432 234.787 81.716C235.091 81.996 235.519 82.136 236.071 82.136ZM236.071 78.884C235.603 78.884 235.177 78.792 234.793 78.608C234.413 78.42 234.109 78.162 233.881 77.834C233.653 77.506 233.539 77.128 233.539 76.7C233.539 76.332 233.625 75.974 233.797 75.626C233.969 75.278 234.241 74.992 234.613 74.768C234.985 74.544 235.471 74.432 236.071 74.432C236.671 74.432 237.153 74.544 237.517 74.768C237.881 74.992 238.145 75.278 238.309 75.626C238.473 75.974 238.555 76.332 238.555 76.7C238.555 77.128 238.453 77.506 238.249 77.834C238.045 78.162 237.757 78.42 237.385 78.608C237.013 78.792 236.575 78.884 236.071 78.884ZM236.071 77.948C236.515 77.948 236.849 77.826 237.073 77.582C237.301 77.334 237.415 77.04 237.415 76.7C237.415 76.332 237.301 76.034 237.073 75.806C236.849 75.578 236.515 75.464 236.071 75.464C235.627 75.464 235.283 75.578 235.039 75.806C234.799 76.034 234.679 76.332 234.679 76.7C234.679 77.04 234.799 77.334 235.039 77.582C235.283 77.826 235.627 77.948 236.071 77.948ZM242.784 83.168C242.34 83.168 241.914 83.11 241.506 82.994C241.098 82.878 240.744 82.724 240.444 82.532L240.72 81.476C241.016 81.636 241.324 81.774 241.644 81.89C241.964 82.006 242.324 82.064 242.724 82.064C243.26 82.064 243.694 81.914 244.026 81.614C244.358 81.31 244.524 80.904 244.524 80.396C244.524 79.82 244.344 79.382 243.984 79.082C243.624 78.782 243.156 78.632 242.58 78.632C242.276 78.632 241.988 78.654 241.716 78.698C241.448 78.742 241.172 78.8 240.888 78.872L241.404 74.6H245.364L245.316 75.68H242.34L242.028 78.308L241.776 77.816C241.956 77.78 242.146 77.752 242.346 77.732C242.546 77.708 242.748 77.696 242.952 77.696C243.548 77.696 244.056 77.814 244.476 78.05C244.896 78.282 245.216 78.602 245.436 79.01C245.66 79.418 245.772 79.88 245.772 80.396C245.772 80.964 245.64 81.456 245.376 81.872C245.116 82.284 244.76 82.604 244.308 82.832C243.86 83.056 243.352 83.168 242.784 83.168ZM250.824 83V80.828H246.684L251.148 74.6H251.976V79.856H253.056V80.828H251.976V83H250.824ZM248.364 80.18L248.16 79.856H250.824V76.1L251.028 76.436L248.364 80.18ZM257.138 83.168C256.538 83.168 256.02 83.06 255.584 82.844C255.148 82.624 254.812 82.322 254.576 81.938C254.34 81.55 254.222 81.104 254.222 80.6C254.222 80.08 254.344 79.626 254.588 79.238C254.832 78.85 255.172 78.548 255.608 78.332C256.048 78.116 256.558 78.008 257.138 78.008C257.718 78.008 258.226 78.116 258.662 78.332C259.102 78.548 259.444 78.85 259.688 79.238C259.932 79.626 260.054 80.08 260.054 80.6C260.054 81.104 259.934 81.55 259.694 81.938C259.458 82.322 259.122 82.624 258.686 82.844C258.25 83.06 257.734 83.168 257.138 83.168ZM257.138 82.136C257.69 82.136 258.118 81.996 258.422 81.716C258.726 81.432 258.878 81.06 258.878 80.6C258.878 80.12 258.726 79.724 258.422 79.412C258.118 79.1 257.69 78.944 257.138 78.944C256.586 78.944 256.158 79.1 255.854 79.412C255.55 79.724 255.398 80.12 255.398 80.6C255.398 81.06 255.55 81.432 255.854 81.716C256.158 81.996 256.586 82.136 257.138 82.136ZM257.138 78.884C256.67 78.884 256.244 78.792 255.86 78.608C255.48 78.42 255.176 78.162 254.948 77.834C254.72 77.506 254.606 77.128 254.606 76.7C254.606 76.332 254.692 75.974 254.864 75.626C255.036 75.278 255.308 74.992 255.68 74.768C256.052 74.544 256.538 74.432 257.138 74.432C257.738 74.432 258.22 74.544 258.584 74.768C258.948 74.992 259.212 75.278 259.376 75.626C259.54 75.974 259.622 76.332 259.622 76.7C259.622 77.128 259.52 77.506 259.316 77.834C259.112 78.162 258.824 78.42 258.452 78.608C258.08 78.792 257.642 78.884 257.138 78.884ZM257.138 77.948C257.582 77.948 257.916 77.826 258.14 77.582C258.368 77.334 258.482 77.04 258.482 76.7C258.482 76.332 258.368 76.034 258.14 75.806C257.916 75.578 257.582 75.464 257.138 75.464C256.694 75.464 256.35 75.578 256.106 75.806C255.866 76.034 255.746 76.332 255.746 76.7C255.746 77.04 255.866 77.334 256.106 77.582C256.35 77.826 256.694 77.948 257.138 77.948ZM264.439 83.168C263.851 83.168 263.347 83.038 262.927 82.778C262.511 82.514 262.193 82.148 261.973 81.68C261.753 81.212 261.643 80.668 261.643 80.048C261.643 79.388 261.751 78.768 261.967 78.188C262.187 77.608 262.477 77.078 262.837 76.598C263.201 76.114 263.603 75.69 264.043 75.326C264.483 74.962 264.923 74.664 265.363 74.432L266.143 75.164C265.787 75.34 265.443 75.55 265.111 75.794C264.783 76.034 264.479 76.302 264.199 76.598C263.923 76.89 263.679 77.208 263.467 77.552C263.259 77.896 263.097 78.262 262.981 78.65C262.865 79.034 262.807 79.436 262.807 79.856L262.423 79.208C262.615 78.824 262.909 78.52 263.305 78.296C263.705 78.072 264.171 77.96 264.703 77.96C265.191 77.96 265.623 78.072 265.999 78.296C266.375 78.516 266.669 78.818 266.881 79.202C267.093 79.586 267.199 80.02 267.199 80.504C267.199 81.024 267.083 81.484 266.851 81.884C266.619 82.284 266.295 82.598 265.879 82.826C265.467 83.054 264.987 83.168 264.439 83.168ZM264.439 82.184C264.919 82.184 265.303 82.026 265.591 81.71C265.879 81.39 266.023 81 266.023 80.54C266.023 80.088 265.879 79.71 265.591 79.406C265.303 79.098 264.919 78.944 264.439 78.944C263.959 78.944 263.573 79.098 263.281 79.406C262.989 79.714 262.843 80.096 262.843 80.552C262.843 81.024 262.989 81.414 263.281 81.722C263.573 82.03 263.959 82.184 264.439 82.184Z" fill="#B0B0B0"/>
<circle cx="85" cy="68" r="19" fill="#E8F9EE"/>
<circle cx="85" cy="68" r="7" fill="#0EBC93"/>
<g filter="url(#filter1_d_915_147)">
<rect x="435" y="783" width="249" height="75" rx="12" fill="white"/>
</g>
<path d="M508.608 818.256C508.021 818.256 507.483 818.171 506.992 818C506.512 817.829 506.096 817.6 505.744 817.312C505.392 817.013 505.12 816.667 504.928 816.272C504.736 815.867 504.64 815.429 504.64 814.96C504.64 814.64 504.683 814.341 504.768 814.064C504.864 813.787 504.987 813.536 505.136 813.312C505.296 813.088 505.477 812.891 505.68 812.72C505.883 812.549 506.096 812.405 506.32 812.288V812.16C505.968 811.925 505.659 811.616 505.392 811.232C505.136 810.848 505.008 810.4 505.008 809.888C505.008 809.451 505.099 809.045 505.28 808.672C505.461 808.288 505.712 807.957 506.032 807.68C506.352 807.403 506.731 807.189 507.168 807.04C507.605 806.88 508.085 806.8 508.608 806.8C509.131 806.8 509.611 806.88 510.048 807.04C510.485 807.189 510.864 807.403 511.184 807.68C511.504 807.957 511.755 808.288 511.936 808.672C512.117 809.045 512.208 809.451 512.208 809.888C512.208 810.4 512.075 810.848 511.808 811.232C511.552 811.616 511.248 811.925 510.896 812.16V812.288C511.12 812.405 511.333 812.549 511.536 812.72C511.739 812.891 511.915 813.088 512.064 813.312C512.224 813.536 512.347 813.787 512.432 814.064C512.528 814.341 512.576 814.64 512.576 814.96C512.576 815.429 512.48 815.867 512.288 816.272C512.096 816.667 511.824 817.013 511.472 817.312C511.12 817.6 510.699 817.829 510.208 818C509.728 818.171 509.195 818.256 508.608 818.256ZM508.608 811.376C509.056 811.376 509.429 811.253 509.728 811.008C510.027 810.752 510.176 810.421 510.176 810.016C510.176 809.6 510.027 809.275 509.728 809.04C509.429 808.795 509.056 808.672 508.608 808.672C508.16 808.672 507.787 808.795 507.488 809.04C507.189 809.275 507.04 809.6 507.04 810.016C507.04 810.421 507.189 810.752 507.488 811.008C507.787 811.253 508.16 811.376 508.608 811.376ZM508.608 816.32C509.152 816.32 509.6 816.181 509.952 815.904C510.304 815.616 510.48 815.232 510.48 814.752C510.48 814.528 510.432 814.325 510.336 814.144C510.24 813.952 510.107 813.787 509.936 813.648C509.776 813.509 509.579 813.403 509.344 813.328C509.12 813.253 508.875 813.216 508.608 813.216C508.341 813.216 508.091 813.253 507.856 813.328C507.632 813.403 507.435 813.509 507.264 813.648C507.104 813.787 506.976 813.952 506.88 814.144C506.784 814.325 506.736 814.528 506.736 814.752C506.736 815.232 506.912 815.616 507.264 815.904C507.616 816.181 508.064 816.32 508.608 816.32ZM517.907 818.256C517.491 818.256 517.075 818.197 516.659 818.08C516.253 817.963 515.875 817.781 515.523 817.536C515.171 817.291 514.861 816.987 514.595 816.624C514.339 816.251 514.147 815.808 514.019 815.296L515.923 814.56C516.04 815.093 516.264 815.52 516.595 815.84C516.936 816.16 517.368 816.32 517.891 816.32C518.147 816.32 518.381 816.277 518.595 816.192C518.819 816.096 519.011 815.968 519.171 815.808C519.341 815.648 519.469 815.461 519.555 815.248C519.651 815.024 519.699 814.779 519.699 814.512C519.699 814.256 519.651 814.021 519.555 813.808C519.469 813.584 519.347 813.392 519.187 813.232C519.027 813.061 518.835 812.933 518.611 812.848C518.397 812.752 518.157 812.704 517.891 812.704C517.56 812.704 517.267 812.779 517.011 812.928C516.755 813.067 516.536 813.243 516.355 813.456L514.323 812.528L514.963 807.056H521.123V808.896H516.707L516.291 811.456L516.419 811.488C516.632 811.307 516.893 811.152 517.203 811.024C517.512 810.896 517.885 810.832 518.323 810.832C518.781 810.832 519.219 810.923 519.635 811.104C520.051 811.275 520.419 811.52 520.739 811.84C521.059 812.16 521.315 812.549 521.507 813.008C521.699 813.456 521.795 813.957 521.795 814.512C521.795 815.056 521.699 815.557 521.507 816.016C521.315 816.475 521.043 816.869 520.691 817.2C520.349 817.531 519.939 817.792 519.459 817.984C518.989 818.165 518.472 818.256 517.907 818.256ZM528.022 818.256C527.318 818.256 526.684 818.112 526.118 817.824C525.553 817.525 525.068 817.12 524.662 816.608C524.268 816.096 523.964 815.493 523.75 814.8C523.537 814.096 523.43 813.339 523.43 812.528C523.43 811.717 523.537 810.965 523.75 810.272C523.964 809.568 524.268 808.96 524.662 808.448C525.068 807.936 525.553 807.536 526.118 807.248C526.684 806.949 527.318 806.8 528.022 806.8C528.726 806.8 529.361 806.949 529.926 807.248C530.492 807.536 530.972 807.936 531.366 808.448C531.772 808.96 532.081 809.568 532.294 810.272C532.508 810.965 532.614 811.717 532.614 812.528C532.614 813.339 532.508 814.096 532.294 814.8C532.081 815.493 531.772 816.096 531.366 816.608C530.972 817.12 530.492 817.525 529.926 817.824C529.361 818.112 528.726 818.256 528.022 818.256ZM528.022 816.272C528.406 816.272 528.753 816.181 529.062 816C529.372 815.808 529.633 815.547 529.846 815.216C530.07 814.875 530.236 814.475 530.342 814.016C530.46 813.557 530.518 813.061 530.518 812.528C530.518 811.984 530.46 811.488 530.342 811.04C530.236 810.581 530.07 810.187 529.846 809.856C529.633 809.515 529.372 809.253 529.062 809.072C528.753 808.88 528.406 808.784 528.022 808.784C527.628 808.784 527.276 808.88 526.966 809.072C526.657 809.253 526.396 809.515 526.182 809.856C525.969 810.187 525.804 810.581 525.686 811.04C525.58 811.488 525.526 811.984 525.526 812.528C525.526 813.061 525.58 813.557 525.686 814.016C525.804 814.475 525.969 814.875 526.182 815.216C526.396 815.547 526.657 815.808 526.966 816C527.276 816.181 527.628 816.272 528.022 816.272ZM534.06 818V816.096C534.689 815.477 535.27 814.901 535.804 814.368C536.028 814.144 536.257 813.915 536.492 813.68C536.726 813.445 536.945 813.227 537.148 813.024C537.35 812.821 537.532 812.64 537.692 812.48C537.852 812.309 537.974 812.176 538.06 812.08C538.23 811.877 538.38 811.696 538.508 811.536C538.646 811.376 538.753 811.221 538.828 811.072C538.913 810.912 538.977 810.757 539.02 810.608C539.062 810.448 539.084 810.277 539.084 810.096C539.084 809.744 538.945 809.44 538.668 809.184C538.39 808.917 538.012 808.784 537.532 808.784C537.052 808.784 536.678 808.923 536.412 809.2C536.145 809.467 535.964 809.771 535.868 810.112L533.964 809.328C534.049 809.04 534.188 808.747 534.38 808.448C534.572 808.139 534.817 807.867 535.116 807.632C535.414 807.387 535.766 807.189 536.172 807.04C536.588 806.88 537.052 806.8 537.564 806.8C538.118 806.8 538.62 806.885 539.068 807.056C539.516 807.216 539.894 807.44 540.204 807.728C540.513 808.016 540.753 808.357 540.924 808.752C541.094 809.136 541.18 809.552 541.18 810C541.18 810.683 541.009 811.312 540.668 811.888C540.337 812.453 539.932 812.981 539.452 813.472L538.076 814.848C537.713 815.211 537.302 815.616 536.844 816.064L536.908 816.16H541.34V818H534.06ZM547.03 818V806.544H551.062C551.606 806.544 552.113 806.635 552.582 806.816C553.062 806.987 553.478 807.232 553.83 807.552C554.182 807.872 554.459 808.256 554.662 808.704C554.865 809.141 554.966 809.627 554.966 810.16C554.966 810.704 554.865 811.2 554.662 811.648C554.459 812.085 554.182 812.464 553.83 812.784C553.478 813.104 553.062 813.355 552.582 813.536C552.113 813.707 551.606 813.792 551.062 813.792H549.19V818H547.03ZM551.094 811.744C551.659 811.744 552.086 811.584 552.374 811.264C552.662 810.944 552.806 810.576 552.806 810.16C552.806 809.957 552.769 809.76 552.694 809.568C552.63 809.376 552.523 809.211 552.374 809.072C552.235 808.923 552.059 808.805 551.846 808.72C551.633 808.635 551.382 808.592 551.094 808.592H549.19V811.744H551.094ZM556.403 810.16H558.371V811.248H558.499C558.595 811.056 558.723 810.88 558.883 810.72C559.043 810.56 559.219 810.421 559.411 810.304C559.614 810.187 559.827 810.096 560.051 810.032C560.286 809.968 560.515 809.936 560.739 809.936C561.016 809.936 561.251 809.963 561.443 810.016C561.646 810.069 561.816 810.139 561.955 810.224L561.395 812.128C561.267 812.064 561.123 812.016 560.963 811.984C560.814 811.941 560.627 811.92 560.403 811.92C560.115 811.92 559.854 811.979 559.619 812.096C559.384 812.203 559.182 812.357 559.011 812.56C558.851 812.763 558.723 813.003 558.627 813.28C558.542 813.547 558.499 813.84 558.499 814.16V818H556.403V810.16ZM570.018 816.112C569.655 816.752 569.165 817.269 568.546 817.664C567.938 818.059 567.191 818.256 566.306 818.256C565.709 818.256 565.154 818.155 564.642 817.952C564.141 817.739 563.703 817.445 563.33 817.072C562.957 816.699 562.663 816.261 562.45 815.76C562.247 815.248 562.146 814.688 562.146 814.08C562.146 813.515 562.247 812.981 562.45 812.48C562.653 811.968 562.935 811.525 563.298 811.152C563.661 810.768 564.087 810.464 564.578 810.24C565.079 810.016 565.629 809.904 566.226 809.904C566.855 809.904 567.415 810.011 567.906 810.224C568.397 810.427 568.807 810.715 569.138 811.088C569.469 811.451 569.719 811.883 569.89 812.384C570.061 812.885 570.146 813.429 570.146 814.016C570.146 814.091 570.146 814.155 570.146 814.208C570.135 814.272 570.13 814.331 570.13 814.384C570.119 814.437 570.114 814.496 570.114 814.56H564.21C564.253 814.88 564.338 815.157 564.466 815.392C564.605 815.616 564.77 815.808 564.962 815.968C565.165 816.117 565.383 816.229 565.618 816.304C565.853 816.368 566.093 816.4 566.338 816.4C566.818 816.4 567.213 816.293 567.522 816.08C567.842 815.856 568.093 815.579 568.274 815.248L570.018 816.112ZM568.114 813.072C568.103 812.933 568.055 812.779 567.97 812.608C567.895 812.437 567.778 812.277 567.618 812.128C567.469 811.979 567.277 811.856 567.042 811.76C566.818 811.664 566.546 811.616 566.226 811.616C565.778 811.616 565.383 811.744 565.042 812C564.701 812.256 564.461 812.613 564.322 813.072H568.114ZM574.827 818.256C574.315 818.256 573.856 818.192 573.451 818.064C573.056 817.936 572.71 817.771 572.411 817.568C572.123 817.355 571.878 817.115 571.675 816.848C571.472 816.571 571.318 816.293 571.211 816.016L573.083 815.216C573.264 815.621 573.504 815.925 573.803 816.128C574.112 816.32 574.454 816.416 574.827 816.416C575.211 816.416 575.515 816.347 575.739 816.208C575.963 816.069 576.075 815.904 576.075 815.712C576.075 815.499 575.979 815.328 575.787 815.2C575.606 815.061 575.286 814.939 574.827 814.832L573.723 814.592C573.478 814.539 573.222 814.453 572.955 814.336C572.699 814.219 572.464 814.069 572.251 813.888C572.038 813.707 571.862 813.488 571.723 813.232C571.584 812.976 571.515 812.677 571.515 812.336C571.515 811.952 571.595 811.611 571.755 811.312C571.926 811.013 572.155 810.763 572.443 810.56C572.731 810.347 573.067 810.187 573.451 810.08C573.846 809.963 574.267 809.904 574.715 809.904C575.462 809.904 576.128 810.053 576.715 810.352C577.302 810.64 577.734 811.104 578.011 811.744L576.203 812.48C576.054 812.171 575.835 811.947 575.547 811.808C575.259 811.669 574.971 811.6 574.683 811.6C574.384 811.6 574.123 811.664 573.899 811.792C573.675 811.909 573.563 812.064 573.563 812.256C573.563 812.437 573.654 812.581 573.835 812.688C574.027 812.795 574.283 812.891 574.603 812.976L575.803 813.264C576.603 813.456 577.195 813.765 577.579 814.192C577.974 814.608 578.171 815.104 578.171 815.68C578.171 816.021 578.091 816.347 577.931 816.656C577.771 816.965 577.542 817.243 577.243 817.488C576.955 817.723 576.603 817.909 576.187 818.048C575.782 818.187 575.328 818.256 574.827 818.256ZM580.403 811.952H579.027V810.16H580.403V807.76H582.499V810.16H584.419V811.952H582.499V814.992C582.499 815.173 582.515 815.344 582.547 815.504C582.59 815.653 582.664 815.781 582.771 815.888C582.92 816.059 583.134 816.144 583.411 816.144C583.592 816.144 583.736 816.128 583.843 816.096C583.95 816.053 584.051 816 584.147 815.936L584.739 817.776C584.494 817.893 584.227 817.979 583.939 818.032C583.662 818.096 583.352 818.128 583.011 818.128C582.616 818.128 582.259 818.069 581.939 817.952C581.63 817.824 581.368 817.653 581.155 817.44C580.654 816.96 580.403 816.277 580.403 815.392V811.952ZM589.755 809.904C590.363 809.904 590.918 810.011 591.419 810.224C591.931 810.427 592.368 810.715 592.731 811.088C593.104 811.451 593.392 811.888 593.595 812.4C593.808 812.912 593.915 813.472 593.915 814.08C593.915 814.688 593.808 815.248 593.595 815.76C593.392 816.272 593.104 816.715 592.731 817.088C592.368 817.451 591.931 817.739 591.419 817.952C590.918 818.155 590.363 818.256 589.755 818.256C589.147 818.256 588.587 818.155 588.075 817.952C587.574 817.739 587.136 817.451 586.763 817.088C586.4 816.715 586.112 816.272 585.899 815.76C585.696 815.248 585.595 814.688 585.595 814.08C585.595 813.472 585.696 812.912 585.899 812.4C586.112 811.888 586.4 811.451 586.763 811.088C587.136 810.715 587.574 810.427 588.075 810.224C588.587 810.011 589.147 809.904 589.755 809.904ZM589.755 816.32C590.022 816.32 590.278 816.272 590.523 816.176C590.779 816.069 591.003 815.92 591.195 815.728C591.387 815.536 591.536 815.301 591.643 815.024C591.76 814.747 591.819 814.432 591.819 814.08C591.819 813.728 591.76 813.413 591.643 813.136C591.536 812.859 591.387 812.624 591.195 812.432C591.003 812.24 590.779 812.096 590.523 812C590.278 811.893 590.022 811.84 589.755 811.84C589.478 811.84 589.216 811.893 588.971 812C588.726 812.096 588.507 812.24 588.315 812.432C588.123 812.624 587.968 812.859 587.851 813.136C587.744 813.413 587.691 813.728 587.691 814.08C587.691 814.432 587.744 814.747 587.851 815.024C587.968 815.301 588.123 815.536 588.315 815.728C588.507 815.92 588.726 816.069 588.971 816.176C589.216 816.272 589.478 816.32 589.755 816.32ZM597.233 811.184H597.361C597.607 810.789 597.937 810.48 598.353 810.256C598.769 810.021 599.244 809.904 599.777 809.904C600.268 809.904 600.7 809.984 601.073 810.144C601.447 810.304 601.751 810.533 601.985 810.832C602.231 811.12 602.412 811.472 602.529 811.888C602.657 812.293 602.721 812.747 602.721 813.248V818H600.625V813.504C600.625 812.939 600.497 812.523 600.241 812.256C599.996 811.979 599.633 811.84 599.153 811.84C598.865 811.84 598.609 811.904 598.385 812.032C598.172 812.149 597.985 812.315 597.825 812.528C597.676 812.731 597.559 812.976 597.473 813.264C597.399 813.541 597.361 813.84 597.361 814.16V818H595.265V810.16H597.233V811.184Z" fill="#232323"/>
<path d="M504.96 836V827.6H507.684C508.268 827.6 508.778 827.69 509.214 827.87C509.65 828.05 509.988 828.328 510.228 828.704C510.468 829.08 510.588 829.564 510.588 830.156C510.588 830.732 510.462 831.214 510.21 831.602C509.962 831.99 509.6 832.296 509.124 832.52L511.008 836H509.616L507.912 832.724C507.9 832.724 507.89 832.724 507.882 832.724C507.874 832.724 507.864 832.724 507.852 832.724H506.16V836H504.96ZM506.16 831.704H507.672C508.244 831.704 508.674 831.566 508.962 831.29C509.254 831.014 509.4 830.636 509.4 830.156C509.4 829.668 509.254 829.29 508.962 829.022C508.674 828.754 508.244 828.62 507.672 828.62H506.16V831.704ZM514.188 836.12C513.688 836.12 513.236 835.984 512.832 835.712C512.428 835.44 512.106 835.074 511.866 834.614C511.63 834.154 511.512 833.64 511.512 833.072C511.512 832.532 511.62 832.028 511.836 831.56C512.056 831.092 512.366 830.716 512.766 830.432C513.166 830.144 513.64 830 514.188 830C514.58 830 514.958 830.086 515.322 830.258C515.69 830.426 515.988 830.708 516.216 831.104L515.988 831.26V827H517.068V836H516.108L515.904 834.752L516.18 834.944C516.008 835.332 515.738 835.626 515.37 835.826C515.002 836.022 514.608 836.12 514.188 836.12ZM514.38 835.16C514.652 835.16 514.92 835.09 515.184 834.95C515.452 834.81 515.672 834.588 515.844 834.284C516.02 833.976 516.108 833.572 516.108 833.072C516.108 832.608 516.02 832.22 515.844 831.908C515.672 831.592 515.452 831.356 515.184 831.2C514.92 831.04 514.652 830.96 514.38 830.96C514.012 830.96 513.696 831.052 513.432 831.236C513.168 831.42 512.966 831.672 512.826 831.992C512.686 832.308 512.616 832.668 512.616 833.072C512.616 833.452 512.686 833.8 512.826 834.116C512.966 834.432 513.168 834.686 513.432 834.878C513.696 835.066 514.012 835.16 514.38 835.16ZM518.504 836V834.728H519.8V836H518.504ZM524.295 836V827.6H525.435V836H524.295ZM527.141 836V830.12H527.981L528.197 831.248L527.777 831.068C528.173 830.628 528.559 830.34 528.935 830.204C529.315 830.068 529.685 830 530.045 830C530.905 830 531.519 830.248 531.887 830.744C532.259 831.24 532.445 831.912 532.445 832.76V836H531.365V832.76C531.365 832.136 531.249 831.68 531.017 831.392C530.785 831.104 530.389 830.96 529.829 830.96C529.433 830.96 529.069 831.048 528.737 831.224C528.409 831.396 528.193 831.672 528.089 832.052L528.221 831.392V836H527.141ZM536.34 839C535.804 839 535.324 838.934 534.9 838.802C534.48 838.67 534.148 838.474 533.904 838.214C533.664 837.954 533.544 837.632 533.544 837.248C533.544 836.928 533.634 836.652 533.814 836.42C533.998 836.192 534.248 836.008 534.564 835.868C534.376 835.776 534.232 835.668 534.132 835.544C534.036 835.416 533.988 835.276 533.988 835.124C533.988 834.944 534.042 834.782 534.15 834.638C534.262 834.49 534.44 834.368 534.684 834.272C534.356 834.068 534.104 833.794 533.928 833.45C533.752 833.102 533.664 832.716 533.664 832.292C533.664 831.864 533.76 831.478 533.952 831.134C534.144 830.786 534.42 830.51 534.78 830.306C535.144 830.102 535.58 830 536.088 830C536.36 830 536.616 830.04 536.856 830.12C537.1 830.2 537.324 830.312 537.528 830.456C537.708 830.352 537.92 830.266 538.164 830.198C538.412 830.13 538.688 830.096 538.992 830.096C539.012 830.096 539.028 830.096 539.04 830.096C539.056 830.096 539.072 830.096 539.088 830.096L538.956 830.816C538.908 830.816 538.862 830.816 538.818 830.816C538.774 830.816 538.728 830.816 538.68 830.816C538.64 830.816 538.548 830.822 538.404 830.834C538.26 830.846 538.128 830.868 538.008 830.9C538.172 831.092 538.298 831.308 538.386 831.548C538.478 831.784 538.524 832.032 538.524 832.292C538.524 832.74 538.426 833.142 538.23 833.498C538.038 833.85 537.76 834.13 537.396 834.338C537.032 834.542 536.596 834.644 536.088 834.644C535.944 834.644 535.806 834.636 535.674 834.62C535.542 834.6 535.416 834.572 535.296 834.536C535.112 834.596 535.02 834.7 535.02 834.848C535.02 834.936 535.072 835.014 535.176 835.082C535.28 835.146 535.448 835.196 535.68 835.232L537.252 835.484C537.888 835.584 538.378 835.768 538.722 836.036C539.07 836.304 539.244 836.684 539.244 837.176C539.244 837.584 539.124 837.922 538.884 838.19C538.648 838.462 538.312 838.664 537.876 838.796C537.44 838.932 536.928 839 536.34 839ZM536.436 838.04C536.988 838.04 537.412 837.968 537.708 837.824C538.004 837.684 538.152 837.476 538.152 837.2C538.152 836.984 538.058 836.814 537.87 836.69C537.686 836.566 537.42 836.472 537.072 836.408L535.398 836.126C535.178 836.222 534.986 836.35 534.822 836.51C534.658 836.674 534.576 836.864 534.576 837.08C534.576 837.416 534.744 837.66 535.08 837.812C535.42 837.964 535.872 838.04 536.436 838.04ZM536.088 833.78C536.544 833.78 536.892 833.644 537.132 833.372C537.372 833.096 537.492 832.74 537.492 832.304C537.492 831.884 537.372 831.54 537.132 831.272C536.892 831 536.544 830.864 536.088 830.864C535.632 830.864 535.286 831 535.05 831.272C534.814 831.54 534.696 831.884 534.696 832.304C534.696 832.74 534.814 833.096 535.05 833.372C535.286 833.644 535.632 833.78 536.088 833.78ZM541.572 836.12C541.192 836.12 540.89 836.052 540.666 835.916C540.446 835.776 540.288 835.598 540.192 835.382C540.096 835.166 540.048 834.94 540.048 834.704V827H541.128V834.08C541.128 834.416 541.15 834.668 541.194 834.836C541.238 835.004 541.326 835.116 541.458 835.172C541.594 835.228 541.8 835.256 542.076 835.256L541.92 836.12H541.572ZM545.778 836.12C545.086 836.12 544.504 835.978 544.032 835.694C543.56 835.41 543.202 835.034 542.958 834.566C542.718 834.094 542.598 833.576 542.598 833.012C542.598 832.464 542.71 831.962 542.934 831.506C543.162 831.05 543.49 830.686 543.918 830.414C544.35 830.138 544.87 830 545.478 830C545.966 830 546.4 830.098 546.78 830.294C547.164 830.486 547.464 830.768 547.68 831.14C547.9 831.508 548.01 831.956 548.01 832.484C548.01 832.568 548.006 832.66 547.998 832.76C547.994 832.856 547.982 832.956 547.962 833.06H543.702C543.754 833.604 543.884 834.028 544.092 834.332C544.3 834.636 544.562 834.85 544.878 834.974C545.194 835.098 545.538 835.16 545.91 835.16C546.182 835.16 546.466 835.132 546.762 835.076C547.058 835.02 547.338 834.932 547.602 834.812L547.746 835.664C547.518 835.764 547.24 835.866 546.912 835.97C546.584 836.07 546.206 836.12 545.778 836.12ZM543.798 832.316H546.894C546.894 832.04 546.842 831.8 546.738 831.596C546.634 831.392 546.476 831.236 546.264 831.128C546.052 831.016 545.782 830.96 545.454 830.96C544.974 830.96 544.604 831.08 544.344 831.32C544.088 831.556 543.906 831.888 543.798 832.316ZM550.394 836L548.63 830.12H549.902L551.03 834.812L552.278 830.3H553.394L554.654 834.812L555.782 830.12H557.054L555.278 836H554.066L552.842 831.656L551.606 836H550.394ZM560.543 836.12C559.927 836.12 559.401 835.984 558.965 835.712C558.533 835.436 558.201 835.068 557.969 834.608C557.741 834.144 557.627 833.628 557.627 833.06C557.627 832.492 557.741 831.978 557.969 831.518C558.201 831.054 558.533 830.686 558.965 830.414C559.401 830.138 559.927 830 560.543 830C561.155 830 561.679 830.138 562.115 830.414C562.551 830.686 562.883 831.054 563.111 831.518C563.343 831.978 563.459 832.492 563.459 833.06C563.459 833.628 563.343 834.144 563.111 834.608C562.883 835.068 562.551 835.436 562.115 835.712C561.679 835.984 561.155 836.12 560.543 836.12ZM560.543 835.16C561.127 835.16 561.575 834.976 561.887 834.608C562.199 834.236 562.355 833.72 562.355 833.06C562.355 832.4 562.199 831.886 561.887 831.518C561.575 831.146 561.127 830.96 560.543 830.96C559.963 830.96 559.515 831.146 559.199 831.518C558.887 831.886 558.731 832.4 558.731 833.06C558.731 833.72 558.887 834.236 559.199 834.608C559.515 834.976 559.963 835.16 560.543 835.16ZM567.261 836.12C566.645 836.12 566.119 835.984 565.683 835.712C565.251 835.436 564.919 835.068 564.687 834.608C564.459 834.144 564.345 833.628 564.345 833.06C564.345 832.492 564.459 831.978 564.687 831.518C564.919 831.054 565.251 830.686 565.683 830.414C566.119 830.138 566.645 830 567.261 830C567.873 830 568.397 830.138 568.833 830.414C569.269 830.686 569.601 831.054 569.829 831.518C570.061 831.978 570.177 832.492 570.177 833.06C570.177 833.628 570.061 834.144 569.829 834.608C569.601 835.068 569.269 835.436 568.833 835.712C568.397 835.984 567.873 836.12 567.261 836.12ZM567.261 835.16C567.845 835.16 568.293 834.976 568.605 834.608C568.917 834.236 569.073 833.72 569.073 833.06C569.073 832.4 568.917 831.886 568.605 831.518C568.293 831.146 567.845 830.96 567.261 830.96C566.681 830.96 566.233 831.146 565.917 831.518C565.605 831.886 565.449 832.4 565.449 833.06C565.449 833.72 565.605 834.236 565.917 834.608C566.233 834.976 566.681 835.16 567.261 835.16ZM573.738 836.12C573.238 836.12 572.786 835.984 572.382 835.712C571.978 835.44 571.656 835.074 571.416 834.614C571.18 834.154 571.062 833.64 571.062 833.072C571.062 832.532 571.17 832.028 571.386 831.56C571.606 831.092 571.916 830.716 572.316 830.432C572.716 830.144 573.19 830 573.738 830C574.13 830 574.508 830.086 574.872 830.258C575.24 830.426 575.538 830.708 575.766 831.104L575.538 831.26V827H576.618V836H575.658L575.454 834.752L575.73 834.944C575.558 835.332 575.288 835.626 574.92 835.826C574.552 836.022 574.158 836.12 573.738 836.12ZM573.93 835.16C574.202 835.16 574.47 835.09 574.734 834.95C575.002 834.81 575.222 834.588 575.394 834.284C575.57 833.976 575.658 833.572 575.658 833.072C575.658 832.608 575.57 832.22 575.394 831.908C575.222 831.592 575.002 831.356 574.734 831.2C574.47 831.04 574.202 830.96 573.93 830.96C573.562 830.96 573.246 831.052 572.982 831.236C572.718 831.42 572.516 831.672 572.376 831.992C572.236 832.308 572.166 832.668 572.166 833.072C572.166 833.452 572.236 833.8 572.376 834.116C572.516 834.432 572.718 834.686 572.982 834.878C573.246 835.066 573.562 835.16 573.93 835.16ZM578.823 837.284H578.139L578.571 836H578.151V834.728H579.447V835.88L578.823 837.284ZM583.556 836L584.684 827.6H585.656L587.864 831.764L590.048 827.6H591.032L592.148 836H590.948L590.096 829.148L590.396 829.196L587.876 834.008L585.308 829.196L585.608 829.148L584.756 836H583.556ZM594.868 836.12C594.504 836.12 594.186 836.046 593.914 835.898C593.642 835.75 593.43 835.548 593.278 835.292C593.13 835.036 593.056 834.744 593.056 834.416C593.056 834.084 593.128 833.8 593.272 833.564C593.42 833.324 593.616 833.126 593.86 832.97C594.108 832.81 594.384 832.684 594.688 832.592C594.992 832.496 595.306 832.428 595.63 832.388C595.958 832.344 596.272 832.32 596.572 832.316C596.572 831.756 596.462 831.39 596.242 831.218C596.022 831.046 595.704 830.96 595.288 830.96C595.068 830.96 594.832 830.994 594.58 831.062C594.332 831.13 594.052 831.272 593.74 831.488L593.584 830.612C593.82 830.432 594.114 830.286 594.466 830.174C594.818 830.058 595.188 830 595.576 830C596.072 830 596.472 830.088 596.776 830.264C597.08 830.436 597.302 830.728 597.442 831.14C597.582 831.552 597.652 832.112 597.652 832.82V834.02C597.652 834.3 597.664 834.532 597.688 834.716C597.716 834.896 597.776 835.032 597.868 835.124C597.964 835.212 598.116 835.256 598.324 835.256H598.432L598.264 836.12H598.18C597.832 836.12 597.562 836.086 597.37 836.018C597.182 835.95 597.038 835.852 596.938 835.724C596.838 835.596 596.748 835.44 596.668 835.256C596.448 835.512 596.188 835.72 595.888 835.88C595.588 836.04 595.248 836.12 594.868 836.12ZM595.072 835.256C595.36 835.256 595.638 835.184 595.906 835.04C596.178 834.896 596.4 834.704 596.572 834.464V833.06C596 833.08 595.536 833.136 595.18 833.228C594.828 833.32 594.57 833.458 594.406 833.642C594.242 833.826 594.16 834.064 594.16 834.356C594.16 834.672 594.244 834.902 594.412 835.046C594.584 835.186 594.804 835.256 595.072 835.256ZM599.385 836V830.12H600.465V836H599.385ZM599.385 828.8V827.6H600.465V828.8H599.385ZM602.048 836V830.12H602.888L603.104 831.248L602.684 831.068C603.08 830.628 603.466 830.34 603.842 830.204C604.222 830.068 604.592 830 604.952 830C605.812 830 606.426 830.248 606.794 830.744C607.166 831.24 607.352 831.912 607.352 832.76V836H606.272V832.76C606.272 832.136 606.156 831.68 605.924 831.392C605.692 831.104 605.296 830.96 604.736 830.96C604.34 830.96 603.976 831.048 603.644 831.224C603.316 831.396 603.1 831.672 602.996 832.052L603.128 831.392V836H602.048ZM611.691 836.12C610.999 836.12 610.417 835.978 609.945 835.694C609.473 835.41 609.115 835.034 608.871 834.566C608.631 834.094 608.511 833.576 608.511 833.012C608.511 832.464 608.623 831.962 608.847 831.506C609.075 831.05 609.403 830.686 609.831 830.414C610.263 830.138 610.783 830 611.391 830C611.879 830 612.313 830.098 612.693 830.294C613.077 830.486 613.377 830.768 613.593 831.14C613.813 831.508 613.923 831.956 613.923 832.484C613.923 832.568 613.919 832.66 613.911 832.76C613.907 832.856 613.895 832.956 613.875 833.06H609.615C609.667 833.604 609.797 834.028 610.005 834.332C610.213 834.636 610.475 834.85 610.791 834.974C611.107 835.098 611.451 835.16 611.823 835.16C612.095 835.16 612.379 835.132 612.675 835.076C612.971 835.02 613.251 834.932 613.515 834.812L613.659 835.664C613.431 835.764 613.153 835.866 612.825 835.97C612.497 836.07 612.119 836.12 611.691 836.12ZM609.711 832.316H612.807C612.807 832.04 612.755 831.8 612.651 831.596C612.547 831.392 612.389 831.236 612.177 831.128C611.965 831.016 611.695 830.96 611.367 830.96C610.887 830.96 610.517 831.08 610.257 831.32C610.001 831.556 609.819 831.888 609.711 832.316ZM619.687 836L618.907 835.268C619.239 835.096 619.561 834.896 619.873 834.668C620.189 834.436 620.483 834.178 620.755 833.894C621.027 833.606 621.265 833.298 621.469 832.97C621.673 832.638 621.833 832.286 621.949 831.914C622.065 831.538 622.123 831.148 622.123 830.744L622.507 831.392C622.315 831.776 622.021 832.08 621.625 832.304C621.229 832.528 620.763 832.64 620.227 832.64C619.739 832.64 619.307 832.53 618.931 832.31C618.555 832.086 618.261 831.782 618.049 831.398C617.837 831.014 617.731 830.58 617.731 830.096C617.731 829.576 617.847 829.116 618.079 828.716C618.311 828.316 618.633 828.002 619.045 827.774C619.461 827.546 619.943 827.432 620.491 827.432C621.079 827.432 621.581 827.564 621.997 827.828C622.417 828.088 622.737 828.452 622.957 828.92C623.177 829.388 623.287 829.932 623.287 830.552C623.287 831.192 623.181 831.794 622.969 832.358C622.757 832.918 622.475 833.432 622.123 833.9C621.775 834.364 621.389 834.774 620.965 835.13C620.541 835.486 620.115 835.776 619.687 836ZM620.491 831.656C620.971 831.656 621.357 831.502 621.649 831.194C621.941 830.886 622.087 830.504 622.087 830.048C622.087 829.572 621.941 829.182 621.649 828.878C621.357 828.57 620.971 828.416 620.491 828.416C620.011 828.416 619.627 828.574 619.339 828.89C619.051 829.206 618.907 829.596 618.907 830.06C618.907 830.508 619.051 830.886 619.339 831.194C619.627 831.502 620.011 831.656 620.491 831.656ZM627.792 836.168C627.192 836.168 626.674 836.06 626.238 835.844C625.802 835.624 625.466 835.322 625.23 834.938C624.994 834.55 624.876 834.104 624.876 833.6C624.876 833.08 624.998 832.626 625.242 832.238C625.486 831.85 625.826 831.548 626.262 831.332C626.702 831.116 627.212 831.008 627.792 831.008C628.372 831.008 628.88 831.116 629.316 831.332C629.756 831.548 630.098 831.85 630.342 832.238C630.586 832.626 630.708 833.08 630.708 833.6C630.708 834.104 630.588 834.55 630.348 834.938C630.112 835.322 629.776 835.624 629.34 835.844C628.904 836.06 628.388 836.168 627.792 836.168ZM627.792 835.136C628.344 835.136 628.772 834.996 629.076 834.716C629.38 834.432 629.532 834.06 629.532 833.6C629.532 833.12 629.38 832.724 629.076 832.412C628.772 832.1 628.344 831.944 627.792 831.944C627.24 831.944 626.812 832.1 626.508 832.412C626.204 832.724 626.052 833.12 626.052 833.6C626.052 834.06 626.204 834.432 626.508 834.716C626.812 834.996 627.24 835.136 627.792 835.136ZM627.792 831.884C627.324 831.884 626.898 831.792 626.514 831.608C626.134 831.42 625.83 831.162 625.602 830.834C625.374 830.506 625.26 830.128 625.26 829.7C625.26 829.332 625.346 828.974 625.518 828.626C625.69 828.278 625.962 827.992 626.334 827.768C626.706 827.544 627.192 827.432 627.792 827.432C628.392 827.432 628.874 827.544 629.238 827.768C629.602 827.992 629.866 828.278 630.03 828.626C630.194 828.974 630.276 829.332 630.276 829.7C630.276 830.128 630.174 830.506 629.97 830.834C629.766 831.162 629.478 831.42 629.106 831.608C628.734 831.792 628.296 831.884 627.792 831.884ZM627.792 830.948C628.236 830.948 628.57 830.826 628.794 830.582C629.022 830.334 629.136 830.04 629.136 829.7C629.136 829.332 629.022 829.034 628.794 828.806C628.57 828.578 628.236 828.464 627.792 828.464C627.348 828.464 627.004 828.578 626.76 828.806C626.52 829.034 626.4 829.332 626.4 829.7C626.4 830.04 626.52 830.334 626.76 830.582C627.004 830.826 627.348 830.948 627.792 830.948ZM634.433 836.168C633.973 836.168 633.543 836.108 633.143 835.988C632.747 835.868 632.377 835.716 632.033 835.532L632.309 834.476C632.653 834.672 632.991 834.832 633.323 834.956C633.659 835.076 634.033 835.136 634.445 835.136C634.969 835.136 635.377 835.006 635.669 834.746C635.965 834.482 636.113 834.144 636.113 833.732C636.113 833.268 635.953 832.896 635.633 832.616C635.313 832.336 634.813 832.196 634.133 832.196H633.605V831.164H634.133C634.649 831.164 635.057 831.042 635.357 830.798C635.661 830.554 635.813 830.22 635.813 829.796C635.813 829.344 635.697 829.01 635.465 828.794C635.233 828.574 634.901 828.464 634.469 828.464C634.129 828.464 633.811 828.53 633.515 828.662C633.219 828.794 632.929 828.956 632.645 829.148L632.453 827.984C632.761 827.808 633.093 827.672 633.449 827.576C633.809 827.48 634.201 827.432 634.625 827.432C635.145 827.432 635.585 827.526 635.945 827.714C636.309 827.902 636.585 828.164 636.773 828.5C636.965 828.832 637.061 829.216 637.061 829.652C637.061 830.196 636.901 830.656 636.581 831.032C636.265 831.404 635.837 831.648 635.297 831.764V831.488C635.933 831.612 636.429 831.854 636.785 832.214C637.145 832.57 637.325 833.064 637.325 833.696C637.325 834.208 637.197 834.65 636.941 835.022C636.689 835.39 636.345 835.674 635.909 835.874C635.473 836.07 634.981 836.168 634.433 836.168ZM641.801 836.168C641.201 836.168 640.683 836.06 640.247 835.844C639.811 835.624 639.475 835.322 639.239 834.938C639.003 834.55 638.885 834.104 638.885 833.6C638.885 833.08 639.007 832.626 639.251 832.238C639.495 831.85 639.835 831.548 640.271 831.332C640.711 831.116 641.221 831.008 641.801 831.008C642.381 831.008 642.889 831.116 643.325 831.332C643.765 831.548 644.107 831.85 644.351 832.238C644.595 832.626 644.717 833.08 644.717 833.6C644.717 834.104 644.597 834.55 644.357 834.938C644.121 835.322 643.785 835.624 643.349 835.844C642.913 836.06 642.397 836.168 641.801 836.168ZM641.801 835.136C642.353 835.136 642.781 834.996 643.085 834.716C643.389 834.432 643.541 834.06 643.541 833.6C643.541 833.12 643.389 832.724 643.085 832.412C642.781 832.1 642.353 831.944 641.801 831.944C641.249 831.944 640.821 832.1 640.517 832.412C640.213 832.724 640.061 833.12 640.061 833.6C640.061 834.06 640.213 834.432 640.517 834.716C640.821 834.996 641.249 835.136 641.801 835.136ZM641.801 831.884C641.333 831.884 640.907 831.792 640.523 831.608C640.143 831.42 639.839 831.162 639.611 830.834C639.383 830.506 639.269 830.128 639.269 829.7C639.269 829.332 639.355 828.974 639.527 828.626C639.699 828.278 639.971 827.992 640.343 827.768C640.715 827.544 641.201 827.432 641.801 827.432C642.401 827.432 642.883 827.544 643.247 827.768C643.611 827.992 643.875 828.278 644.039 828.626C644.203 828.974 644.285 829.332 644.285 829.7C644.285 830.128 644.183 830.506 643.979 830.834C643.775 831.162 643.487 831.42 643.115 831.608C642.743 831.792 642.305 831.884 641.801 831.884ZM641.801 830.948C642.245 830.948 642.579 830.826 642.803 830.582C643.031 830.334 643.145 830.04 643.145 829.7C643.145 829.332 643.031 829.034 642.803 828.806C642.579 828.578 642.245 828.464 641.801 828.464C641.357 828.464 641.013 828.578 640.769 828.806C640.529 829.034 640.409 829.332 640.409 829.7C640.409 830.04 640.529 830.334 640.769 830.582C641.013 830.826 641.357 830.948 641.801 830.948ZM649.751 836.168C649.011 836.168 648.377 835.978 647.849 835.598C647.321 835.218 646.915 834.694 646.631 834.026C646.351 833.358 646.211 832.592 646.211 831.728C646.211 830.864 646.361 830.11 646.661 829.466C646.961 828.822 647.377 828.322 647.909 827.966C648.441 827.61 649.055 827.432 649.751 827.432C650.463 827.432 651.083 827.61 651.611 827.966C652.143 828.322 652.555 828.822 652.847 829.466C653.143 830.11 653.291 830.864 653.291 831.728C653.291 832.592 653.151 833.358 652.871 834.026C652.591 834.694 652.187 835.218 651.659 835.598C651.131 835.978 650.495 836.168 649.751 836.168ZM649.751 835.136C650.247 835.136 650.667 835.004 651.011 834.74C651.359 834.476 651.623 834.09 651.803 833.582C651.987 833.074 652.079 832.456 652.079 831.728C652.079 830.636 651.867 829.82 651.443 829.28C651.023 828.736 650.459 828.464 649.751 828.464C649.079 828.464 648.523 828.736 648.083 829.28C647.643 829.82 647.423 830.636 647.423 831.728C647.423 832.456 647.513 833.074 647.693 833.582C647.877 834.09 648.141 834.476 648.485 834.74C648.833 835.004 649.255 835.136 649.751 835.136Z" fill="#B0B0B0"/>
<circle cx="470" cy="821" r="19" fill="#E5E5FE"/>
<path d="M478.62 817.45C477.57 812.83 473.54 810.75 470 810.75C470 810.75 470 810.75 469.99 810.75C466.46 810.75 462.42 812.82 461.37 817.44C460.2 822.6 463.36 826.97 466.22 829.72C467.28 830.74 468.64 831.25 470 831.25C471.36 831.25 472.72 830.74 473.77 829.72C476.63 826.97 479.79 822.61 478.62 817.45ZM470 822.46C468.26 822.46 466.85 821.05 466.85 819.31C466.85 817.57 468.26 816.16 470 816.16C471.74 816.16 473.15 817.57 473.15 819.31C473.15 821.05 471.74 822.46 470 822.46Z" fill="#5251FA"/>
<circle cx="654" cy="753" r="19" fill="#E5E5FE" fill-opacity="0.7"/>
<path d="M662.62 749.45C661.57 744.83 657.54 742.75 654 742.75C654 742.75 654 742.75 653.99 742.75C650.46 742.75 646.42 744.82 645.37 749.44C644.2 754.6 647.36 758.97 650.22 761.72C651.28 762.74 652.64 763.25 654 763.25C655.36 763.25 656.72 762.74 657.77 761.72C660.63 758.97 663.79 754.61 662.62 749.45ZM654 754.46C652.26 754.46 650.85 753.05 650.85 751.31C650.85 749.57 652.26 748.16 654 748.16C655.74 748.16 657.15 749.57 657.15 751.31C657.15 753.05 655.74 754.46 654 754.46Z" fill="#5251FA"/>
<circle cx="371.86" cy="519.861" r="35.3633" transform="rotate(71.3989 371.86 519.861)" fill="#C6B8FB" fill-opacity="0.4"/>
<circle cx="371.858" cy="519.862" r="26.5225" transform="rotate(71.3989 371.858 519.862)" fill="#8168DD" fill-opacity="0.4"/>
<g filter="url(#filter2_d_915_147)">
<path d="M383.599 517.413C384.638 516.512 384.063 514.805 382.691 514.716L356.106 512.999L355.42 514.382L363.12 522.804L362.079 534.168L363.462 534.854L383.599 517.413Z" fill="#FDFDFD"/>
</g>
<defs>
<filter id="filter0_d_915_147" x="0" y="0" width="349" height="175" filterUnits="userSpaceOnUse" color-interpolation-filters="sRGB">
<feFlood flood-opacity="0" result="BackgroundImageFix"/>
<feColorMatrix in="SourceAlpha" type="matrix" values="0 0 0 0 0 0 0 0 0 0 0 0 0 0 0 0 0 0 127 0" result="hardAlpha"/>
<feOffset dy="20"/>
<feGaussianBlur stdDeviation="25"/>
<feComposite in2="hardAlpha" operator="out"/>
<feColorMatrix type="matrix" values="0 0 0 0 0.86125 0 0 0 0 0.87883 0 0 0 0 0.975 0 0 0 0.5 0"/>
<feBlend mode="normal" in2="BackgroundImageFix" result="effect1_dropShadow_915_147"/>
<feBlend mode="normal" in="SourceGraphic" in2="effect1_dropShadow_915_147" result="shape"/>
</filter>
<filter id="filter1_d_915_147" x="385" y="753" width="349" height="175" filterUnits="userSpaceOnUse" color-interpolation-filters="sRGB">
<feFlood flood-opacity="0" result="BackgroundImageFix"/>
<feColorMatrix in="SourceAlpha" type="matrix" values="0 0 0 0 0 0 0 0 0 0 0 0 0 0 0 0 0 0 127 0" result="hardAlpha"/>
<feOffset dy="20"/>
<feGaussianBlur stdDeviation="25"/>
<feComposite in2="hardAlpha" operator="out"/>
<feColorMatrix type="matrix" values="0 0 0 0 0.86125 0 0 0 0 0.87883 0 0 0 0 0.975 0 0 0 0.5 0"/>
<feBlend mode="normal" in2="BackgroundImageFix" result="effect1_dropShadow_915_147"/>
<feBlend mode="normal" in="SourceGraphic" in2="effect1_dropShadow_915_147" result="shape"/>
</filter>
<filter id="filter2_d_915_147" x="349.271" y="512.999" width="41.0103" height="34.1534" filterUnits="userSpaceOnUse" color-interpolation-filters="sRGB">
<feFlood flood-opacity="0" result="BackgroundImageFix"/>
<feColorMatrix in="SourceAlpha" type="matrix" values="0 0 0 0 0 0 0 0 0 0 0 0 0 0 0 0 0 0 127 0" result="hardAlpha"/>
<feOffset dy="6.1492"/>
<feGaussianBlur stdDeviation="3.0746"/>
<feComposite in2="hardAlpha" operator="out"/>
<feColorMatrix type="matrix" values="0 0 0 0 0 0 0 0 0 0 0 0 0 0 0 0 0 0 0.25 0"/>
<feBlend mode="normal" in2="BackgroundImageFix" result="effect1_dropShadow_915_147"/>
<feBlend mode="normal" in="SourceGraphic" in2="effect1_dropShadow_915_147" result="shape"/>
</filter>
</defs>
</svg>
