<svg width="275" height="7" viewBox="0 0 275 7" fill="none" xmlns="http://www.w3.org/2000/svg">
<path d="M-20 0H11.5L1.5 7H-30L-20 0Z" fill="black"/>
<path d="M22 0H53.5L43.5 7H12L22 0Z" fill="black"/>
<path d="M64 0H95.5L85.5 7H54L64 0Z" fill="black"/>
<path d="M106 0H137.5L127.5 7H96L106 0Z" fill="black"/>
<path d="M148 0H179.5L169.5 7H138L148 0Z" fill="black"/>
<path d="M190 0H221.5L211.5 7H180L190 0Z" fill="black"/>
<path d="M232 0H263.5L253.5 7H222L232 0Z" fill="black"/>
<path d="M274 0H305.5L295.5 7H264L274 0Z" fill="black"/>
</svg>
