<svg width="168" height="176" viewBox="0 0 168 176" fill="none" xmlns="http://www.w3.org/2000/svg">
<g filter="url(#filter0_dd_3046_71)">
<rect x="77" y="82" width="3" height="86" rx="1.5" fill="#73FFA7"/>
<rect x="84" y="126" width="3" height="42" rx="1.5" fill="#22C55E"/>
<rect x="91" y="110" width="3" height="58" rx="1.5" fill="#22C55E"/>
<rect x="98" y="144" width="3" height="24" rx="1.5" fill="#22C55E"/>
<rect x="105" y="105" width="3" height="63" rx="1.5" fill="#22C55E"/>
<rect x="112" y="119" width="3" height="49" rx="1.5" fill="#22C55E"/>
<rect x="119" y="87" width="3" height="81" rx="1.5" fill="#22C55E"/>
<rect x="126" y="78" width="3" height="90" rx="1.5" fill="#22C55E"/>
<rect x="133" y="131" width="3" height="37" rx="1.5" fill="#22C55E"/>
<rect x="140" y="99" width="3" height="69" rx="1.5" fill="#22C55E"/>
<rect x="147" y="141" width="3" height="27" rx="1.5" fill="#22C55E"/>
<rect x="154" y="73" width="3" height="95" rx="1.5" fill="#22C55E"/>
<rect x="161" y="129" width="3" height="39" rx="1.5" fill="#22C55E"/>
<g filter="url(#filter1_d_3046_71)">
<rect x="45" y="30" width="66" height="24" rx="5" fill="white"/>
<path d="M56.9391 38.7273V46H55.4015V40.1868H55.3588L53.6934 41.2308V39.8672L55.4938 38.7273H56.9391ZM62.5091 42.8466V46H60.9963V38.7273H62.4664V41.5078H62.5304C62.6535 41.1858 62.8523 40.9337 63.127 40.7514C63.4016 40.5668 63.746 40.4744 64.1603 40.4744C64.5391 40.4744 64.8694 40.5573 65.1511 40.723C65.4352 40.8864 65.6554 41.1219 65.8116 41.4297C65.9702 41.7351 66.0484 42.1009 66.046 42.527V46H64.5332V42.7969C64.5356 42.4607 64.4503 42.1991 64.2775 42.0121C64.1071 41.825 63.868 41.7315 63.5602 41.7315C63.3542 41.7315 63.1719 41.7753 63.0133 41.8629C62.8571 41.9505 62.734 42.0784 62.644 42.2464C62.5564 42.4122 62.5114 42.6122 62.5091 42.8466ZM72.3883 46.1598C71.7775 46.1574 71.252 46.0071 70.8116 45.7088C70.3736 45.4105 70.0363 44.9785 69.7995 44.4126C69.5652 43.8468 69.4492 43.1662 69.4515 42.3707C69.4515 41.5777 69.5687 40.9018 69.8031 40.343C70.0398 39.7843 70.3772 39.3594 70.8152 39.0682C71.2555 38.7746 71.7799 38.6278 72.3883 38.6278C72.9967 38.6278 73.5199 38.7746 73.9579 39.0682C74.3983 39.3617 74.7368 39.7879 74.9735 40.3466C75.2103 40.9029 75.3275 41.5777 75.3251 42.3707C75.3251 43.1686 75.2067 43.8504 74.97 44.4162C74.7356 44.982 74.3994 45.4141 73.9615 45.7124C73.5235 46.0107 72.9991 46.1598 72.3883 46.1598ZM72.3883 44.8849C72.805 44.8849 73.1376 44.6754 73.3862 44.2564C73.6348 43.8374 73.7579 43.2088 73.7555 42.3707C73.7555 41.8191 73.6987 41.3598 73.585 40.9929C73.4738 40.6259 73.3152 40.3501 73.1092 40.1655C72.9056 39.9808 72.6653 39.8885 72.3883 39.8885C71.974 39.8885 71.6426 40.0956 71.394 40.5099C71.1454 40.9242 71.0199 41.5445 71.0176 42.3707C71.0176 42.9295 71.0732 43.3958 71.1845 43.7699C71.2981 44.1416 71.4579 44.4209 71.6639 44.608C71.8699 44.7926 72.1113 44.8849 72.3883 44.8849ZM79.0529 38.6278C79.427 38.6278 79.7868 38.6906 80.1325 38.8161C80.4805 38.9415 80.7906 39.1416 81.0629 39.4162C81.3375 39.6908 81.5541 40.0554 81.7127 40.5099C81.8737 40.9621 81.9554 41.5173 81.9577 42.1754C81.9577 42.7933 81.8879 43.3449 81.7482 43.8303C81.6109 44.3132 81.4132 44.724 81.1552 45.0625C80.8971 45.401 80.5858 45.6591 80.2212 45.8366C79.8567 46.0118 79.4495 46.0994 78.9996 46.0994C78.5143 46.0994 78.0858 46.0059 77.7141 45.8189C77.3424 45.6295 77.043 45.3726 76.8157 45.0483C76.5908 44.7216 76.4547 44.3546 76.4073 43.9474H77.9237C77.9828 44.2126 78.1071 44.4186 78.2965 44.5653C78.4859 44.7098 78.7203 44.782 78.9996 44.782C79.4731 44.782 79.833 44.576 80.0792 44.1641C80.3254 43.7498 80.4497 43.1828 80.4521 42.4631H80.4023C80.2934 42.6761 80.1467 42.8596 79.962 43.0135C79.7773 43.165 79.5655 43.2822 79.3263 43.3651C79.0896 43.4479 78.8375 43.4893 78.57 43.4893C78.1415 43.4893 77.7591 43.3887 77.4229 43.1875C77.0868 42.9863 76.8216 42.7093 76.6275 42.3565C76.4334 42.0038 76.3363 41.6013 76.3363 41.1491C76.3339 40.6615 76.4464 40.227 76.6737 39.8459C76.9009 39.4647 77.2182 39.1664 77.6254 38.951C78.0349 38.7332 78.5108 38.6255 79.0529 38.6278ZM79.0636 39.8352C78.8245 39.8352 78.6114 39.892 78.4244 40.0057C78.2397 40.1193 78.0929 40.272 77.984 40.4638C77.8775 40.6555 77.8254 40.8698 77.8278 41.1065C77.8278 41.3456 77.8799 41.5611 77.984 41.7528C78.0906 41.9422 78.235 42.0937 78.4173 42.2074C78.6019 42.3187 78.8126 42.3743 79.0494 42.3743C79.2269 42.3743 79.3915 42.3411 79.543 42.2749C79.6945 42.2086 79.8259 42.1174 79.9371 42.0014C80.0508 41.883 80.1396 41.7469 80.2035 41.593C80.2674 41.4392 80.2994 41.2758 80.2994 41.103C80.297 40.8733 80.2425 40.6626 80.136 40.4709C80.0295 40.2791 79.8827 40.1252 79.6957 40.0092C79.5086 39.8932 79.2979 39.8352 79.0636 39.8352ZM85.3517 46V40.5455H86.7935V41.5078H86.8574C86.9711 41.1882 87.1605 40.9361 87.4256 40.7514C87.6908 40.5668 88.008 40.4744 88.3773 40.4744C88.7514 40.4744 89.0698 40.5679 89.3326 40.755C89.5953 40.9396 89.7705 41.1906 89.8581 41.5078H89.915C90.0262 41.1953 90.2275 40.9455 90.5186 40.7585C90.8122 40.5691 91.159 40.4744 91.5591 40.4744C92.0681 40.4744 92.4812 40.6366 92.7985 40.9609C93.1181 41.2829 93.2779 41.7398 93.2779 42.3317V46H91.7686V42.63C91.7686 42.3269 91.6882 42.0997 91.5272 41.9482C91.3662 41.7966 91.165 41.7209 90.9235 41.7209C90.6489 41.7209 90.4346 41.8085 90.2807 41.9837C90.1268 42.1565 90.0499 42.3849 90.0499 42.669V46H88.5833V42.598C88.5833 42.3305 88.5063 42.1174 88.3525 41.9588C88.2009 41.8002 88.0009 41.7209 87.7523 41.7209C87.5842 41.7209 87.4327 41.7635 87.2978 41.8487C87.1652 41.9316 87.0598 42.0488 86.9817 42.2003C86.9036 42.3494 86.8645 42.5246 86.8645 42.7259V46H85.3517ZM94.4728 46V40.5455H95.9856V46H94.4728ZM95.2328 39.8423C95.0079 39.8423 94.8149 39.7678 94.6539 39.6186C94.4953 39.4671 94.416 39.286 94.416 39.0753C94.416 38.867 94.4953 38.6882 94.6539 38.5391C94.8149 38.3875 95.0079 38.3118 95.2328 38.3118C95.4577 38.3118 95.6494 38.3875 95.8081 38.5391C95.969 38.6882 96.0495 38.867 96.0495 39.0753C96.0495 39.286 95.969 39.4671 95.8081 39.6186C95.6494 39.7678 95.4577 39.8423 95.2328 39.8423ZM98.7102 42.8466V46H97.1974V40.5455H98.6392V41.5078H98.7031C98.8239 41.1906 99.0263 40.9396 99.3104 40.755C99.5945 40.5679 99.9389 40.4744 100.344 40.4744C100.723 40.4744 101.053 40.5573 101.335 40.723C101.616 40.8887 101.835 41.1255 101.991 41.4332C102.148 41.7386 102.226 42.1032 102.226 42.527V46H100.713V42.7969C100.715 42.4631 100.63 42.2027 100.457 42.0156C100.285 41.8262 100.047 41.7315 99.7436 41.7315C99.54 41.7315 99.3601 41.7753 99.2038 41.8629C99.05 41.9505 98.9292 42.0784 98.8416 42.2464C98.7564 42.4122 98.7126 42.6122 98.7102 42.8466Z" fill="#16A34A"/>
<path fillRule="evenodd" clip-rule="evenodd" d="M82 54H74L78 58L82 54Z" fill="white"/>
</g>
</g>
<defs>
<filter id="filter0_dd_3046_71" x="41" y="30" width="127" height="146" filterUnits="userSpaceOnUse" color-interpolation-filters="sRGB">
<feFlood flood-opacity="0" result="BackgroundImageFix"/>
<feColorMatrix in="SourceAlpha" type="matrix" values="0 0 0 0 0 0 0 0 0 0 0 0 0 0 0 0 0 0 127 0" result="hardAlpha"/>
<feOffset dy="4"/>
<feGaussianBlur stdDeviation="2"/>
<feComposite in2="hardAlpha" operator="out"/>
<feColorMatrix type="matrix" values="0 0 0 0 0 0 0 0 0 0 0 0 0 0 0 0 0 0 0.25 0"/>
<feBlend mode="normal" in2="BackgroundImageFix" result="effect1_dropShadow_3046_71"/>
<feColorMatrix in="SourceAlpha" type="matrix" values="0 0 0 0 0 0 0 0 0 0 0 0 0 0 0 0 0 0 127 0" result="hardAlpha"/>
<feOffset dy="4"/>
<feGaussianBlur stdDeviation="2"/>
<feComposite in2="hardAlpha" operator="out"/>
<feColorMatrix type="matrix" values="0 0 0 0 0 0 0 0 0 0 0 0 0 0 0 0 0 0 0.25 0"/>
<feBlend mode="normal" in2="effect1_dropShadow_3046_71" result="effect2_dropShadow_3046_71"/>
<feBlend mode="normal" in="SourceGraphic" in2="effect2_dropShadow_3046_71" result="shape"/>
</filter>
<filter id="filter1_d_3046_71" x="0" y="0" width="156" height="118" filterUnits="userSpaceOnUse" color-interpolation-filters="sRGB">
<feFlood flood-opacity="0" result="BackgroundImageFix"/>
<feColorMatrix in="SourceAlpha" type="matrix" values="0 0 0 0 0 0 0 0 0 0 0 0 0 0 0 0 0 0 127 0" result="hardAlpha"/>
<feOffset dy="15"/>
<feGaussianBlur stdDeviation="22.5"/>
<feColorMatrix type="matrix" values="0 0 0 0 0.133333 0 0 0 0 0.772549 0 0 0 0 0.368627 0 0 0 0.25 0"/>
<feBlend mode="normal" in2="BackgroundImageFix" result="effect1_dropShadow_3046_71"/>
<feBlend mode="normal" in="SourceGraphic" in2="effect1_dropShadow_3046_71" result="shape"/>
</filter>
</defs>
</svg>
