<svg width="250" height="54" viewBox="0 0 250 54" fill="none" xmlns="http://www.w3.org/2000/svg">
<rect width="250" height="54" rx="27" fill="#F0F2F5"/>
<g filter="url(#filter0_d_2911_617)">
<rect x="8" y="8" width="121" height="38" rx="19" fill="white"/>
</g>
<path d="M61.7053 31V23.7273H63.243V29.7322H66.3609V31H61.7053ZM67.3508 31V25.5455H68.8635V31H67.3508ZM68.1107 24.8423C67.8858 24.8423 67.6929 24.7678 67.5319 24.6186C67.3733 24.4671 67.2939 24.286 67.2939 24.0753C67.2939 23.867 67.3733 23.6882 67.5319 23.5391C67.6929 23.3875 67.8858 23.3118 68.1107 23.3118C68.3356 23.3118 68.5274 23.3875 68.686 23.5391C68.847 23.6882 68.9275 23.867 68.9275 24.0753C68.9275 24.286 68.847 24.4671 68.686 24.6186C68.5274 24.7678 68.3356 24.8423 68.1107 24.8423ZM72.5328 33.1591C72.0427 33.1591 71.6225 33.0916 71.2721 32.9567C70.9241 32.8241 70.6471 32.643 70.4411 32.4134C70.2352 32.1837 70.1014 31.9257 70.0399 31.6392L71.439 31.451C71.4816 31.5599 71.5491 31.6617 71.6414 31.7564C71.7338 31.8511 71.8557 31.9268 72.0072 31.9837C72.1611 32.0429 72.3481 32.0724 72.5683 32.0724C72.8973 32.0724 73.1684 31.992 73.3815 31.831C73.5969 31.6723 73.7046 31.406 73.7046 31.032V30.0341H73.6407C73.5744 30.1856 73.475 30.3288 73.3424 30.4638C73.2098 30.5987 73.0394 30.7088 72.8311 30.794C72.6227 30.8793 72.3741 30.9219 72.0853 30.9219C71.6758 30.9219 71.3029 30.8272 70.9667 30.6378C70.6329 30.446 70.3666 30.1536 70.1677 29.7607C69.9712 29.3653 69.873 28.8658 69.873 28.2621C69.873 27.6442 69.9736 27.1281 70.1748 26.7138C70.376 26.2995 70.6436 25.9893 70.9774 25.7834C71.3135 25.5774 71.6817 25.4744 72.0818 25.4744C72.3872 25.4744 72.6428 25.5265 72.8488 25.6307C73.0548 25.7325 73.2205 25.8603 73.346 26.0142C73.4738 26.1657 73.5721 26.3149 73.6407 26.4616H73.6975V25.5455H75.1997V31.0533C75.1997 31.5173 75.086 31.9055 74.8588 32.218C74.6315 32.5305 74.3166 32.7649 73.9142 32.9212C73.5141 33.0798 73.0536 33.1591 72.5328 33.1591ZM72.5647 29.7855C72.8086 29.7855 73.0145 29.7251 73.1826 29.6044C73.3531 29.4813 73.4833 29.3061 73.5732 29.0788C73.6656 28.8492 73.7117 28.5746 73.7117 28.255C73.7117 27.9354 73.6668 27.6584 73.5768 27.424C73.4868 27.1873 73.3566 27.0038 73.1862 26.8736C73.0157 26.7434 72.8086 26.6783 72.5647 26.6783C72.3161 26.6783 72.1066 26.7457 71.9362 26.8807C71.7657 27.0133 71.6367 27.1979 71.5491 27.4347C71.4615 27.6714 71.4177 27.9448 71.4177 28.255C71.4177 28.5698 71.4615 28.8421 71.5491 29.0717C71.6391 29.299 71.7681 29.4754 71.9362 29.6009C72.1066 29.724 72.3161 29.7855 72.5647 29.7855ZM77.9163 27.8466V31H76.4035V23.7273H77.8737V26.5078H77.9376C78.0607 26.1858 78.2596 25.9337 78.5342 25.7514C78.8088 25.5668 79.1533 25.4744 79.5676 25.4744C79.9463 25.4744 80.2766 25.5573 80.5583 25.723C80.8424 25.8864 81.0626 26.1219 81.2188 26.4297C81.3775 26.7351 81.4556 27.1009 81.4532 27.527V31H79.9404V27.7969C79.9428 27.4607 79.8576 27.1991 79.6847 27.0121C79.5143 26.825 79.2752 26.7315 78.9674 26.7315C78.7615 26.7315 78.5792 26.7753 78.4205 26.8629C78.2643 26.9505 78.1412 27.0784 78.0512 27.2464C77.9636 27.4122 77.9186 27.6122 77.9163 27.8466ZM85.545 25.5455V26.6818H82.2602V25.5455H85.545ZM83.0059 24.2386H84.5187V29.3239C84.5187 29.4635 84.54 29.5724 84.5827 29.6506C84.6253 29.7263 84.6845 29.7796 84.7602 29.8104C84.8383 29.8411 84.9283 29.8565 85.0301 29.8565C85.1011 29.8565 85.1721 29.8506 85.2432 29.8388C85.3142 29.8246 85.3686 29.8139 85.4065 29.8068L85.6444 30.9325C85.5687 30.9562 85.4622 30.9834 85.3248 31.0142C85.1875 31.0473 85.0206 31.0675 84.8241 31.0746C84.4595 31.0888 84.1399 31.0402 83.8653 30.929C83.5931 30.8177 83.3812 30.6449 83.2297 30.4105C83.0782 30.1761 83.0036 29.8802 83.0059 29.5227V24.2386Z" fill="#9AA4B5"/>
<path d="M191.216 31H188.638V23.7273H191.237C191.969 23.7273 192.599 23.8729 193.127 24.1641C193.655 24.4529 194.061 24.8684 194.345 25.4105C194.631 25.9527 194.774 26.6013 194.774 27.3565C194.774 28.1141 194.631 28.7652 194.345 29.3097C194.061 29.8542 193.652 30.272 193.119 30.5632C192.589 30.8544 191.955 31 191.216 31ZM190.176 29.6825H191.152C191.607 29.6825 191.989 29.602 192.299 29.4411C192.612 29.2777 192.846 29.0256 193.002 28.6847C193.161 28.3414 193.24 27.8987 193.24 27.3565C193.24 26.8191 193.161 26.38 193.002 26.0391C192.846 25.6982 192.613 25.4472 192.303 25.2862C191.993 25.1252 191.61 25.0447 191.156 25.0447H190.176V29.6825ZM197.44 31.103C197.092 31.103 196.782 31.0426 196.51 30.9219C196.238 30.7988 196.022 30.6177 195.864 30.3786C195.707 30.1371 195.629 29.8364 195.629 29.4766C195.629 29.1735 195.685 28.919 195.796 28.7131C195.907 28.5071 196.059 28.3414 196.251 28.2159C196.442 28.0904 196.66 27.9957 196.904 27.9318C197.15 27.8679 197.408 27.8229 197.678 27.7969C197.996 27.7637 198.251 27.733 198.445 27.7045C198.639 27.6738 198.78 27.6288 198.868 27.5696C198.955 27.5104 198.999 27.4228 198.999 27.3068V27.2855C198.999 27.0606 198.928 26.8866 198.786 26.7635C198.647 26.6404 198.448 26.5788 198.19 26.5788C197.917 26.5788 197.701 26.6392 197.54 26.7599C197.379 26.8783 197.272 27.0275 197.22 27.2074L195.821 27.0938C195.892 26.7623 196.032 26.4759 196.24 26.2344C196.448 25.9905 196.717 25.8035 197.046 25.6733C197.378 25.5407 197.761 25.4744 198.197 25.4744C198.5 25.4744 198.79 25.5099 199.067 25.581C199.346 25.652 199.594 25.7621 199.809 25.9112C200.027 26.0604 200.198 26.2521 200.324 26.4865C200.449 26.7185 200.512 26.9967 200.512 27.321V31H199.077V30.2436H199.035C198.947 30.4141 198.83 30.5644 198.683 30.6946C198.536 30.8224 198.36 30.9231 198.154 30.9964C197.948 31.0675 197.71 31.103 197.44 31.103ZM197.874 30.0589C198.096 30.0589 198.293 30.0152 198.463 29.9276C198.634 29.8376 198.767 29.7169 198.864 29.5653C198.961 29.4138 199.01 29.2422 199.01 29.0504V28.4716C198.963 28.5024 198.897 28.5308 198.815 28.5568C198.734 28.5805 198.643 28.603 198.541 28.6243C198.439 28.6432 198.338 28.661 198.236 28.6776C198.134 28.6918 198.042 28.7048 197.959 28.7166C197.781 28.7427 197.626 28.7841 197.494 28.8409C197.361 28.8977 197.258 28.9747 197.185 29.0717C197.111 29.1664 197.075 29.2848 197.075 29.4268C197.075 29.6328 197.149 29.7902 197.298 29.8991C197.45 30.0057 197.642 30.0589 197.874 30.0589ZM201.686 31V25.5455H203.152V26.4972H203.209C203.309 26.1586 203.475 25.9029 203.71 25.7301C203.944 25.5549 204.214 25.4673 204.52 25.4673C204.595 25.4673 204.677 25.4721 204.765 25.4815C204.852 25.491 204.929 25.504 204.995 25.5206V26.8629C204.924 26.8416 204.826 26.8227 204.701 26.8061C204.575 26.7895 204.46 26.7812 204.356 26.7812C204.134 26.7812 203.935 26.8298 203.76 26.9268C203.587 27.0215 203.449 27.1541 203.348 27.3246C203.248 27.495 203.199 27.6915 203.199 27.9141V31H201.686ZM207.148 29.4304L207.152 27.6158H207.372L209.119 25.5455H210.856L208.508 28.2869H208.15L207.148 29.4304ZM205.778 31V23.7273H207.29V31H205.778ZM209.187 31L207.581 28.6243L208.59 27.5554L210.959 31H209.187Z" fill="#9AA4B5"/>
<g clip-path="url(#clip0_2911_617)">
<path d="M28 21.3333C25 21.3333 22.5833 23.75 22.5833 26.75C22.5833 29.75 25 32.1666 28 32.1666C31 32.1666 33.4166 29.75 33.4166 26.75C33.4166 23.75 31 21.3333 28 21.3333Z" fill="#B8BFCC"/>
<path d="M28 20.8333C28.5 20.8333 28.8333 20.5 28.8333 20V18.6666C28.8333 18.1666 28.5 17.8333 28 17.8333C27.5 17.8333 27.1666 18.1666 27.1666 18.6666V20C27.1666 20.4166 27.5 20.8333 28 20.8333Z" fill="#B8BFCC"/>
<path d="M22.4167 22.5833C22.5833 22.75 22.8333 22.8333 23 22.8333C23.1667 22.8333 23.4167 22.75 23.5833 22.5833C23.9167 22.25 23.9167 21.75 23.5833 21.4167L22.6667 20.5C22.3333 20.1667 21.8333 20.1667 21.5 20.5C21.1667 20.8333 21.1667 21.3333 21.5 21.6667L22.4167 22.5833Z" fill="#B8BFCC"/>
<path d="M21.8333 27C21.8333 26.5 21.5 26.1666 21 26.1666H19.6666C19.1666 26.1666 18.8333 26.5 18.8333 27C18.8333 27.5 19.1666 27.8333 19.6666 27.8333H21C21.4166 27.8333 21.8333 27.5 21.8333 27Z" fill="#B8BFCC"/>
<path d="M22.4167 31.4166L21.5 32.3333C21.1667 32.6666 21.1667 33.1666 21.5 33.5C21.6667 33.6666 21.9167 33.75 22.0833 33.75C22.25 33.75 22.5 33.6666 22.6667 33.5L23.5833 32.5833C23.9167 32.25 23.9167 31.75 23.5833 31.4166C23.25 31.0833 22.75 31.0833 22.4167 31.4166Z" fill="#B8BFCC"/>
<path d="M28 33.1666C27.5 33.1666 27.1666 33.5 27.1666 34V35.3333C27.1666 35.8333 27.5 36.1666 28 36.1666C28.5 36.1666 28.8333 35.8333 28.8333 35.3333V34C28.8333 33.5833 28.5 33.1666 28 33.1666Z" fill="#B8BFCC"/>
<path d="M33.5833 31.4166C33.25 31.0833 32.75 31.0833 32.4166 31.4166C32.0833 31.75 32.0833 32.25 32.4166 32.5833L33.3333 33.5C33.5 33.6666 33.75 33.75 33.9166 33.75C34.0833 33.75 34.3333 33.6666 34.5 33.5C34.8333 33.1666 34.8333 32.6666 34.5 32.3333L33.5833 31.4166Z" fill="#B8BFCC"/>
<path d="M36.3333 26.1666H35C34.5 26.1666 34.1666 26.5 34.1666 27C34.1666 27.5 34.5 27.8333 35 27.8333H36.3333C36.8333 27.8333 37.1666 27.5 37.1666 27C37.1666 26.5 36.8333 26.1666 36.3333 26.1666Z" fill="#B8BFCC"/>
<path d="M33 22.8333C33.25 22.8333 33.4166 22.75 33.5833 22.5833L34.5 21.6667C34.8333 21.3333 34.8333 20.8333 34.5 20.5C34.1666 20.1667 33.6666 20.1667 33.3333 20.5L32.4166 21.4167C32.0833 21.75 32.0833 22.25 32.4166 22.5833C32.5833 22.75 32.75 22.8333 33 22.8333Z" fill="#B8BFCC"/>
</g>
<path d="M162.25 36.3334C160 36.3334 157.833 35.5 156.167 33.8334C152.833 30.5 152.833 25.25 156.083 22C157.25 20.75 158.833 19.9167 160.583 19.6667C160.917 19.5833 161.25 19.75 161.417 20.0833C161.583 20.4167 161.583 20.75 161.333 21C159.5 23.0833 159.667 26.3333 161.667 28.3333C163.667 30.3334 166.833 30.5 168.917 28.6667C169.167 28.4167 169.583 28.4167 169.833 28.5833C170.167 28.75 170.333 29.0834 170.25 29.4167C170 31.1667 169.167 32.6667 168 33.9167C166.417 35.5 164.333 36.3334 162.25 36.3334Z" fill="#98A2B3"/>
<defs>
<filter id="filter0_d_2911_617" x="5" y="6" width="127" height="44" filterUnits="userSpaceOnUse" color-interpolation-filters="sRGB">
<feFlood flood-opacity="0" result="BackgroundImageFix"/>
<feColorMatrix in="SourceAlpha" type="matrix" values="0 0 0 0 0 0 0 0 0 0 0 0 0 0 0 0 0 0 127 0" result="hardAlpha"/>
<feOffset dy="1"/>
<feGaussianBlur stdDeviation="1.5"/>
<feColorMatrix type="matrix" values="0 0 0 0 0.376471 0 0 0 0 0.423529 0 0 0 0 0.501961 0 0 0 0.05 0"/>
<feBlend mode="normal" in2="BackgroundImageFix" result="effect1_dropShadow_2911_617"/>
<feBlend mode="normal" in="SourceGraphic" in2="effect1_dropShadow_2911_617" result="shape"/>
</filter>
<clipPath id="clip0_2911_617">
<rect width="20" height="20" fill="white" transform="translate(18 17)"/>
</clipPath>
</defs>
</svg>
