<svg width="24" height="21" viewBox="0 0 24 21" fill="currentColor" xmlns="http://www.w3.org/2000/svg">
<path d="M0.782657 0C0.350484 0 0 0.352658 0 0.787543C0 1.22241 0.350288 1.57509 0.782657 1.57509H3.90486C5.20012 4.80321 6.47587 8.03724 7.76075 11.2711L6.57868 14.134C6.47969 14.3727 6.50753 14.6604 6.65038 14.8753C6.79341 15.0903 7.04707 15.226 7.30419 15.2249H20.3477C20.7611 15.2307 21.1414 14.8535 21.1414 14.4373C21.1414 14.0213 20.7611 13.6439 20.3477 13.6498H8.4781L9.15464 12.0257L21.7174 11.0168C22.0462 10.9908 22.3439 10.733 22.4185 10.4098L23.9839 3.58484C24.0863 3.12507 23.6858 2.62353 23.2176 2.62499H6.00808L5.1603 0.492185C5.0442 0.203427 4.74432 0 4.4348 0H0.782657ZM6.63593 4.20007H22.2309L21.0162 9.49927L9.1224 10.4509L6.63593 4.20007ZM9.91321 15.75C8.48168 15.75 7.30451 16.9345 7.30451 18.375C7.30451 19.8155 8.48168 21 9.91321 21C11.3447 21 12.5219 19.8155 12.5219 18.375C12.5219 16.9345 11.3447 15.75 9.91321 15.75ZM17.7393 15.75C16.3078 15.75 15.1306 16.9345 15.1306 18.375C15.1306 19.8155 16.3078 21 17.7393 21C19.1708 21 20.348 19.8155 20.348 18.375C20.348 16.9345 19.1708 15.75 17.7393 15.75ZM9.91321 17.3251C10.4988 17.3251 10.9566 17.7858 10.9566 18.375C10.9566 18.9642 10.4988 19.4249 9.91321 19.4249C9.32765 19.4249 8.86982 18.964 8.86982 18.375C8.86982 17.7858 9.32783 17.3251 9.91321 17.3251ZM17.7393 17.3251C18.3249 17.3251 18.7827 17.786 18.7827 18.375C18.7827 18.9642 18.3247 19.4249 17.7393 19.4249C17.1538 19.4249 16.6959 18.9642 16.6959 18.375C16.6959 17.7858 17.1538 17.3251 17.7393 17.3251Z" fill="currentColor"/>
</svg>
