<svg width="24" height="22" viewBox="0 0 24 22" fill="currentColor" xmlns="http://www.w3.org/2000/svg">
<path d="M23.7442 5.53546C23.4385 3.60698 22.6218 2.25064 21.3173 1.50437C19.7431 0.604449 17.9929 0.428933 16.2999 0.259676L15.9675 0.226301C12.6015 -0.133742 9.20243 -0.0429459 5.86041 0.49628C5.07927 0.606164 4.31077 0.792268 3.5659 1.05193C2.59406 1.412 1.86627 1.90408 1.34161 2.55637C0.387355 3.74386 0.259522 5.33094 0.157014 6.60614L0.138438 6.83221C0.0300421 8.08213 -0.00858856 9.33711 0.0227211 10.5913C0.0389118 11.1493 0.0603671 11.7492 0.110926 12.3587C0.216811 13.6457 0.451027 15.2989 1.32473 16.674C2.29607 18.2029 3.85406 18.5215 5.10253 18.6278C5.39396 18.6516 6.18651 18.633 7.92348 18.5901L8.2763 18.5811L11.3208 21.3686C11.6465 21.6648 12.072 21.8274 12.5123 21.824C12.9526 21.8206 13.3755 21.6513 13.6966 21.35L16.7906 18.4267C18.4172 18.3771 19.1412 18.3395 19.5031 18.2655C19.6509 18.2457 19.8045 18.2321 19.96 18.2182C20.6553 18.1568 21.5213 18.0792 22.1822 17.4767C23.437 16.3344 23.6716 14.6607 23.8041 13.0456C23.9909 10.7701 24.1552 8.12588 23.7442 5.53546ZM22.3787 12.9291C22.2648 14.3163 22.0906 15.6268 21.2194 16.4208C20.9147 16.6984 20.3897 16.7446 19.8336 16.7948C19.648 16.8108 19.4649 16.8277 19.2895 16.8515C19.2572 16.856 19.2254 16.8627 19.194 16.8713C19.0896 16.8861 18.5727 16.9434 16.4763 17.0053C16.3009 17.0104 16.1335 17.0798 16.0061 17.2004L12.7141 20.3106C12.6564 20.3648 12.5804 20.3953 12.5012 20.3959C12.4221 20.3965 12.3456 20.3672 12.287 20.3139L9.03081 17.331C8.89887 17.2103 8.72659 17.1433 8.54777 17.1431H8.53009L7.88872 17.1594C6.41278 17.1961 5.43757 17.22 5.2249 17.2023C3.82098 17.0822 3.04075 16.7068 2.53188 15.9067C1.82615 14.7959 1.62957 13.3644 1.5371 12.2415C1.48942 11.6654 1.46836 11.0884 1.45317 10.5505C1.42304 9.3492 1.46031 8.14715 1.56481 6.95001L1.58289 6.72155C1.67874 5.5296 1.77797 4.29791 2.45698 3.45361C2.81457 3.00812 3.33973 2.66146 4.06255 2.39436C4.7187 2.16762 5.39538 2.00534 6.08301 1.90983C9.30225 1.3908 12.5763 1.30325 15.8187 1.64949L16.1573 1.68326C17.7009 1.83822 19.2976 1.99854 20.6073 2.74679C21.5161 3.26707 22.0966 4.28093 22.3311 5.76014C22.7174 8.19362 22.5581 10.7368 22.3787 12.9287V12.9291Z"/>
<path d="M5.99351 10.5439H5.99539L11.9278 10.5278C12.1175 10.5275 12.2993 10.4519 12.4333 10.3176C12.5672 10.1833 12.6423 10.0013 12.6421 9.81164C12.6418 9.62196 12.5662 9.44016 12.4319 9.30621C12.2976 9.17227 12.1156 9.09716 11.926 9.09741H11.924L5.99152 9.1137C5.80184 9.11397 5.62004 9.18956 5.48611 9.32387C5.35218 9.45818 5.27708 9.64019 5.27734 9.82986C5.27761 10.0195 5.3532 10.2013 5.48751 10.3353C5.62182 10.4692 5.80383 10.5442 5.99351 10.5439Z" />
<path d="M17.9609 5.27661H5.99349C5.80382 5.27661 5.62191 5.35196 5.48779 5.48608C5.35367 5.6202 5.27832 5.80211 5.27832 5.99178C5.27832 6.18146 5.35367 6.36336 5.48779 6.49748C5.62191 6.6316 5.80382 6.70695 5.99349 6.70695H17.9609C18.1506 6.70695 18.3325 6.6316 18.4666 6.49748C18.6007 6.36336 18.6761 6.18146 18.6761 5.99178C18.6761 5.80211 18.6007 5.6202 18.4666 5.48608C18.3325 5.35196 18.1506 5.27661 17.9609 5.27661Z" fill="black"/>
<path d="M15.4286 12.6001H6.08822C5.89854 12.6001 5.71664 12.6754 5.58252 12.8096C5.44839 12.9437 5.37305 13.1256 5.37305 13.3153C5.37305 13.5049 5.44839 13.6868 5.58252 13.821C5.71664 13.9551 5.89854 14.0304 6.08822 14.0304H15.4286C15.6182 14.0304 15.8002 13.9551 15.9343 13.821C16.0684 13.6868 16.1437 13.5049 16.1437 13.3153C16.1437 13.1256 16.0684 12.9437 15.9343 12.8096C15.8002 12.6754 15.6182 12.6001 15.4286 12.6001Z" fill="black"/>
</svg>
