<svg width="24" height="20" viewBox="0 0 24 20" fill="currentColor" xmlns="http://www.w3.org/2000/svg">
<path d="M21.0197 6.29138L23.8746 2.92211C24.0009 2.79347 24.0261 2.58769 23.9756 2.40775C23.925 2.22763 23.7734 2.09917 23.5966 2.04768L15.2591 0.0158961C15.0822 -0.0355944 14.8802 0.0415514 14.7539 0.196023L12 3.46232L9.24614 0.195839C9.11977 0.041547 8.91763 -0.00994338 8.74088 0.0157123L0.403354 2.0475C0.226411 2.09899 0.0748516 2.22762 0.0244475 2.40757C-0.0261326 2.5877 -0.000754307 2.76764 0.125431 2.92192L2.98045 6.29119L0.125431 9.66065C-0.000930715 9.78928 -0.0261326 9.99506 0.0244475 10.175C0.0750275 10.3551 0.226592 10.4836 0.403354 10.5351L3.15722 11.1783V17.4282C3.15722 17.6855 3.30878 17.8911 3.5615 17.9426L11.899 19.9743C11.9242 19.9743 11.9748 20 12.0254 20C12.076 20 12.1012 20 12.1517 19.9743L20.4893 17.9426C20.7166 17.8911 20.8936 17.6853 20.8936 17.4282L20.8934 11.1783L23.5967 10.5094C23.7736 10.458 23.9252 10.3293 23.9756 10.1494C24.0262 9.96924 24.0008 9.7893 23.8746 9.63502L21.0197 6.29138ZM18.1141 6.29138L12 7.75751L5.91104 6.29138L12 4.79962L18.1141 6.29138ZM15.3351 1.12166L22.5356 2.87053L20.1607 5.69982L12.9601 3.95095L15.3351 1.12166ZM8.66504 1.12166L11.04 3.95095L3.83943 5.69982L1.46445 2.87053L8.66504 1.12166ZM3.83938 6.85721L11.04 8.60608L8.665 11.4354L1.46441 9.6865L3.83938 6.85721ZM4.19309 17.0166V11.4354L8.74083 12.5412C8.79141 12.5412 8.81661 12.5669 8.86719 12.5669C9.01875 12.5669 9.17032 12.4897 9.2461 12.3868L11.4947 9.71216V18.7656L4.19309 17.0166ZM19.807 17.0166L12.5053 18.7657V9.71222L14.7539 12.3614C14.8549 12.49 15.0067 12.5415 15.1329 12.5415C15.1834 12.5415 15.2086 12.5415 15.2592 12.5159L19.807 11.41L19.807 17.0166ZM15.3352 11.4354L12.935 8.60608L20.1356 6.85721L22.5106 9.6865L15.3352 11.4354Z" fill="currentColor"/>
</svg>
