<svg width="25" height="26" viewBox="0 0 25 26" fill="currentColor" xmlns="http://www.w3.org/2000/svg">
<path d="M23.9193 13.576C23.9246 13.5707 23.9246 13.5707 23.9299 13.5654C23.9458 13.5442 23.9618 13.5282 23.9724 13.507C23.9777 13.5017 23.9777 13.4964 23.983 13.4911C23.9936 13.4699 24.0095 13.4486 24.0201 13.4274C24.0201 13.4221 24.0255 13.4168 24.0255 13.4168C24.0361 13.3956 24.0467 13.3743 24.0573 13.3478C24.0573 13.3425 24.0573 13.3425 24.0626 13.3372C24.0732 13.316 24.0785 13.2894 24.0891 13.2629C24.0891 13.2576 24.0891 13.2523 24.0944 13.2523C24.0998 13.2257 24.1104 13.2045 24.1104 13.178C24.1104 13.1674 24.1104 13.1621 24.1157 13.1514C24.121 13.1302 24.121 13.109 24.1263 13.0878C24.1316 13.0559 24.1316 13.0294 24.1316 12.9975C24.1316 12.9657 24.1316 12.9391 24.1263 12.9073C24.1263 12.8861 24.121 12.8648 24.1157 12.8436C24.1157 12.833 24.1157 12.8277 24.1104 12.8171C24.1051 12.7905 24.0998 12.7693 24.0944 12.7428C24.0944 12.7375 24.0944 12.7322 24.0891 12.7322C24.0838 12.7056 24.0732 12.6844 24.0626 12.6579C24.0626 12.6526 24.0626 12.6526 24.0573 12.6473C24.0467 12.626 24.0361 12.5995 24.0255 12.5783C24.0255 12.573 24.0201 12.5676 24.0201 12.5676C24.0095 12.5464 23.9989 12.5252 23.983 12.504C23.9777 12.4987 23.9777 12.4933 23.9724 12.488C23.9565 12.4668 23.9458 12.4456 23.9299 12.4297C23.9246 12.4244 23.9246 12.4244 23.9193 12.419C23.8981 12.3978 23.8822 12.3713 23.8556 12.35L18.6068 7.10653C18.2512 6.75095 17.6727 6.75095 17.3171 7.10653C16.9616 7.46211 16.9616 8.0406 17.3171 8.39618L21.011 12.09H6.32593C5.82174 12.09 5.41309 12.4987 5.41309 12.9975C5.41309 13.5017 5.82174 13.9104 6.32593 13.9104H21.0163L17.349 17.5776C16.9934 17.9332 16.9934 18.5117 17.349 18.8673C17.5241 19.0424 17.7576 19.1327 17.9912 19.1327C18.2247 19.1327 18.4582 19.0424 18.6333 18.8673L23.8503 13.6503C23.8769 13.6185 23.8981 13.5972 23.9193 13.576Z" fill="currentColor"/>
<path d="M4.94101 1.82037H11.7342C12.2384 1.82037 12.6471 1.41172 12.6471 0.912839C12.6471 0.408655 12.2384 0 11.7342 0H4.94101C2.21841 0 0 2.21841 0 4.94101V21.059C0 23.7816 2.21841 26 4.94101 26H11.6228C12.127 26 12.5356 25.5913 12.5356 25.0925C12.5356 24.5883 12.127 24.1796 11.6228 24.1796H4.94101C3.22147 24.1796 1.82037 22.7785 1.82037 21.059V4.94101C1.82568 3.21617 3.22147 1.82037 4.94101 1.82037Z" fill="currentColor"/>
</svg>
