<svg width="24" height="23" viewBox="0 0 24 23" fill="none" xmlns="http://www.w3.org/2000/svg">
<path d="M5.3878 10.5943H4.4082V0.489797C4.4082 0.425476 4.42087 0.361784 4.44549 0.30236C4.4701 0.242935 4.50618 0.18894 4.55166 0.143458C4.59714 0.0979766 4.65114 0.0618984 4.71056 0.0372838C4.76999 0.0126693 4.83368 0 4.898 0H18.6515C18.7729 0.000316902 18.8898 0.0456994 18.9796 0.127347L22.369 3.18858C22.4198 3.23437 22.4604 3.29027 22.4882 3.3527C22.516 3.41512 22.5305 3.48268 22.5307 3.55102V8.14531H21.5511V3.76653L18.4654 0.979593H5.3878V10.5943Z" fill="currentColor"/>
<path d="M17.6327 22.5308H0.489796C0.425475 22.5308 0.361784 22.5182 0.302359 22.4935C0.242934 22.4689 0.18894 22.4328 0.143458 22.3874C0.0979761 22.3419 0.0618979 22.2879 0.0372833 22.2285C0.0126687 22.169 -4.52257e-09 22.1053 0 22.041V4.40835C0 4.27845 0.0516033 4.15387 0.143458 4.06202C0.235313 3.97016 0.359894 3.91856 0.489796 3.91856H4.40817V4.89815H0.979593V21.5512H17.6327V22.5308ZM17.6327 3.91856H7.83674C7.70684 3.91856 7.58226 3.86695 7.4904 3.7751C7.39855 3.68325 7.34695 3.55866 7.34695 3.42876C7.34695 3.29886 7.39855 3.17428 7.4904 3.08242C7.58226 2.99057 7.70684 2.93896 7.83674 2.93896H17.6327C17.7626 2.93896 17.8872 2.99057 17.979 3.08242C18.0709 3.17428 18.1225 3.29886 18.1225 3.42876C18.1225 3.55866 18.0709 3.68325 17.979 3.7751C17.8872 3.86695 17.7626 3.91856 17.6327 3.91856ZM12.2449 6.36754H7.83674C7.70684 6.36754 7.58226 6.31594 7.4904 6.22408C7.39855 6.13223 7.34695 6.00765 7.34695 5.87774C7.34695 5.74784 7.39855 5.62326 7.4904 5.5314C7.58226 5.43955 7.70684 5.38795 7.83674 5.38795H12.2449C12.3748 5.38795 12.4994 5.43955 12.5912 5.5314C12.6831 5.62326 12.7347 5.74784 12.7347 5.87774C12.7347 6.00765 12.6831 6.13223 12.5912 6.22408C12.4994 6.31594 12.3748 6.36754 12.2449 6.36754Z" fill="currentColor"/>
<path d="M23.51 22.5309H2.44878C2.38446 22.5309 2.32077 22.5182 2.26134 22.4936C2.20192 22.469 2.14792 22.4329 2.10244 22.3874C2.05696 22.3419 2.02088 22.2879 1.99627 22.2285C1.97165 22.1691 1.95898 22.1054 1.95898 22.0411V10.2859C1.95898 10.156 2.01059 10.0315 2.10244 9.93961C2.1943 9.84775 2.31888 9.79615 2.44878 9.79615H10.9614L13.7141 7.46472C13.8028 7.38885 13.9157 7.34716 14.0325 7.34717H23.51C23.5743 7.34717 23.638 7.35984 23.6975 7.38445C23.7569 7.40907 23.8109 7.44514 23.8564 7.49063C23.9018 7.53611 23.9379 7.5901 23.9625 7.64953C23.9872 7.70895 23.9998 7.77264 23.9998 7.83696V22.0411C23.9998 22.1054 23.9872 22.1691 23.9625 22.2285C23.9379 22.2879 23.9018 22.3419 23.8564 22.3874C23.8109 22.4329 23.7569 22.469 23.6975 22.4936C23.638 22.5182 23.5743 22.5309 23.51 22.5309ZM2.93858 21.5513H23.0202V8.32676H14.2039L11.461 10.6582C11.3723 10.7341 11.2594 10.7758 11.1427 10.7757H2.93858V21.5513Z" fill="currentColor"/>
<path d="M20.5714 19.5919H15.6734C15.5435 19.5919 15.4189 19.5403 15.3271 19.4484C15.2352 19.3566 15.1836 19.232 15.1836 19.1021C15.1836 18.9722 15.2352 18.8476 15.3271 18.7558C15.4189 18.6639 15.5435 18.6123 15.6734 18.6123H20.5714C20.7013 18.6123 20.8258 18.6639 20.9177 18.7558C21.0095 18.8476 21.0612 18.9722 21.0612 19.1021C21.0612 19.232 21.0095 19.3566 20.9177 19.4484C20.8258 19.5403 20.7013 19.5919 20.5714 19.5919Z" fill="currentColor"/>
</svg>
