<svg width="24" height="25" viewBox="0 0 24 25" fill="none" xmlns="http://www.w3.org/2000/svg">
<path d="M5.46942 9.41565C7.40242 9.41565 8.96942 7.84865 8.96942 5.91565C8.96942 3.98265 7.40242 2.41565 5.46942 2.41565C3.53642 2.41565 1.96942 3.98265 1.96942 5.91565C1.96942 7.84865 3.53642 9.41565 5.46942 9.41565Z" stroke="black" stroke-width="1.5"/>
<path d="M16.9694 15.4156H19.9694C21.0694 15.4156 21.9694 16.3156 21.9694 17.4156V20.4156C21.9694 21.5156 21.0694 22.4156 19.9694 22.4156H16.9694C15.8694 22.4156 14.9694 21.5156 14.9694 20.4156V17.4156C14.9694 16.3156 15.8694 15.4156 16.9694 15.4156Z" stroke="black" stroke-width="1.5"/>
<path d="M11.9995 5.41565H14.6795C16.5295 5.41565 17.3895 7.70565 15.9995 8.92565L8.00946 15.9156C6.61946 17.1256 7.47946 19.4156 9.31946 19.4156H11.9995" stroke="black" stroke-width="1.5" stroke-linecap="round" stroke-linejoin="round"/>
<path d="M5.48567 5.91565H5.49722" stroke="black" stroke-width="2" stroke-linecap="round" stroke-linejoin="round"/>
<path d="M18.4857 18.9156H18.4972" stroke="black" stroke-width="2" stroke-linecap="round" stroke-linejoin="round"/>
</svg>
