<svg width="24" height="20" viewBox="0 0 24 20" fill="currentColor" xmlns="http://www.w3.org/2000/svg">
<path d="M23.9999 13.1341C23.9999 13.0743 23.9999 12.955 23.9469 12.8952L21.352 6.62661C21.2461 6.38774 21.0873 6.26841 20.8754 6.26841H17.9627L17.9629 2.80588C17.9629 2.44768 17.751 2.2088 17.4333 2.2088H8.06006C7.26572 0.955081 6.04779 0.0595646 4.61797 0H4.19439C1.97005 0.119334 0.116646 2.14924 0.0107946 4.65668C-0.0950571 6.26861 0.593251 7.34323 1.38759 8.53718L1.44061 8.59695C1.81136 9.19403 3.24118 10.9253 3.55891 11.3433C3.77062 11.5819 4.08835 11.761 4.45911 11.761C4.77684 11.761 5.04156 11.5819 5.30646 11.3431C5.6242 10.9849 7.05401 9.19383 7.42477 8.59675L7.47778 8.53698C8.27213 7.34303 8.96062 6.26841 8.85458 4.65648C8.85458 4.17894 8.74873 3.76097 8.6427 3.34299H16.957V4.89515H12.5086C12.1909 4.89515 11.979 5.13402 11.979 5.49223C11.979 5.85044 12.1909 6.08931 12.5086 6.08931H16.957V7.4028H14.9447C14.6269 7.4028 14.4151 7.64167 14.4151 7.99988C14.4151 8.35809 14.6269 8.59696 14.9447 8.59696H16.957L16.9568 9.97002H15.0504C14.7326 9.97002 14.5207 10.2089 14.5207 10.5671C14.5207 10.9253 14.7326 11.1642 15.0504 11.1642H16.9568V13.1343C16.9568 13.4925 17.1687 13.7314 17.4864 13.7314C17.8041 13.7314 18.016 13.4925 18.016 13.1343V7.52224H20.5049L22.6232 12.5969H20.0283V10.9252C20.0283 10.567 19.8164 10.3281 19.4987 10.3281C19.1809 10.3281 18.969 10.567 18.969 10.9252V13.1938C18.969 13.552 19.1809 13.7908 19.4987 13.7908H22.8879L22.9409 16.9549H19.4457C19.1809 15.9401 18.3866 15.1639 17.3804 15.1639C16.3741 15.1639 15.5798 15.9401 15.3151 16.9549H8.58996C8.32524 15.9401 7.5309 15.1639 6.52467 15.1639C5.51844 15.1639 4.7241 15.9401 4.45938 16.9549H2.12919V15.9401H3.34712C3.66486 15.9401 3.87674 15.7012 3.87674 15.343C3.87674 14.9848 3.66486 14.7459 3.34712 14.7459H2.12919V11.7609C2.12919 11.4027 1.91731 11.1639 1.59957 11.1639C1.28184 11.1639 1.06995 11.4027 1.06995 11.7609V17.5521C1.06995 17.9103 1.28184 18.1492 1.59957 18.1492H4.4592C4.67109 19.2238 5.51826 20 6.52449 20C7.53071 20 8.37789 19.2238 8.58978 18.1492H15.2622C15.4741 19.2238 16.3213 20 17.3275 20C18.3338 20 19.1809 19.2238 19.3928 18.1492H23.4704C23.6292 18.1492 23.7351 18.0894 23.8411 17.9701C23.947 17.8508 24 17.6717 24 17.5521L23.9999 13.1341ZM6.57705 7.82087C6.2063 8.41795 4.8295 10.1492 4.45875 10.5672C4.03516 10.2688 2.65818 8.35818 2.28761 7.82087C-1.36636 3.46263 4.3529 -1.61172 7.26563 2.92532C7.26563 2.98509 7.31865 3.10442 7.37148 3.16419C8.16582 4.83589 7.68922 6.26871 6.57714 7.82087H6.57705ZM6.52421 18.7462C5.94175 18.7462 5.46515 18.2089 5.46515 17.5522C5.46515 16.8956 5.94175 16.3583 6.52421 16.3583C7.10667 16.3583 7.58327 16.8956 7.58327 17.5522C7.58327 18.2089 7.15968 18.7462 6.52421 18.7462ZM17.3799 18.7462C16.7975 18.7462 16.3208 18.2089 16.3208 17.5522C16.3208 16.8956 16.7975 16.3583 17.3799 16.3583C17.9624 16.3583 18.439 16.8956 18.439 17.5522C18.4391 18.2089 17.9625 18.7462 17.3799 18.7462ZM4.40582 2.62688C3.24072 2.62688 2.28751 3.7015 2.28751 5.01499C2.28751 6.32848 3.24072 7.4031 4.40582 7.4031C5.57091 7.4031 6.52412 6.32848 6.52412 5.01499C6.52412 3.7015 5.57091 2.62688 4.40582 2.62688ZM4.40582 6.14918C3.82336 6.14918 3.34676 5.61187 3.34676 4.95522C3.34676 4.29858 3.82336 3.76127 4.40582 3.76127C4.98827 3.76127 5.46488 4.29858 5.46488 4.95522C5.46488 5.61187 4.98827 6.14918 4.40582 6.14918ZM12.455 8.59706C12.1373 8.59706 11.9254 8.35818 11.9254 7.99998C11.9254 7.64177 12.1373 7.4029 12.455 7.4029H13.0374C13.3552 7.4029 13.5671 7.64177 13.5671 7.99998C13.5671 8.35818 13.3552 8.59706 13.0374 8.59706H12.455Z" fill="currentColor"/>
</svg>
