<svg width="18" height="18" viewBox="0 0 18 18" fill="none" xmlns="http://www.w3.org/2000/svg">
<g clip-path="url(#clip0_2911_277)">
<path d="M3.57628e-07 2.00024C3.57628e-07 0.895674 0.895431 0.000244141 2 0.000244141H15.9534C17.058 0.000244141 17.9534 0.895675 17.9534 2.00024V15.5797C17.9534 16.6842 17.058 17.5797 15.9534 17.5797H2C0.89543 17.5797 3.57628e-07 16.6842 3.57628e-07 15.5797V2.00024Z" fill="#FFA824"/>
<path d="M6.54933 8.94968H8.14069L7.34503 5.86387L6.54933 8.94968ZM3.35827 1.3768C2.2537 1.3768 1.35827 2.27223 1.35827 3.3768V14.2118C1.35827 15.3164 2.2537 16.2118 3.35827 16.2118H14.6179C15.7225 16.2118 16.6179 15.3164 16.6179 14.2118V3.3768C16.6179 2.27223 15.7225 1.3768 14.6179 1.3768H3.35827ZM9.01405 12.3331L8.43181 10.3276H6.27758L5.69535 12.3331H4.22038L6.29699 5.24286V4.46657H8.27657L10.6443 12.3331H9.01405ZM12.9344 12.3331H11.343V6.34912H12.9344V12.3331ZM12.1484 5.63105C11.6928 5.63105 11.3235 5.26609 11.3235 4.81594C11.3235 4.36576 11.6927 4.0008 12.1484 4.0008C12.604 4.0008 12.9732 4.36576 12.9732 4.81594C12.9732 5.26609 12.6039 5.63105 12.1484 5.63105Z" fill="url(#paint0_linear_2911_277)"/>
</g>
<defs>
<linearGradient id="paint0_linear_2911_277" x1="8.98809" y1="1.35189" x2="8.98809" y2="16.137" gradientUnits="userSpaceOnUse">
<stop stop-color="#251200"/>
<stop offset="1"/>
</linearGradient>
<clipPath id="clip0_2911_277">
<rect width="17.9534" height="17.58" fill="white"/>
</clipPath>
</defs>
</svg>
