<svg width="19" height="19" viewBox="0 0 19 19" fill="none" xmlns="http://www.w3.org/2000/svg">
<g clip-path="url(#clip0_2911_262)">
<path d="M9.44038 0.00169744C9.44038 0.00169744 15.02 -0.249452 17.9772 5.35808H8.96592C8.96592 5.35808 7.26402 5.3021 5.81328 7.36689C5.39489 8.23182 4.94861 9.12458 5.4507 10.8819C4.72539 9.65463 1.60068 4.21434 1.60068 4.21434C1.60068 4.21434 3.80492 0.224792 9.44038 0.00169744Z" fill="#C6352E"/>
<path d="M17.6867 14.2391C17.6867 14.2391 15.1137 19.1962 8.77869 18.9525C9.5602 17.5998 13.2854 11.1491 13.2854 11.1491C13.2854 11.1491 14.1848 9.70343 13.1228 7.41464C12.5829 6.61968 12.0332 5.78667 10.26 5.34252C11.686 5.32836 17.9593 5.34343 17.9593 5.34343C17.9593 5.34343 20.3118 9.2473 17.6867 14.2391Z" fill="#F4D911"/>
<path d="M1.23371 14.2767C1.23371 14.2767 -1.77261 9.56926 1.60633 4.20523C2.38714 5.55847 6.11034 12.0103 6.11034 12.0103C6.11034 12.0103 6.91243 13.5119 9.42574 13.7368C10.3838 13.6669 11.3803 13.6073 12.6516 12.294C11.9507 13.5358 8.80063 18.9612 8.80063 18.9612C8.80063 18.9612 4.24368 19.0462 1.23371 14.2767Z" fill="#81B354"/>
<path d="M8.77869 18.9984L10.0463 13.7091C10.0463 13.7091 11.44 13.6003 12.6078 12.3186C11.8828 13.5939 8.77869 18.9984 8.77869 18.9984Z" fill="#7BAA50"/>
<path d="M5.19516 9.55839C5.19516 7.2267 7.08519 5.33646 9.4171 5.33646C11.7488 5.33646 13.639 7.22665 13.639 9.55839C13.639 11.8902 11.7489 13.7805 9.4171 13.7805C7.08519 13.7805 5.19516 11.8903 5.19516 9.55839Z" fill="white"/>
<path d="M5.90175 9.55839C5.90175 7.61703 7.47552 6.04321 9.41709 6.04321C11.3583 6.04321 12.9322 7.61703 12.9322 9.55839C12.9322 11.4998 11.3583 13.0737 9.41709 13.0737C7.47552 13.0738 5.90175 11.4997 5.90175 9.55839Z" fill="url(#paint0_linear_2911_262)"/>
<path d="M17.9593 5.34343L12.7399 6.87374C12.7399 6.87374 11.9529 5.7187 10.26 5.34252C11.7268 5.33753 17.9593 5.34343 17.9593 5.34343Z" fill="#E7CE12"/>
<path d="M5.3492 10.6921C4.61569 9.42176 1.60086 4.2142 1.60086 4.2142L5.46729 8.03898C5.46729 8.03898 5.06995 8.85631 5.22061 10.0237L5.3492 10.6921Z" fill="#BC332C"/>
</g>
<defs>
<linearGradient id="paint0_linear_2911_262" x1="9.41696" y1="6.09294" x2="9.41696" y2="12.8634" gradientUnits="userSpaceOnUse">
<stop stop-color="#A2C0E6"/>
<stop offset="1" stop-color="#406CB1"/>
</linearGradient>
<clipPath id="clip0_2911_262">
<rect width="18.93" height="18.9984" fill="white"/>
</clipPath>
</defs>
</svg>
