<svg width="10" height="15" viewBox="0 0 10 15" fill="none" xmlns="http://www.w3.org/2000/svg">
<g clip-path="url(#clip0_2911_248)">
<path d="M2.5005 14.997C3.88022 14.997 5 13.8772 5 12.4975V9.998H2.5005C1.12078 9.998 0.000999928 11.1178 0.000999928 12.4975C0.000999928 13.8772 1.12078 14.997 2.5005 14.997Z" fill="#0ACF83"/>
<path d="M0.000999928 7.49849C0.000999928 6.11877 1.12078 4.99899 2.5005 4.99899H5V9.99799H2.5005C1.12078 9.99799 0.000999928 8.87822 0.000999928 7.49849Z" fill="#A259FF"/>
<path d="M0.000200033 2.4995C0.000200033 1.11978 1.11998 0 2.4997 0H4.9992V4.999H2.4997C1.11998 4.999 0.000200033 3.87922 0.000200033 2.4995Z" fill="#F24E1E"/>
<path d="M5 0H7.4995C8.87922 0 9.999 1.11978 9.999 2.4995C9.999 3.87922 8.87922 4.999 7.4995 4.999H5V0Z" fill="#FF7262"/>
<path d="M9.999 7.49849C9.999 8.87822 8.87922 9.99799 7.4995 9.99799C6.11978 9.99799 5 8.87822 5 7.49849C5 6.11877 6.11978 4.99899 7.4995 4.99899C8.87922 4.99899 9.999 6.11877 9.999 7.49849Z" fill="#1ABCFE"/>
</g>
<defs>
<clipPath id="clip0_2911_248">
<rect width="10" height="14.997" fill="white"/>
</clipPath>
</defs>
</svg>
