<svg width="13" height="16" viewBox="0 0 13 16" fill="none" xmlns="http://www.w3.org/2000/svg">
<g clip-path="url(#clip0_2911_296)">
<path d="M3.15815 12.4655C2.70875 12.4655 2.34234 12.8154 2.34234 13.2497C2.34234 13.5448 2.51243 13.7977 2.7655 13.9327L5.91953 15.623C6.16972 15.7641 6.45209 15.8381 6.7393 15.838C6.93133 15.838 7.11462 15.8043 7.28471 15.7453L8.36217 15.446V12.4614C8.36663 12.4655 3.16227 12.4655 3.15798 12.4655H3.15815Z" fill="url(#paint0_linear_2911_296)"/>
<path d="M3.15815 12.4655C2.70875 12.4655 2.34234 12.8154 2.34234 13.2497C2.34234 13.5448 2.51243 13.7977 2.7655 13.9327L5.91953 15.623C6.16972 15.7641 6.45209 15.8381 6.7393 15.838C6.93133 15.838 7.11462 15.8043 7.28471 15.7453L8.36217 15.446V12.4614C8.36663 12.4655 3.16227 12.4655 3.15798 12.4655H3.15815Z" fill="url(#paint1_linear_2911_296)"/>
<path d="M7.21542 0.0635046C7.06644 0.0209668 6.91221 -0.000305516 6.75728 0.000318516C6.49992 0.000318516 6.24255 0.0509664 6.01125 0.168925C5.96341 0.190042 0.881137 2.95109 0.881137 2.95109C0.811352 2.98491 0.745857 3.02698 0.684815 3.06922C0.676236 3.07334 0.671782 3.07763 0.663038 3.08192C0.623774 3.11128 0.588799 3.14082 0.549699 3.17035C0.532212 3.18305 0.514724 3.20004 0.501691 3.21258C0.479914 3.23353 0.457972 3.25465 0.44065 3.27577C0.379608 3.33895 0.274848 3.47374 0.274848 3.47374C0.0951163 3.72925 -0.000915013 4.03424 -3.34365e-06 4.34663V11.6815C-3.34365e-06 12.1159 0.36641 12.4658 0.815807 12.4658C0.929146 12.4658 1.03391 12.4447 1.12992 12.4024L2.58254 11.6142C2.8442 11.4878 3.05372 11.2727 3.16277 11.0071C3.18883 10.9523 3.21061 10.885 3.22381 10.8173C3.2281 10.8005 3.23255 10.7794 3.23255 10.7626C3.23255 10.7543 3.23684 10.7416 3.23684 10.7332C3.24129 10.7035 3.24558 10.6699 3.24558 10.6405C3.24558 10.6151 3.25004 10.594 3.25004 10.5687V6.66505V5.44669C3.25004 5.10519 3.40264 4.79751 3.64268 4.58255C3.64268 4.58255 3.52918 4.68368 3.64268 4.58255C3.75602 4.48142 3.90434 4.39282 4.07888 4.33393C4.25326 4.27058 8.38016 2.82901 8.38016 2.82901V0.396593L7.21542 0.0635046Z" fill="url(#paint2_linear_2911_296)"/>
<path d="M7.21542 0.0635046C7.06644 0.0209668 6.91221 -0.000305516 6.75728 0.000318516C6.49992 0.000318516 6.24255 0.0509664 6.01125 0.168925C5.96341 0.190042 0.881137 2.95109 0.881137 2.95109C0.811352 2.98491 0.745857 3.02698 0.684815 3.06922C0.676236 3.07334 0.671782 3.07763 0.663038 3.08192C0.623774 3.11128 0.588799 3.14082 0.549699 3.17035C0.532212 3.18305 0.514724 3.20004 0.501691 3.21258C0.479914 3.23353 0.457972 3.25465 0.44065 3.27577C0.379608 3.33895 0.274848 3.47374 0.274848 3.47374C0.0951163 3.72925 -0.000915013 4.03424 -3.34365e-06 4.34663V11.6815C-3.34365e-06 12.1159 0.36641 12.4658 0.815807 12.4658C0.929146 12.4658 1.03391 12.4447 1.12992 12.4024L2.58254 11.6142C2.8442 11.4878 3.05372 11.2727 3.16277 11.0071C3.18883 10.9523 3.21061 10.885 3.22381 10.8173C3.2281 10.8005 3.23255 10.7794 3.23255 10.7626C3.23255 10.7543 3.23684 10.7416 3.23684 10.7332C3.24129 10.7035 3.24558 10.6699 3.24558 10.6405C3.24558 10.6151 3.25004 10.594 3.25004 10.5687V6.66505V5.44669C3.25004 5.10519 3.40264 4.79751 3.64268 4.58255C3.64268 4.58255 3.52918 4.68368 3.64268 4.58255C3.75602 4.48142 3.90434 4.39282 4.07888 4.33393C4.25326 4.27058 8.38016 2.82901 8.38016 2.82901V0.396593L7.21542 0.0635046Z" fill="url(#paint3_linear_2911_296)"/>
<path d="M11.8615 1.37778L7.28537 0.0838623C7.94841 0.332647 8.36267 0.893238 8.36267 1.57624C8.36267 1.57624 8.35854 13.9825 8.36267 14.2818C8.36712 14.9562 7.92218 15.5338 7.28537 15.7487C7.42494 15.7108 11.8615 14.4756 11.8615 14.4756C12.5201 14.2733 12.9957 13.6831 12.9957 12.9793V2.87411C13 2.17461 12.5201 1.58004 11.8615 1.37778Z" fill="url(#paint4_linear_2911_296)"/>
</g>
<defs>
<linearGradient id="paint0_linear_2911_296" x1="2.79504" y1="13.7527" x2="14.1337" y2="14.7793" gradientUnits="userSpaceOnUse">
<stop stop-color="#F32B44"/>
<stop offset="0.6" stop-color="#A4070A"/>
</linearGradient>
<linearGradient id="paint1_linear_2911_296" x1="10.4785" y1="14.4023" x2="5.44473" y2="13.9465" gradientUnits="userSpaceOnUse">
<stop stop-opacity="0.4"/>
<stop offset="1" stop-opacity="0"/>
</linearGradient>
<linearGradient id="paint2_linear_2911_296" x1="7.38073" y1="-0.546084" x2="-0.973529" y2="11.8006" gradientUnits="userSpaceOnUse">
<stop stop-color="#800600"/>
<stop offset="0.6" stop-color="#C72127"/>
<stop offset="0.728" stop-color="#C13959"/>
<stop offset="0.847" stop-color="#BC4B81"/>
<stop offset="0.942" stop-color="#B95799"/>
<stop offset="1" stop-color="#B85BA2"/>
</linearGradient>
<linearGradient id="paint3_linear_2911_296" x1="7.55973" y1="-0.79322" x2="5.79052" y2="1.8215" gradientUnits="userSpaceOnUse">
<stop stop-opacity="0.4"/>
<stop offset="1" stop-opacity="0"/>
</linearGradient>
<linearGradient id="paint4_linear_2911_296" x1="10.1438" y1="-0.806022" x2="10.1438" y2="14.647" gradientUnits="userSpaceOnUse">
<stop stop-color="#FFB900"/>
<stop offset="0.166" stop-color="#EF8400"/>
<stop offset="0.313" stop-color="#E25C01"/>
<stop offset="0.429" stop-color="#DB4401"/>
<stop offset="0.5" stop-color="#D83B01"/>
</linearGradient>
<clipPath id="clip0_2911_296">
<rect width="13" height="15.8382" fill="white"/>
</clipPath>
</defs>
</svg>
