<svg width="24" height="24" viewBox="0 0 24 24" fill="none" xmlns="http://www.w3.org/2000/svg">
<path d="M23.1423 12.193C23.1423 13.6629 22.8528 15.1183 22.2903 16.4763C21.7278 17.8343 20.9033 19.0682 19.8639 20.1076C18.8246 21.147 17.5907 21.9714 16.2327 22.5339C14.8747 23.0964 13.4192 23.3859 11.9493 23.3859C8.98074 23.3859 6.13377 22.2067 4.03468 20.1076C1.9356 18.0085 0.756342 15.1615 0.756342 12.193C0.756342 9.22441 1.9356 6.37744 4.03468 4.27835C6.13377 2.17926 8.98074 1 11.9493 1C13.4192 1 14.8747 1.28952 16.2327 1.85201C17.5907 2.41451 18.8246 3.23898 19.8639 4.27835C20.9033 5.31771 21.7278 6.55161 22.2903 7.9096C22.8528 9.2676 23.1423 10.7231 23.1423 12.193Z" fill="url(#paint0_linear_2911_314)" stroke="#CDCDCD" stroke-width="0.0930123" stroke-linecap="round" stroke-linejoin="round"/>
<path d="M22.2652 12.193C22.2652 14.9289 21.1783 17.5528 19.2437 19.4874C17.3091 21.422 14.6852 22.5089 11.9493 22.5089C9.21336 22.5089 6.58947 21.422 4.65486 19.4874C2.72026 17.5528 1.63341 14.9289 1.63341 12.193C1.63341 9.45703 2.72026 6.83314 4.65486 4.89853C6.58947 2.96392 9.21336 1.87708 11.9493 1.87708C14.6852 1.87708 17.3091 2.96392 19.2437 4.89853C21.1783 6.83314 22.2652 9.45703 22.2652 12.193Z" fill="url(#paint1_radial_2911_314)"/>
<path d="M11.9493 2.41504C11.866 2.41504 11.7989 2.48211 11.7989 2.56544V4.30027C11.7989 4.38359 11.866 4.45067 11.9493 4.45067C12.0326 4.45067 12.0997 4.38359 12.0997 4.30027V2.56544C12.0997 2.48211 12.0326 2.41504 11.9493 2.41504ZM10.9654 2.47723C10.9554 2.47615 10.9451 2.47616 10.9348 2.47735C10.8519 2.486 10.7922 2.55967 10.8008 2.64255L10.8766 3.36832C10.8853 3.4512 10.959 3.51096 11.0418 3.50231C11.1247 3.49366 11.1845 3.41998 11.1758 3.3371L11.1 2.61133C11.0925 2.53882 11.0351 2.484 10.9654 2.47723H10.9654ZM12.9401 2.47794C12.8704 2.48466 12.813 2.53947 12.8053 2.61198L12.729 3.33769C12.7203 3.42056 12.7801 3.49431 12.8629 3.50303C12.9458 3.51174 13.0195 3.45204 13.0282 3.36917L13.1045 2.6434C13.1132 2.56053 13.0535 2.48684 12.9706 2.47813C12.9602 2.47706 12.9501 2.47706 12.9401 2.47795V2.47794ZM9.95463 2.62379C9.94463 2.62387 9.93445 2.62487 9.92426 2.62701C9.84274 2.64427 9.791 2.72381 9.80826 2.80532L10.1675 4.5025C10.1848 4.58402 10.2643 4.63576 10.3459 4.6185C10.4274 4.60124 10.4791 4.52177 10.4619 4.44025L10.1026 2.74301C10.0875 2.67168 10.0247 2.62315 9.95464 2.6237L9.95463 2.62379ZM13.9508 2.62523C13.8807 2.62451 13.8179 2.67308 13.8028 2.7444L13.4423 4.44138C13.4249 4.52289 13.4766 4.60245 13.5581 4.61976C13.6396 4.63709 13.7192 4.58539 13.7365 4.50389L14.097 2.8069C14.1144 2.7254 14.0626 2.64584 13.9812 2.62853C13.971 2.62639 13.9608 2.62531 13.9508 2.62531L13.9508 2.62523ZM8.99004 2.89577C8.97056 2.89398 8.95046 2.89613 8.93064 2.90271C8.8514 2.92847 8.80831 3.01293 8.83406 3.09218L9.05957 3.78622C9.08533 3.86547 9.16986 3.90855 9.2491 3.8828C9.32835 3.85704 9.37138 3.77251 9.34563 3.69326L9.12013 2.99923C9.10083 2.9398 9.04845 2.90073 8.99004 2.89576V2.89577ZM14.9099 2.89613C14.8515 2.9011 14.7991 2.94016 14.7798 2.9996L14.5542 3.69357C14.5284 3.77281 14.5715 3.85735 14.6507 3.88311C14.73 3.90887 14.8145 3.86582 14.8403 3.78659L15.0659 3.09255C15.0917 3.01331 15.0486 2.92877 14.9694 2.90301C14.9496 2.89658 14.9294 2.89447 14.9099 2.89611V2.89613ZM8.03617 3.24484C8.01662 3.24519 7.99685 3.24948 7.97782 3.25795C7.90172 3.29179 7.86763 3.38031 7.90147 3.45645L8.60609 5.04172C8.63993 5.11785 8.72845 5.1519 8.80459 5.11805C8.88069 5.08422 8.91484 4.9957 8.88099 4.91956L8.17631 3.33429C8.15094 3.27718 8.09478 3.2437 8.03617 3.24484ZM15.8746 3.25016C15.816 3.24909 15.7598 3.28235 15.7343 3.33941L15.0275 4.92371C14.9936 4.9998 15.0275 5.08839 15.1036 5.12234C15.1797 5.15628 15.2683 5.12236 15.3022 5.04626L16.009 3.46197C16.0429 3.38587 16.009 3.29728 15.9329 3.26334C15.9139 3.25487 15.8941 3.25058 15.8746 3.25015V3.25016ZM7.15077 3.71331C7.1219 3.71116 7.09215 3.71759 7.06509 3.73324C6.99292 3.7749 6.96838 3.86653 7.01004 3.93869L7.37491 4.57067C7.41658 4.64283 7.5082 4.66737 7.58036 4.62571C7.65252 4.58405 7.67707 4.49243 7.63541 4.42027L7.27054 3.78829C7.24449 3.74319 7.1989 3.71668 7.15077 3.71331V3.71331ZM16.7478 3.71331C16.6997 3.71652 16.6542 3.74318 16.6281 3.78828L16.2632 4.42025C16.2215 4.49242 16.2461 4.58404 16.3183 4.6257C16.3905 4.66736 16.4821 4.64282 16.5237 4.57066L16.8886 3.93868C16.9303 3.86652 16.9057 3.77489 16.8336 3.73323C16.8065 3.71761 16.7767 3.71129 16.7478 3.71329V3.71331ZM6.29102 4.24954C6.26207 4.25061 6.2331 4.2599 6.2078 4.27823C6.14036 4.32716 6.12545 4.42084 6.17439 4.48829L7.19305 5.89252C7.24198 5.95996 7.33572 5.97487 7.40317 5.92596C7.47061 5.87703 7.48553 5.78335 7.43658 5.7159L6.41786 4.31167C6.38727 4.26952 6.33923 4.2479 6.29102 4.24955V4.24954ZM17.6183 4.25718C17.5701 4.2554 17.5221 4.27702 17.4914 4.31911L16.4708 5.72198C16.4218 5.78936 16.4366 5.88308 16.504 5.9321C16.5714 5.98112 16.6651 5.96636 16.7141 5.89901L17.7347 4.49614C17.7837 4.42876 17.7689 4.33504 17.7015 4.28602C17.6762 4.26766 17.6473 4.25822 17.6183 4.25718ZM5.52253 4.89403C5.48414 4.89188 5.44496 4.90471 5.414 4.93259C5.35207 4.98833 5.34709 5.08305 5.40285 5.14498L5.89112 5.68738C5.94686 5.74931 6.04157 5.75429 6.1035 5.69853C6.16543 5.64278 6.17042 5.548 6.11466 5.48607L5.62646 4.94374C5.59859 4.91276 5.56093 4.89603 5.52253 4.89401V4.89403ZM18.3772 4.8951C18.3388 4.89725 18.3011 4.91386 18.2732 4.94482L17.785 5.4871C17.7292 5.54902 17.7342 5.6438 17.7961 5.69955C17.858 5.75531 17.9527 5.75031 18.0085 5.6884L18.4968 5.14613C18.5526 5.08421 18.5476 4.98943 18.4857 4.93368C18.4547 4.90581 18.4156 4.89311 18.3772 4.89512L18.3772 4.8951ZM4.78598 5.60153C4.74759 5.60368 4.70999 5.62029 4.68212 5.65126C4.62637 5.71319 4.63136 5.8079 4.69327 5.86365L5.98261 7.02433C6.04454 7.08008 6.13925 7.0751 6.19499 7.01318C6.25074 6.95126 6.24582 6.85654 6.18388 6.80079L4.89448 5.64011C4.8635 5.61224 4.82434 5.59953 4.78595 5.60155L4.78598 5.60153ZM19.1173 5.6066C19.0789 5.60446 19.0397 5.61726 19.0087 5.6451L17.7186 6.80488C17.6566 6.86058 17.6515 6.9553 17.7072 7.01727C17.7629 7.07923 17.8577 7.08427 17.9197 7.02856L19.2098 5.86878C19.2718 5.81308 19.2768 5.71836 19.2211 5.65639C19.1933 5.62541 19.1557 5.60865 19.1173 5.6066H19.1173ZM4.17347 6.38912C4.12525 6.38733 4.07718 6.40906 4.04657 6.45118C3.9976 6.51859 4.01245 6.61225 4.07988 6.66123L4.67024 7.09016C4.73765 7.13914 4.83131 7.12436 4.88029 7.05693C4.92927 6.98952 4.91446 6.89579 4.84707 6.84682L4.25669 6.41788C4.23143 6.39951 4.20241 6.39015 4.17348 6.38911L4.17347 6.38912ZM19.7292 6.39459C19.7003 6.39566 19.6713 6.40491 19.646 6.42328L19.0554 6.85183C18.9879 6.90076 18.973 6.9945 19.0219 7.06195C19.0709 7.12939 19.1645 7.14424 19.232 7.09532L19.8227 6.66677C19.8901 6.61784 19.905 6.52417 19.8561 6.45672C19.8255 6.41457 19.7774 6.39295 19.7292 6.3946V6.39459ZM3.60109 7.22922C3.55296 7.23244 3.50743 7.25909 3.48139 7.3042C3.43973 7.37636 3.46427 7.46798 3.53643 7.50964L5.03881 8.37705C5.11097 8.41871 5.2026 8.39417 5.24426 8.32201C5.28592 8.24985 5.26137 8.15823 5.18921 8.11656L3.68683 7.24914C3.65978 7.23353 3.62996 7.2272 3.60109 7.22921V7.22922ZM20.2975 7.22922C20.2686 7.22708 20.2388 7.23351 20.2118 7.24916L18.7094 8.11657C18.6372 8.15824 18.6127 8.24986 18.6543 8.32202C18.696 8.39418 18.7876 8.41873 18.8598 8.37706L20.3622 7.50966C20.4344 7.46799 20.4589 7.37637 20.4173 7.30421C20.3912 7.25911 20.3456 7.2326 20.2975 7.22924V7.22922ZM3.16831 8.12467C3.1097 8.12325 3.0535 8.1568 3.02804 8.21386C2.99409 8.28996 3.02802 8.37855 3.10412 8.41249L3.77063 8.70979C3.84673 8.74373 3.93532 8.70981 3.96926 8.63371C4.00321 8.55761 3.96921 8.46903 3.89312 8.43508L3.22667 8.13779C3.20766 8.12928 3.18785 8.12507 3.16831 8.12467ZM20.7332 8.13086C20.7137 8.13122 20.6938 8.1355 20.6748 8.14397L20.0081 8.44074C19.932 8.47465 19.898 8.56319 19.9319 8.63931C19.9658 8.71543 20.0544 8.74947 20.1305 8.71558L20.7971 8.41874C20.8733 8.38487 20.9072 8.2963 20.8733 8.22018C20.8479 8.16308 20.7918 8.12969 20.7332 8.13086ZM2.78261 9.06059C2.7242 9.06548 2.67183 9.10451 2.65247 9.16393C2.62667 9.24315 2.66961 9.32772 2.74885 9.35354L4.39833 9.891C4.47755 9.9168 4.56212 9.87381 4.58793 9.79461C4.61373 9.71538 4.57078 9.63081 4.49154 9.605L2.84208 9.06753C2.82228 9.06106 2.80208 9.05896 2.78261 9.0606V9.06059ZM21.1182 9.06702C21.0987 9.06524 21.0786 9.06738 21.0588 9.07395L19.4089 9.61025C19.3297 9.63601 19.2867 9.72055 19.3124 9.79979C19.3382 9.87903 19.4227 9.92208 19.502 9.89632L21.1517 9.36002C21.231 9.33426 21.2741 9.24972 21.2483 9.17048C21.229 9.11105 21.1766 9.07197 21.1182 9.06701V9.06702ZM2.54231 10.043C2.47224 10.0423 2.4094 10.091 2.39424 10.1623C2.37691 10.2438 2.42862 10.3233 2.51011 10.3407L3.22395 10.4924C3.30545 10.5097 3.385 10.458 3.40232 10.3765C3.41965 10.295 3.36795 10.2154 3.28646 10.1981L2.57269 10.0464C2.56251 10.0443 2.55232 10.0432 2.54231 10.0432V10.043ZM21.3566 10.0445C21.3466 10.0445 21.3365 10.0459 21.3263 10.0477L20.6125 10.1993C20.531 10.2166 20.4793 10.2961 20.4966 10.3776C20.5139 10.4591 20.5935 10.5109 20.675 10.4936L21.3887 10.3419C21.4703 10.3246 21.522 10.2451 21.5047 10.1635C21.4895 10.0922 21.4267 10.0437 21.3566 10.0443L21.3566 10.0445ZM2.36043 11.0312C2.29068 11.0379 2.23327 11.0927 2.22561 11.1652C2.21685 11.248 2.27647 11.3218 2.35933 11.3306L4.08454 11.513C4.16741 11.5217 4.24119 11.462 4.24994 11.3792C4.2587 11.2963 4.19902 11.2225 4.11616 11.2138L2.39094 11.0314C2.38058 11.0303 2.3704 11.0303 2.36043 11.0313V11.0312ZM21.5398 11.0442C21.5298 11.0431 21.5196 11.0431 21.5092 11.0443L19.7838 11.2244C19.7009 11.2331 19.6412 11.3067 19.6498 11.3896C19.6585 11.4725 19.7321 11.5322 19.815 11.5236L21.5404 11.3435C21.6233 11.3349 21.683 11.2612 21.6744 11.1783C21.6668 11.1058 21.6095 11.051 21.5398 11.0442L21.5398 11.0442ZM2.33122 12.0428C2.24789 12.0428 2.18082 12.1099 2.18082 12.1932C2.18082 12.2765 2.24789 12.3436 2.33122 12.3436H3.06096C3.14428 12.3436 3.21142 12.2765 3.21142 12.1932C3.21142 12.1099 3.14428 12.0428 3.06096 12.0428H2.33122ZM20.8376 12.0428C20.7543 12.0428 20.6872 12.1099 20.6872 12.1932C20.6872 12.2765 20.7543 12.3436 20.8376 12.3436H21.5674C21.6507 12.3436 21.7178 12.2765 21.7178 12.1932C21.7178 12.1099 21.6507 12.0428 21.5674 12.0428H20.8376ZM4.11415 12.8627C4.10418 12.8616 4.09399 12.8616 4.08363 12.8628L2.35815 13.0429C2.27527 13.0516 2.21554 13.1252 2.22418 13.2081C2.23282 13.291 2.3065 13.3507 2.38937 13.3421L4.11486 13.162C4.19773 13.1534 4.25747 13.0797 4.24883 12.9968C4.24125 12.9243 4.18388 12.8695 4.11414 12.8627H4.11415ZM19.7835 12.8734C19.7138 12.88 19.6564 12.9348 19.6487 13.0073C19.64 13.0901 19.6996 13.1639 19.7824 13.1727L21.5077 13.3551C21.5905 13.3638 21.6643 13.3042 21.673 13.2213C21.6818 13.1384 21.6221 13.0647 21.5393 13.0559L19.8141 12.8735C19.8038 12.8724 19.7935 12.8724 19.7835 12.8734L19.7835 12.8734ZM3.25407 13.8894C3.24406 13.8895 3.23388 13.8905 3.2237 13.8926L2.50986 14.0443C2.42835 14.0616 2.37668 14.1411 2.39399 14.2227C2.41132 14.3042 2.49087 14.3558 2.57238 14.3385L3.28621 14.187C3.36771 14.1696 3.41938 14.0901 3.40207 14.0086C3.38692 13.9373 3.32414 13.8887 3.25408 13.8893L3.25407 13.8894ZM20.6443 13.8909C20.5743 13.8901 20.5115 13.9387 20.4963 14.01C20.479 14.0915 20.5306 14.1711 20.6121 14.1884L21.326 14.3401C21.4075 14.3574 21.487 14.3058 21.5043 14.2243C21.5217 14.1428 21.47 14.0632 21.3885 14.0459L20.6747 13.8942C20.6645 13.892 20.6543 13.891 20.6443 13.891L20.6443 13.8909ZM4.4561 14.4832C4.43663 14.4815 4.41652 14.4836 4.3967 14.4902L2.74685 15.0265C2.6676 15.0522 2.62456 15.1368 2.65032 15.216C2.67608 15.2953 2.76062 15.3383 2.83986 15.3125L4.48966 14.7762C4.56891 14.7505 4.612 14.6659 4.58624 14.5867C4.56691 14.5273 4.51451 14.4882 4.4561 14.4832V14.4832ZM19.4409 14.4886C19.3825 14.4935 19.3301 14.5325 19.3107 14.5919C19.2849 14.6711 19.3279 14.7557 19.4071 14.7815L21.0566 15.319C21.1358 15.3448 21.2204 15.3018 21.2462 15.2226C21.272 15.1434 21.229 15.0588 21.1498 15.033L19.5003 14.4955C19.4805 14.489 19.4603 14.4869 19.4409 14.4886V14.4886ZM3.82652 15.6579C3.80698 15.6582 3.78719 15.6625 3.76816 15.6709L3.10146 15.9678C3.02534 16.0016 2.99136 16.0902 3.02525 16.1663C3.05916 16.2425 3.1477 16.2764 3.22382 16.2425L3.89052 15.9458C3.96664 15.9119 4.00062 15.8233 3.96673 15.7472C3.94133 15.6901 3.88513 15.6567 3.82652 15.6579V15.6579ZM20.0697 15.6636C20.0111 15.6622 19.9549 15.6957 19.9294 15.7528C19.8954 15.8289 19.9294 15.9175 20.0055 15.9514L20.6719 16.2487C20.748 16.2827 20.8366 16.2487 20.8706 16.1726C20.9045 16.0965 20.8706 16.008 20.7945 15.974L20.128 15.6767C20.109 15.6682 20.0892 15.664 20.0697 15.6636V15.6636ZM5.12456 15.9895C5.09569 15.9874 5.06587 15.9938 5.03881 16.0095L3.53643 16.8769C3.46427 16.9185 3.43973 17.0102 3.48139 17.0823C3.52305 17.1545 3.61467 17.179 3.68683 17.1374L5.18921 16.27C5.26137 16.2284 5.28592 16.1367 5.24426 16.0645C5.21821 16.0194 5.17269 15.9929 5.12456 15.9895V15.9895ZM18.7741 15.9895C18.726 15.9927 18.6804 16.0194 18.6543 16.0645C18.6127 16.1367 18.6372 16.2283 18.7094 16.27L20.2118 17.1374C20.2839 17.179 20.3756 17.1545 20.4173 17.0823C20.4589 17.0101 20.4344 16.9185 20.3622 16.8769L18.8598 16.0094C18.8327 15.9938 18.803 15.9875 18.7741 15.9895V15.9895ZM4.74982 17.2624C4.72088 17.2635 4.6919 17.2728 4.66661 17.2912L4.07597 17.7197C4.00853 17.7687 3.99361 17.8624 4.04253 17.9298C4.09146 17.9972 4.18515 18.0122 4.25259 17.9632L4.84328 17.5347C4.91073 17.4857 4.92565 17.3921 4.87673 17.3246C4.84614 17.2825 4.79804 17.2608 4.74982 17.2624V17.2624ZM19.1452 17.2675C19.097 17.2657 19.0489 17.2874 19.0183 17.3296C18.9693 17.397 18.9842 17.4907 19.0516 17.5397L19.642 17.9686C19.7094 18.0176 19.803 18.0027 19.852 17.9353C19.901 17.8679 19.8862 17.7742 19.8188 17.7253L19.2284 17.2963C19.2032 17.278 19.1741 17.2685 19.1452 17.2675L19.1452 17.2675ZM6.08752 17.3194C6.04913 17.3173 6.00997 17.3301 5.97899 17.3579L4.68881 18.5177C4.62685 18.5734 4.6218 18.6681 4.67751 18.7301C4.73322 18.7921 4.82794 18.7971 4.88991 18.7414L6.18008 17.5816C6.24205 17.5259 6.24709 17.4312 6.19138 17.3692C6.16355 17.3382 6.12591 17.3215 6.08752 17.3194ZM17.8075 17.3236C17.7691 17.3257 17.7315 17.3423 17.7036 17.3733C17.6478 17.4352 17.6528 17.5299 17.7147 17.5857L19.0041 18.7464C19.066 18.8021 19.1608 18.7971 19.2165 18.7352C19.2723 18.6733 19.2673 18.5786 19.2054 18.5228L17.916 17.3622C17.885 17.3343 17.8459 17.3216 17.8075 17.3236V17.3236ZM7.31149 18.4254C7.26328 18.4236 7.21516 18.4452 7.18452 18.4873L6.16399 19.8902C6.11497 19.9576 6.12972 20.0513 6.19707 20.1003C6.26445 20.1493 6.35817 20.1346 6.40719 20.0672L7.42773 18.6643C7.47675 18.5969 7.462 18.5032 7.39465 18.4542C7.36939 18.4358 7.34042 18.4264 7.31149 18.4254ZM16.5787 18.4317C16.5498 18.4328 16.5208 18.442 16.4955 18.4604C16.4281 18.5093 16.4131 18.603 16.4621 18.6704L17.4807 20.0747C17.5296 20.1421 17.6233 20.157 17.6908 20.1081C17.7582 20.0592 17.7731 19.9655 17.7242 19.8981L16.7056 18.4938C16.675 18.4517 16.6269 18.4301 16.5787 18.4317V18.4317ZM5.99405 18.6484C5.95565 18.6505 5.918 18.6671 5.89013 18.6981L5.40186 19.2404C5.3461 19.3023 5.35104 19.3971 5.41297 19.4528C5.47489 19.5086 5.5696 19.5036 5.62536 19.4416L6.11369 18.8994C6.16945 18.8374 6.16445 18.7427 6.10254 18.6869C6.07156 18.659 6.03246 18.6463 5.99407 18.6483L5.99405 18.6484ZM17.9036 18.6491C17.8652 18.6469 17.8261 18.6598 17.7952 18.6876C17.7332 18.7434 17.7283 18.8381 17.784 18.9L18.2722 19.4424C18.3279 19.5044 18.4226 19.5093 18.4846 19.4536C18.5465 19.3978 18.5515 19.303 18.4957 19.2411L18.0075 18.6988C17.9797 18.6678 17.942 18.6511 17.9036 18.6491L17.9036 18.6491ZM8.73663 19.2507C8.67802 19.2492 8.62188 19.2828 8.59642 19.3399L7.8896 20.9242C7.85565 21.0003 7.88958 21.0888 7.96568 21.1228C8.04177 21.1567 8.13036 21.1228 8.1643 21.0467L8.87113 19.4624C8.90507 19.3863 8.87114 19.2977 8.79505 19.2638C8.77604 19.2553 8.75617 19.2511 8.73663 19.2507ZM15.1524 19.255C15.1329 19.2554 15.113 19.2596 15.094 19.2681C15.0179 19.3019 14.9838 19.3904 15.0177 19.4666L15.7223 21.0518C15.7561 21.1279 15.8447 21.162 15.9208 21.1282C15.9969 21.0943 16.031 21.0058 15.9972 20.9297L15.2926 19.3444C15.2672 19.2873 15.211 19.2539 15.1524 19.255ZM7.49461 19.7405C7.44649 19.7437 7.40095 19.7704 7.37491 19.8155L7.01004 20.4475C6.96838 20.5196 6.99292 20.6112 7.06509 20.6529C7.13725 20.6946 7.22888 20.67 7.27054 20.5979L7.63541 19.9659C7.67707 19.8937 7.65253 19.8021 7.58036 19.7604C7.55331 19.7448 7.52349 19.7385 7.49461 19.7405V19.7405ZM16.404 19.7405C16.3751 19.7384 16.3454 19.7448 16.3183 19.7604C16.2461 19.8021 16.2216 19.8937 16.2633 19.9659L16.6281 20.5979C16.6698 20.67 16.7614 20.6946 16.8336 20.6529C16.9057 20.6112 16.9303 20.5196 16.8886 20.4475L16.5237 19.8155C16.4977 19.7704 16.4521 19.7439 16.404 19.7405V19.7405ZM10.3101 19.7632C10.2401 19.7624 10.1773 19.811 10.1622 19.8823L9.80163 21.5793C9.7843 21.6608 9.83601 21.7404 9.9175 21.7577C9.99901 21.775 10.0786 21.7233 10.0959 21.6418L10.4564 19.9448C10.4737 19.8633 10.422 19.7838 10.3405 19.7665C10.3303 19.7643 10.3202 19.7633 10.3102 19.7633L10.3101 19.7632ZM13.5831 19.7642C13.5731 19.7643 13.563 19.7653 13.5528 19.7674C13.4713 19.7847 13.4196 19.8642 13.4368 19.9457L13.7961 21.6429C13.8134 21.7245 13.8929 21.7762 13.9744 21.7589C14.0559 21.7417 14.1077 21.6621 14.0904 21.5806L13.7311 19.8835C13.7159 19.8122 13.6532 19.7636 13.5831 19.7642L13.5831 19.7642ZM11.9493 19.9354C11.866 19.9354 11.7989 20.0025 11.7989 20.0858V21.8206C11.7989 21.904 11.866 21.971 11.9493 21.971C12.0326 21.971 12.0997 21.904 12.0997 21.8206V20.0858C12.0997 20.0025 12.0326 19.9354 11.9493 19.9354ZM9.18848 20.496C9.13007 20.5009 9.07765 20.54 9.05833 20.5994L8.83276 21.2935C8.807 21.3727 8.85006 21.4573 8.92929 21.483C9.00853 21.5088 9.09307 21.4657 9.11883 21.3864L9.3444 20.6925C9.37016 20.6132 9.3271 20.5287 9.24787 20.5029C9.22808 20.4965 9.20795 20.4943 9.18848 20.496V20.496ZM14.7089 20.4963C14.6895 20.4946 14.6694 20.4967 14.6496 20.5032C14.5703 20.529 14.5272 20.6135 14.553 20.6928L14.7785 21.3868C14.8042 21.4661 14.8888 21.5091 14.968 21.4833C15.0473 21.4576 15.0904 21.3731 15.0646 21.2939L14.839 20.5998C14.8197 20.5404 14.7674 20.5013 14.7089 20.4964V20.4963ZM11.0052 20.8829C10.9355 20.8896 10.878 20.9444 10.8704 21.0169L10.7941 21.7426C10.7854 21.8255 10.8451 21.8992 10.928 21.9079C11.0108 21.9166 11.0846 21.8569 11.0933 21.7741L11.1696 21.0483C11.1783 20.9655 11.1186 20.8917 11.0357 20.883C11.0254 20.8819 11.0152 20.8819 11.0052 20.8829L11.0052 20.8829ZM12.8873 20.8836C12.8774 20.8825 12.8671 20.8825 12.8567 20.8837C12.7739 20.8924 12.7141 20.9661 12.7228 21.0489L12.7986 21.7748C12.8072 21.8576 12.8809 21.9173 12.9638 21.9087C13.0467 21.9 13.1064 21.8263 13.0978 21.7435L13.022 21.0177C13.0144 20.9452 12.9571 20.8904 12.8873 20.8836L12.8873 20.8836Z" fill="#F4F2F3"/>
<g opacity="0.409" filter="url(#filter0_f_2911_314)">
<path d="M18.9988 6.17703L10.77 10.958L5.5672 19.1487L13.1785 13.5111L18.9988 6.17703Z" fill="black"/>
</g>
<path d="M13.1286 13.428L10.77 10.958L19.1369 5.32954L13.1286 13.428Z" fill="#FF5150"/>
<path d="M13.1286 13.428L10.77 10.958L4.7617 19.0564L13.1286 13.428Z" fill="#F1F1F1"/>
<path opacity="0.243" d="M4.76168 19.0564L13.1286 13.428L19.1369 5.32953L4.76168 19.0564Z" fill="black"/>
<defs>
<filter id="filter0_f_2911_314" x="4.89387" y="5.50371" width="14.7782" height="14.3183" filterUnits="userSpaceOnUse" color-interpolation-filters="sRGB">
<feFlood flood-opacity="0" result="BackgroundImageFix"/>
<feBlend mode="normal" in="SourceGraphic" in2="BackgroundImageFix" result="shape"/>
<feGaussianBlur stdDeviation="0.336663" result="effect1_foregroundBlur_2911_314"/>
</filter>
<linearGradient id="paint0_linear_2911_314" x1="11.9493" y1="23.3859" x2="11.9493" y2="1" gradientUnits="userSpaceOnUse">
<stop stop-color="#BDBDBD"/>
<stop offset="1" stop-color="white"/>
</linearGradient>
<radialGradient id="paint1_radial_2911_314" cx="0" cy="0" r="1" gradientUnits="userSpaceOnUse" gradientTransform="translate(11.9963 10.6889) scale(11.193 11.193)">
<stop stop-color="#06C2E7"/>
<stop offset="0.25" stop-color="#0DB8EC"/>
<stop offset="0.5" stop-color="#12AEF1"/>
<stop offset="0.75" stop-color="#1F86F9"/>
<stop offset="1" stop-color="#107DDD"/>
</radialGradient>
</defs>
</svg>
